<svg version="1.1" xmlns="http://www.w3.org/2000/svg" xmlns:xlink="http://www.w3.org/1999/xlink" width="462.05023" height="317.87872" viewBox="0,0,462.05023,317.87872"><g transform="translate(-0.99104,-37.55643)"><g data-paper-data="{&quot;isPaintingLayer&quot;:true}" fill-rule="nonzero" stroke="none" stroke-linecap="butt" stroke-linejoin="miter" stroke-miterlimit="10" stroke-dasharray="" stroke-dashoffset="0" style="mix-blend-mode: normal"><path d="M89.64958,141.5474c-0.71776,-1.47537 -1.42872,-2.95554 -2.33575,-4.31537c-0.92058,-1.38016 -2.54377,-2.2043 -3.42879,-3.60753c-0.95759,-1.5183 -1.11337,-3.4392 -2,-5c-0.31206,-0.54934 -1.04203,-0.72362 -1.49912,-1.15976c-2.56361,-2.44611 -5.49445,-4.49445 -8,-7c-1.12081,-1.12081 -1.78809,-2.62141 -2.77827,-3.85914c-1.74822,-2.18528 -4.28914,-3.75703 -6,-6c-1.69189,-2.2181 -3.31046,-4.50681 -4.68982,-6.93164c-0.11027,-0.19385 0.84382,-0.08004 0.64442,-0.17992c-0.94247,-0.47209 -2.19554,-0.31886 -3,-1c-1.59956,-1.35434 -2.6364,-3.25896 -3.95459,-4.88843c-0.66667,-0.66667 -1.73487,-1.09524 -2,-2c-1.5303,-5.22211 -6.18852,-11.39898 -3.27291,-15.9937c3.29252,-5.18869 11.48149,-4.41399 17.35968,-6.20567c0.95655,-0.29156 2,0 3,0c2.71299,0 7.70063,-0.08943 9.71568,0.60297c2.01772,0.69332 3.4454,2.54527 5.33414,3.53751c0.53477,0.28094 1.21066,0.07762 1.79998,0.21034c3.78109,0.85153 7.45262,2.30938 11.30802,2.70636c8.18732,0.84302 16.54393,0.30162 24.72432,1.09454c1.04918,0.1017 1.95114,0.89511 3,1c2.32175,0.23218 4.68576,-0.2979 7,0c4.22434,0.54377 7.72333,3.41414 11.81746,4.1626c4.02305,0.73547 8.08781,1.29328 12.05156,2.30054c3.27874,1.46845 6.76418,2.54283 9.83623,4.40535c1.47658,0.89522 2.28583,2.60285 3.58995,3.73464c1.91971,1.66603 4.95778,1.19899 7.31919,2.13956c0.43694,0.17404 0.90516,0.3226 1.36495,0.48744c1.98418,-3.45373 4.74351,-6.4749 7.38327,-9.46818c2.50618,-2.84181 3.93774,-6.7125 6.97907,-8.97239c2.72976,-2.02838 6.91448,-4.3913 11.0222,-5.06414c0.37014,-0.6922 0.77825,-1.37473 1.07895,-2.03695c0.8036,-1.76975 2.12387,-3.26501 3,-5c0.68911,-1.36463 0.87802,-2.96595 1.67988,-4.26752c2.15295,-3.49466 5.54685,-6.81923 7.90838,-10.27203c1.78203,-1.78203 2.88309,-4.19794 4.77827,-5.85914c2.05301,-1.79954 4.3405,-3.38732 6.81197,-4.54708c0.96871,-0.45457 2.08853,-0.38261 3.17485,-0.4352c0.00285,-0.00538 0.00721,-0.01128 0.01317,-0.01772c1.25411,-1.35412 2.36905,-3.13766 4.13116,-3.68664c4.39175,-1.36823 9.52705,-3.85127 13.67387,-1.86044c4.86952,2.33779 7.30145,8.16238 9.61748,13.04228c2.44574,5.15322 1.77982,11.27068 2.48427,16.93116c0.13018,1.04602 0.89297,1.95135 1,3c0.26145,2.56166 -0.12614,5.15883 0.09454,7.72432c0.14567,1.69342 0.86692,3.30555 1,5c0.11655,1.48397 -0.53014,2.99493 -0.25714,4.45822c0.53591,2.87246 4.25739,5.29458 5.82574,7.4685c3.98082,5.51788 8.33848,11.2712 10.98182,17.47447c0.29668,0.37231 1.05528,1.31312 1.87688,2.35197c6.21598,-3.23898 13.65546,-6.01823 19.99775,-7.19363c0.51526,-0.09549 0.86269,0.70849 1.38561,0.74269c0.25709,0.01682 -0.58927,-0.53523 -0.37382,-0.67651c2.04963,-1.34402 4.47127,-2.04721 6.53764,-3.36535c1.89577,-1.20932 3.33564,-3.07569 5.29346,-4.18174c2.94142,-1.66172 6.11812,-2.88781 9.28809,-4.05595c0.61428,-0.22637 1.3993,0.24497 1.96195,-0.08971c1.61067,-0.95807 2.5842,-2.86051 4.29268,-3.63074c1.61618,-0.72861 3.55566,-0.24828 5.27452,-0.6824c2.70172,-0.68236 7.16908,-2.31039 9.35167,-3.99411c1.11975,-0.86381 1.82233,-2.217 3,-3c2.18213,-1.45084 4.64847,-2.4204 6.97271,-3.6306c2.18953,-1.36464 4.59424,-2.48326 7.10843,-3.06216c0.17086,-0.03934 -0.63531,0.0478 -0.51929,-0.08366c1.03955,-1.17787 2.1465,-2.32934 3.43816,-3.22359c5.27141,-3.64954 11.53628,-5.44111 16.97271,-8.6306c4.50961,-2.64574 8.64111,-6.91622 14.46199,-6.49927c4.38144,0.31384 10.11489,-0.16541 12.74416,3.35346c3.71689,4.97447 2.63605,12.15125 3.4415,18.3085c1.78546,13.64893 -1.60375,27.703 -5.56995,40.61511c-0.94256,3.06853 -2.25865,6.02379 -3.04491,9.13604c-3.50023,8.13994 -3.53807,9.7044 -9.04837,16.69821c-0.85056,1.07955 -2.20145,1.68084 -3.09162,2.72797c-0.18675,0.21968 0.1333,0.59206 0.03793,0.86416c-0.7353,2.09783 -1.48472,4.20575 -2.50687,6.17976c-0.56002,1.08152 -1.84473,1.75105 -2.20255,2.91521c-0.28353,0.92244 0.43445,1.89853 0.42635,2.86353c-0.01798,2.14152 0.04685,4.33547 -0.50417,6.40496c-0.30923,1.16139 -1.3998,1.95875 -2,3c-0.10765,0.18675 0.50895,-0.62047 0.50417,-0.40496c-0.01185,0.53468 -0.81181,1.06102 -0.52877,1.5148c2.91041,4.66621 6.73152,8.71085 9.76701,13.29668c4.75894,7.18953 8.32099,15.15698 13.4006,22.12365c2.00447,2.74913 4.56109,5.05206 6.73903,7.66591c7.95084,9.54217 15.43486,19.83483 20.76958,31.06626c2.63336,3.24797 5.08193,6.66937 7.1781,10.28738c0.62783,1.08365 0.92046,2.39462 1.77182,3.31314c1.38848,1.49801 3.44841,2.2724 4.81355,3.79172c1.7503,1.94796 2.786,4.4493 4.42586,6.4911c1.60673,2.00055 5.89624,5.07304 6.68982,7.93164c1.36262,4.90835 5.42548,10.83483 2.58309,15.06206c-8.30263,12.34772 -17.11905,5.38668 -25.29582,2.52677c-7.76818,-2.717 -8.22659,-1.33977 -17.0705,-5.44114c-2.85282,-1.323 -5.19267,-3.58303 -8,-5c-1.61438,-0.81485 -3.48169,-0.99665 -5.16907,-1.64698c-2.08373,-0.80308 -3.99696,-2.03988 -6.12811,-2.70702c-1.5485,-0.48475 -3.21621,-0.43854 -4.81447,-0.71848c-7.45278,-1.30538 -14.83011,-2.38507 -22.41414,-2.81955c-2.7204,-0.15585 -5.48818,0.34823 -8.17381,-0.11248c-3.66851,-0.62931 -7.14605,-2.08566 -10.71908,-3.12849c-8.93493,-1.09401 -17.82504,-2.69772 -26.73248,-3.80415c-0.87905,-0.10919 -1.7491,-0.2767 -2.61571,-0.46393c-0.68558,2.21917 -1.94066,4.3123 -2.92636,6.42532c-2.90726,6.23228 -7.05919,12.97636 -11.0387,18.57689c-0.30521,0.42953 -1.04786,0.46672 -1.26627,0.94625c-0.67881,1.49041 -0.61663,3.25355 -1.32012,4.73248c-1.22406,2.57328 -2.80303,4.9705 -4.41361,7.32128c-0.38543,0.56257 -1.20922,0.75538 -1.53162,1.3563c-1.11751,2.08289 -1.47355,4.53869 -2.71149,6.55233c-1.42324,2.31505 -3.62243,4.06801 -5.18467,6.29163c-2.47571,3.5238 -4.04766,7.66233 -6.74686,11.01802c-1.58347,1.96859 -3.55434,3.59131 -5.33152,5.38696c-1.48977,1.86221 -3.35457,3.41444 -4.76011,5.34101c-1.48838,2.04013 -1.75938,5.47034 -4.1248,6.35476c-17.72252,6.62633 -18.62941,0.25743 -32.8569,-8.42152c-1.90893,-1.16447 -4.10921,-1.80631 -6,-3c-15.68919,-9.90485 -30.55819,-22.73941 -48.89559,-27.5123c-1.93551,-0.50378 -4.02456,0.31245 -6,0c-1.3791,-0.21813 -2.71953,-0.66211 -4.02385,-1.16785c-4.62745,3.56407 -9.53508,6.75695 -14.2912,10.14998c-2.57482,1.83689 -4.99648,3.91568 -7.74209,5.48588c-10.97018,6.27378 -22.84766,11.9744 -35.25806,14.54461c-7.12886,0.7872 -13.68773,1.1391 -20.80266,1.1391c-2,0 -4.03446,0.36969 -6,0c-3.44932,-0.64877 -7.85392,0.09361 -10.23109,-2.48859c-3.5063,-3.8087 -5.36416,-9.36732 -5.44875,-14.54354c-0.06915,-4.23159 3.31354,-7.78902 5.0205,-11.66167c1.27653,-2.89611 2.31474,-5.92158 3.92955,-8.6436c0.64057,-1.07977 1.89089,-1.66026 2.73464,-2.58995c1.21863,-1.34275 0.41827,-3.65552 1.13956,-5.31919c0.83249,-1.92014 2.24975,-3.53884 3.18056,-5.41329c0.5579,-1.1235 0.62782,-2.46418 1.26712,-3.54344c1.08299,-1.82828 2.35787,-3.53967 3.68673,-5.20204c-1.76566,-0.40163 -3.21144,-1.74783 -4.82815,-2.58926c-2.75605,-2.39516 -5.32524,-5.02401 -8.26815,-7.18547c-2.41193,-1.77147 -5.43948,-2.63967 -7.7305,-4.56495c-2.49795,-2.09918 -3.46041,-5.9059 -6.32236,-7.47293c-1.96131,-1.07389 -4.10172,-1.81825 -6,-3c-0.45217,-0.28149 -0.43665,-1.08106 -0.91887,-1.30725c-1.24429,-0.58365 -2.76967,-0.38748 -4,-1c-0.76423,-0.38047 -0.97431,-1.52 -1.75512,-1.86517c-0.7535,-0.3331 -1.66184,0.14877 -2.47152,-0.00331c-6.16797,-1.15849 -12.1845,-3.68803 -18.41981,-4.69441c-8.01203,-1.29314 -16.44662,1.83759 -24.39671,-1.25845c-3.46858,-1.35078 -8.06083,-2.19107 -9.69974,-5.53317c-2.3005,-4.69126 -0.46184,-10.4397 -0.69275,-15.65956c9.44757,-7.60723 19.53586,-14.96661 28.52623,-23.08737c5.07999,-4.58862 9.70087,-9.85624 15.10372,-14.0889c3.43582,-2.69167 9.89592,-6.64755 13.02031,-10.06812c2.2925,-2.50983 3.83235,-5.64574 6.13733,-8.14412c1.13759,-1.23304 3.10171,-1.57957 4.08665,-2.93765c1.14313,-1.5762 1.1546,-3.73655 2.01907,-5.48121c1.59377,-3.21654 4.75682,-6.57495 6.84673,-9.33889c2.04686,-2.70702 3.95301,-7.04984 5.98101,-9.17303c1.88538,-1.97388 4.08111,-3.42286 6.45896,-4.50033z" fill="#ff7b00" stroke-width="0.5"/><path d="M80.23819,221.86979c-1.91298,-0.1177 -3.25944,-0.56652 -3.25944,-0.56652c-2.53874,-0.89214 -5.23524,-1.4226 -7.61621,-2.67643c-2.78152,-1.46476 -5.05629,-3.74905 -7.72884,-5.40431c-2.52584,-1.5644 -12.29344,-5.56593 -13.52666,-6.3365c-7.36149,-4.59976 -11.31639,-13.18836 -17.86198,-18.64302c-1.21768,-1.01473 -2.73057,-1.66528 -3.85914,-2.77827c-0.85572,-0.84391 -1.19177,-2.1105 -2,-3c-1.1011,-1.21181 -2.86903,-1.59128 -4.20922,-2.53191c-1.61365,-1.13257 -4.00421,-1.66036 -4.79078,-3.46809c-2.30518,-5.29785 -6.21397,-11.49528 -4.05117,-16.85284c2.87106,-7.11202 13.26339,-6.20567 19.35968,-6.20567c7.42429,0 16.38649,-1.27263 23.49653,0.89442c0.90185,0.27487 1.16594,1.56042 2,2c0.24677,0.13006 0.10865,-0.7759 0.38561,-0.74269c2.26166,0.27118 4.29861,1.61375 6.55351,1.93631c5.72789,0.81938 12.71404,-0.08804 18.56435,-0.08804c3.55525,0 7.1105,0 10.66575,0c-1.30513,-2.07329 -2.17242,-3.94345 -3.19784,-6.37965c-1.40398,-3.33559 -5.27077,-6.58359 -4.16072,-10.02816c1.69097,-5.24724 6.4673,-9.4131 11.28785,-12.08801c3.32742,-1.84638 7.60049,-0.42184 11.40496,-0.50417c4.01999,-0.08699 7.92907,1.381 11.83236,2.34648c4.17357,1.03233 8.3634,2.02906 12.60329,2.74155c1.73198,0.29105 3.56161,-0.20563 5.26394,0.22629c4.32684,1.09781 6.20485,3.22539 10.45822,3.74286c3.35694,0.4084 6.89844,-0.38989 10.27784,0.03085c1.57426,0.196 9.06223,2.22529 10.64097,2.64181c0.05774,0.02947 0.11553,0.05883 0.17338,0.0881c0,-9.35598 0,-18.71197 0,-28.06795c0,-1.71473 -0.02939,-10.54875 0.15172,-10.88214c2.61589,-4.81543 5.01149,-13.14027 10.47169,-12.67381c9.76866,0.83453 22.38745,17.70201 29.17613,26.0614c1.82128,2.24267 3.77595,4.40784 5.27193,6.87941c0.16411,0.27113 -1.05779,0.41627 -0.77249,0.55428c1.19024,0.57578 2.86035,0.0648 3.85441,0.93659c2.17048,1.90352 3.62816,4.50979 5.15182,6.9619c0.14367,0.23122 0.11956,0.51573 0.06779,0.80157c1.85749,0.52868 3.58202,1.45028 5.33958,2.26279c1.12008,-0.73164 2.28651,-1.43505 3.07194,-2.49689c3.92246,-5.30285 7.95847,-10.54263 12.38509,-15.43251c1.87479,-2.07099 4.40721,-3.4464 6.44282,-5.35955c1.77391,-1.6672 1.1007,-5.00182 2.79977,-6.74521c2.51833,-2.58402 5.74199,-4.42912 8.93284,-6.11366c0.5742,-0.30314 1.26018,0.4273 1.90843,0.39025c0.30941,-0.01769 -0.94707,-0.174 -0.81197,-0.45292c0.41097,-0.84853 1.2774,-1.39441 2,-2c6.58012,-5.51468 9.63156,-8.97737 20.5396,-2.95291c3.02245,1.66929 3.1927,6.1232 4.78906,9.1848c3.50494,6.79846 7.35299,13.35193 11.94534,19.48171c1.80686,2.41176 4.89137,3.60016 6.88187,5.86272c1.68037,1.91003 2.91907,4.18601 4.08152,6.44888c0.12163,0.23677 -1.02957,-0.18345 -0.7967,-0.0545c1.25881,0.69706 3.00463,0.68583 3.92869,1.78883c1.96293,2.34303 2.82492,5.42302 4.33814,8.07877c0.76639,1.34504 1.73058,2.57178 2.62453,3.83904c1.03851,-0.98161 2.43174,-1.53329 3.52709,-2.45562c2.27087,-1.91216 6.4979,-7.3067 7.7729,-8.8367c4.94782,-4.95669 10.58367,-9.05744 15.75299,-13.75299c2.5969,-2.3589 4.75528,-5.19303 7.47411,-7.41031c2.58821,-2.11075 5.36846,-3.9406 8,-6c1.14919,-0.89933 2.0094,-2.17681 3.27203,-2.90838c5.93522,-3.43884 13.69403,-4.71515 20.13584,-7.03793c4.10405,-1.47983 7.61971,-3.86545 11.54497,-5.82251l0.8558,0.16078c0.02054,-0.0141 0.04113,-0.02813 0.06176,-0.0421l-0.13671,-0.41012l2.7398,-0.91327c1.24174,-0.44644 2.5804,-0.6897 3.97587,-0.6897c6.48935,0 11.75,5.26065 11.75,11.75c0,2.88934 -1.04289,5.53511 -2.77277,7.58141l-4.76451,5.71741c-0.48013,1.37171 -1.75837,2.31697 -2.62073,3.48765c-1.1048,1.4998 -1.98075,3.19053 -3.28348,4.52203c-2.68057,2.73975 -6.73064,5.01766 -9.60988,7.56808c-1.02773,0.91036 -7.28797,7.54259 -8.56645,8.46122c-2.35751,1.69394 -5.10072,2.7867 -7.5273,4.38012c-3.99002,2.62006 -6.42409,5.62991 -10.73453,7.81417c-1.01668,0.51519 -1.01386,2.07667 -1.78358,2.91727c-0.43149,0.47123 -0.86646,0.94388 -1.31111,1.40759c2.32977,-0.04128 4.60724,0.07994 6.58687,0.63301c8.23144,2.29969 15.52696,7.05296 22.42395,11.91805c2.24407,1.58295 4.0535,3.74176 6.3457,5.25418c3.32768,2.19566 8.08403,4.13629 11.52203,6.03769c1.32839,0.73467 2.46074,1.81558 3.84232,2.44453c2.42808,1.10537 5.25459,1.15878 7.66585,2.30038c0.95218,0.45081 1.67918,1.2822 2.59113,1.80966c1.19205,0.68948 2.82413,-0.2939 4.12864,0.14727c3.27024,1.10596 6.28424,2.85985 9.42636,4.28977c0.91926,5.78974 5.20067,12.04021 2.75778,17.36923c-1.03961,2.26784 -13.53893,6.94644 -18.63063,7.60124c-1.17502,0.15111 -2.38073,-0.23124 -3.55351,-0.06369c-1.0435,0.14909 -1.9532,0.87624 -3,1c-0.82827,0.09792 -1.66944,-0.56024 -2.47718,-0.35245c-0.58273,0.14991 -0.70355,1.042 -1.24258,1.30937c-3.17717,1.57596 -5.59151,1.79312 -8.87722,2.72621c-2.49617,0.70887 -4.80761,1.89711 -7.40301,2.31687c-3.22007,0.52078 -6.48393,0.72047 -9.72432,1.09454c-2.07833,0.23992 -4.21171,-0.43664 -6.27568,-0.09454c-3.17686,0.52656 -5.58214,1.23505 -9,1c-1.51876,-0.10445 -2.53588,1.68662 -3.83682,2.47726c-1.78941,1.08751 -3.59408,2.14972 -5.39112,3.22458c-2.3182,1.04519 -4.5231,2.39108 -6.95461,3.13556c-1.21783,0.37287 -2.55908,-0.03396 -3.81746,0.1626c-2.54486,0.39751 -4.89663,1.6996 -7.44649,2.06369c-0.93994,0.13421 -1.89753,0.21596 -2.85034,0.20362c2.52802,2.33417 3.98543,5.32204 5.94678,8.26407c0.52298,0.78446 1.49419,1.20436 2,2c1.17938,1.85516 2.37854,3.75004 3.13145,5.81287c3.14823,0.81526 2.54041,2.79636 4.89166,6.89509c1.9925,3.47336 3.46271,7.2405 4.76845,11.02591c0.7854,3.61812 1.97087,7.17207 2.35619,10.85435c0.1344,1.28442 -0.9606,2.50138 -0.82426,3.78559c0.04336,0.4084 1.04726,-0.32005 1.23119,0.04716c1.86412,3.72182 5.41047,7.52309 4.60605,11.60719c-2.37512,12.05862 -14.9264,14.50965 -24.57496,12.44046c-4.24532,-0.91043 -8.1313,-3.04771 -12.19448,-4.57813c-1.51211,-0.56955 -3.19169,-0.63816 -4.67689,-1.27461c-1.24145,-0.53199 -2.2307,-1.52994 -3.40887,-2.19034c-2.51944,-1.41222 -5.7728,-0.95688 -8.38195,-2.19553c-0.55194,-0.26202 -1.02114,-0.71665 -1.37465,-1.25009c-1.56557,0.34875 -3.42026,-0.35005 -5.08102,-0.35959c-5.96684,-0.03428 -11.8135,-1.26596 -17.73011,-2.02271c-3.92103,-0.12184 -7.93176,-0.99123 -11.44723,-2.73215c-1.94507,-0.96323 -3.15269,-3.08345 -5.52226,-3.55947c-1.08347,-0.21766 -2.19688,0.37361 -3.3004,0.31432c-2.40042,-0.12897 -4.85869,-0.1582 -7.17215,-0.80004c-0.35034,0.20989 -0.70236,0.41759 -1.04137,0.64203c-0.70604,0.46742 -2.20161,0.44352 -2.1882,1.29015c0.08154,5.14863 -1.76466,11.00234 -3.1991,15.96765c-0.67277,2.3288 -0.97532,4.83269 -2.17433,6.93942c-0.89803,1.57789 -4.9518,5.55475 -6.91634,7.51929c-4.25046,3.96911 -7.4363,9.17524 -12,13c-1.88525,1.58 -3.38019,4.17694 -5.81197,4.54708c-14.77628,2.24907 -15.39319,0.51229 -20.64356,-10.13991c-0.65164,-1.32209 -1.14149,-2.75363 -1.37021,-4.2133c-0.8126,-0.0147 -1.96727,-0.56762 -2.64514,-0.94717c-2.02659,-1.13473 -4.07522,-2.31478 -5.77809,-3.89429c-1.20292,-1.11578 -9.59011,-11.76199 -10.38099,-13.04576c-1.85366,-3.00888 -2.90427,-7.16236 -4.23374,-10.45277c-0.08779,-0.21728 -0.19269,-0.42421 -0.31135,-0.6228c-0.42441,-0.03789 -0.84504,-0.04972 -1.25131,0.0587c-3.65135,0.9744 -16.89957,6.02916 -20.05251,7.60358c-1.29541,0.64686 -2.20321,1.89831 -3.43662,2.65674c-3.1508,1.93742 -6.45368,3.6159 -9.68671,5.41275c-7.8067,4.33881 -15.88087,7.86428 -23.3736,12.62609c-1.93776,1.2315 -3.3978,3.1614 -5.4168,4.25463c-2.73481,1.48082 -5.66045,2.70018 -8.6939,3.38592c-2.3491,0.53103 -4.81412,0.26011 -7.22201,0.21201c-7.92074,-0.15821 -11.67142,-0.06022 -17.35968,-8.20567c-1.65212,-2.3658 -1.10471,-5.67293 -1.39032,-8.54433c-0.16599,-1.66877 0.18543,-3.36016 0.04004,-5.03085c-0.29263,-3.36264 -0.98052,-6.71292 -0.88831,-10.087c-2.67298,-5.68188 -5.02544,-14.08493 -4.33581,-20.58259c-0.02002,-0.0394 -0.04038,-0.08012 -0.06106,-0.12221c-3.64816,-7.42206 -2.75485,-15.21013 -2.75485,-23.17734c0,-6.66667 0,-13.33333 0,-20c0,-2.59363 0.72968,-5.23655 0.21201,-7.77799c-0.35828,-1.75894 -1.33333,-3.33333 -2,-5c0.02725,-0.16949 0.0545,-0.33897 0.08175,-0.50846z" fill="#ffde00" stroke-width="0.5"/><text transform="translate(55.69443,245.40623) scale(2.99187,2.99187)" font-size="40" xml:space="preserve" fill="#000000" fill-rule="nonzero" stroke="none" stroke-width="1" stroke-linecap="butt" stroke-linejoin="miter" stroke-miterlimit="10" stroke-dasharray="" stroke-dashoffset="0" font-family="Marker" font-weight="normal" text-anchor="start" style="mix-blend-mode: normal"><tspan x="0" dy="0">BOOM</tspan></text></g></g></svg>