<?xml version="1.0" standalone="no"?>
<!DOCTYPE svg PUBLIC "-//W3C//DTD SVG 20010904//EN"
 "http://www.w3.org/TR/2001/REC-SVG-20010904/DTD/svg10.dtd">
<svg version="1.0" xmlns="http://www.w3.org/2000/svg"
 width="500.000000pt" height="500.000000pt" viewBox="0 0 500.000000 500.000000"
 preserveAspectRatio="xMidYMid meet">

<g transform="translate(0.000000,500.000000) scale(0.100000,-0.100000)"
fill="#000000" stroke="none">
<path d="M2785 3259 c-295 -30 -645 -124 -891 -238 l-91 -42 -37 24 c-33 23
-112 47 -154 47 -39 0 -97 -24 -124 -50 -41 -42 -40 -106 3 -155 18 -20 30
-37 28 -38 -91 -60 -275 -241 -312 -305 -25 -45 -15 -40 16 7 57 86 274 291
308 291 16 0 123 -85 153 -120 53 -64 22 -127 -58 -118 -53 6 -86 29 -122 86
-15 23 -30 42 -34 42 -25 0 -27 -101 -2 -122 81 -72 213 -74 289 -5 28 26 36
42 40 80 7 60 -22 108 -107 174 -33 25 -57 49 -55 53 3 5 26 20 52 35 42 25
47 26 58 11 19 -25 35 -19 42 15 5 28 16 36 97 74 173 81 350 140 568 189 178
40 314 57 523 65 l190 8 -150 0 c-82 0 -186 -3 -230 -8z m-1134 -259 c19 -6
46 -21 58 -34 l22 -24 -51 -31 c-27 -17 -56 -31 -63 -31 -7 0 -26 13 -41 29
-33 35 -32 70 4 88 30 15 27 15 71 3z"/>
<path d="M3193 3253 c15 -2 37 -2 50 0 12 2 0 4 -28 4 -27 0 -38 -2 -22 -4z"/>
<path d="M3283 3243 c9 -2 23 -2 30 0 6 3 -1 5 -18 5 -16 0 -22 -2 -12 -5z"/>
<path d="M3348 3233 c6 -2 18 -2 25 0 6 3 1 5 -13 5 -14 0 -19 -2 -12 -5z"/>
<path d="M3398 3223 c7 -3 16 -2 19 1 4 3 -2 6 -13 5 -11 0 -14 -3 -6 -6z"/>
<path d="M3438 3213 c7 -3 16 -2 19 1 4 3 -2 6 -13 5 -11 0 -14 -3 -6 -6z"/>
<path d="M3515 3190 c27 -12 43 -12 25 0 -8 5 -22 9 -30 9 -10 0 -8 -3 5 -9z"/>
<path d="M3767 3165 c-9 -56 -31 -83 -80 -96 l-42 -12 43 -9 c49 -11 68 -34
81 -99 l9 -44 1 43 c1 56 43 102 93 103 27 0 30 2 13 9 -11 5 -32 11 -47 14
-32 7 -50 35 -58 91 l-6 40 -7 -40z"/>
<path d="M3611 3156 c10 -9 69 -36 69 -32 0 6 -55 36 -66 36 -4 0 -5 -2 -3 -4z"/>
<path d="M3690 3116 c0 -3 9 -10 20 -16 11 -6 20 -8 20 -6 0 3 -9 10 -20 16
-11 6 -20 8 -20 6z"/>
<path d="M2190 2780 l0 -260 50 0 50 0 0 151 0 151 39 39 c45 46 77 50 91 13
6 -14 10 -99 10 -190 l0 -164 50 0 50 0 0 175 c0 206 -8 236 -64 255 -45 15
-93 1 -142 -42 l-34 -30 0 81 0 81 -50 0 -50 0 0 -260z"/>
<path d="M3380 2780 l0 -260 50 0 50 0 0 260 0 260 -50 0 -50 0 0 -260z"/>
<path d="M3825 3000 c10 -11 20 -20 23 -20 3 0 -3 9 -13 20 -10 11 -20 20 -23
20 -3 0 3 -9 13 -20z"/>
<path d="M1945 2946 c-93 -42 -136 -159 -105 -286 33 -138 181 -194 277 -106
32 29 35 35 26 61 -13 41 -27 41 -46 1 -32 -67 -93 -84 -128 -36 -42 56 -49
221 -13 297 32 66 107 61 121 -7 7 -37 35 -40 51 -6 30 65 -95 121 -183 82z"/>
<path d="M2675 2946 c-73 -32 -111 -124 -103 -246 7 -90 32 -137 89 -168 58
-31 143 -26 193 12 54 41 71 87 71 191 0 77 -4 96 -25 135 -42 76 -145 111
-225 76z m114 -47 c44 -47 54 -235 17 -307 -32 -62 -105 -47 -125 25 -14 50
-14 173 0 229 18 69 69 95 108 53z"/>
<path d="M3095 2953 c-68 -19 -113 -90 -122 -192 -14 -172 73 -270 219 -246
56 10 112 64 128 125 16 60 9 176 -14 223 -28 56 -74 88 -138 92 -29 2 -62 1
-73 -2z m94 -52 c28 -28 41 -84 41 -176 -1 -124 -39 -189 -100 -170 -30 10
-50 56 -56 137 -14 164 48 276 115 209z"/>
<path d="M3880 2915 c0 -5 5 -17 10 -25 5 -8 10 -10 10 -5 0 6 -5 17 -10 25
-5 8 -10 11 -10 5z"/>
<path d="M3901 2854 c0 -11 3 -14 6 -6 3 7 2 16 -1 19 -3 4 -6 -2 -5 -13z"/>
<path d="M3913 2770 c0 -30 2 -43 4 -27 2 15 2 39 0 55 -2 15 -4 2 -4 -28z"/>
<path d="M3901 2684 c0 -11 3 -14 6 -6 3 7 2 16 -1 19 -3 4 -6 -2 -5 -13z"/>
<path d="M3857 2565 c-15 -30 -25 -55 -22 -55 7 0 57 101 53 106 -2 2 -16 -21
-31 -51z"/>
<path d="M3770 2428 c-19 -24 -26 -37 -17 -29 19 15 61 71 54 71 -2 0 -19 -19
-37 -42z"/>
<path d="M1165 2429 c-9 -17 -15 -33 -13 -35 3 -2 12 12 21 31 21 43 13 47 -8
4z"/>
<path d="M2050 2440 c-24 -24 -25 -38 -4 -68 36 -51 122 -5 93 50 -23 43 -57
50 -89 18z"/>
<path d="M1700 2140 l0 -260 140 0 140 0 6 28 c3 15 7 32 9 39 7 23 -15 24
-44 4 -18 -13 -53 -24 -90 -27 l-61 -7 0 242 0 241 -50 0 -50 0 0 -260z"/>
<path d="M2570 2140 l0 -260 50 0 50 0 0 114 c0 89 3 116 15 126 13 11 19 3
45 -53 16 -36 37 -93 46 -126 l17 -61 51 -1 51 0 -55 -20 c-129 -47 -424 -110
-598 -128 -54 -6 -64 -9 -33 -10 113 -3 414 57 623 125 135 44 139 45 197 33
51 -11 65 -10 105 5 51 19 86 57 86 91 0 12 10 30 23 38 20 14 20 15 2 11 -15
-4 -25 4 -40 33 -14 26 -47 56 -105 96 -100 67 -115 90 -81 118 36 29 98 4
129 -52 23 -39 49 -38 57 3 6 27 3 36 -19 54 -28 25 -84 44 -129 44 -63 0
-137 -56 -137 -104 0 -37 38 -84 97 -123 68 -44 123 -92 123 -109 0 -6 -23
-22 -52 -34 -60 -26 -73 -22 -103 33 -26 48 -51 48 -60 1 -5 -29 -2 -41 16
-60 l22 -23 -27 -11 c-15 -5 -30 -10 -34 -10 -4 0 -16 30 -26 67 -11 36 -41
108 -67 159 -47 92 -47 92 -27 111 11 10 34 35 50 56 l30 37 -35 0 c-28 0 -36
-5 -41 -23 -3 -13 -30 -50 -60 -83 l-55 -59 -1 128 0 127 -50 0 -50 0 0 -260z
m570 -186 c0 -25 -24 -44 -55 -44 -45 0 -44 11 3 32 41 18 52 21 52 12z"/>
<path d="M3720 2371 c0 -9 -72 -75 -185 -169 l-40 -34 45 31 c61 42 208 180
193 181 -7 0 -13 -4 -13 -9z"/>
<path d="M1121 2314 c0 -11 3 -14 6 -6 3 7 2 16 -1 19 -3 4 -6 -2 -5 -13z"/>
<path d="M2380 2309 c-14 -6 -40 -24 -57 -42 l-33 -31 0 37 0 37 -50 0 -50 0
0 -215 0 -215 50 0 50 0 0 151 0 151 40 40 c27 28 46 39 62 36 23 -3 23 -4 26
-190 l2 -188 55 0 55 0 0 175 c0 187 -9 233 -48 254 -25 13 -68 13 -102 0z"/>
<path d="M2040 2095 l0 -215 50 0 50 0 0 215 0 215 -50 0 -50 0 0 -215z"/>
<path d="M1112 2260 c0 -19 2 -27 5 -17 2 9 2 25 0 35 -3 9 -5 1 -5 -18z"/>
<path d="M1112 2165 c0 -16 2 -22 5 -12 2 9 2 23 0 30 -3 6 -5 -1 -5 -18z"/>
<path d="M3390 2109 c-123 -76 -134 -84 -81 -58 50 24 181 106 181 114 0 7 8
11 -100 -56z"/>
<path d="M1125 2105 c3 -16 19 -51 35 -78 l29 -47 -22 -14 c-12 -8 -38 -18
-57 -22 l-35 -8 44 -8 c56 -10 69 -22 86 -84 12 -44 13 -46 14 -17 1 36 20 83
33 83 5 0 24 -11 41 -24 33 -25 151 -86 164 -86 4 0 -29 20 -74 44 -93 49
-115 64 -107 77 3 5 20 9 37 9 24 0 28 3 17 10 -8 5 -25 10 -36 10 -38 0 -64
31 -73 85 l-7 50 -8 -42 c-4 -24 -11 -43 -14 -43 -10 0 -33 38 -54 90 -13 32
-17 36 -13 15z"/>
<path d="M1545 1770 c11 -5 27 -9 35 -9 9 0 8 4 -5 9 -11 5 -27 9 -35 9 -9 0
-8 -4 5 -9z"/>
<path d="M1608 1753 c6 -2 18 -2 25 0 6 3 1 5 -13 5 -14 0 -19 -2 -12 -5z"/>
<path d="M1658 1743 c6 -2 18 -2 25 0 6 3 1 5 -13 5 -14 0 -19 -2 -12 -5z"/>
<path d="M1713 1733 c9 -2 23 -2 30 0 6 3 -1 5 -18 5 -16 0 -22 -2 -12 -5z"/>
<path d="M1783 1723 c15 -2 39 -2 55 0 15 2 2 4 -28 4 -30 0 -43 -2 -27 -4z"/>
<path d="M1958 1713 c34 -2 88 -2 120 0 31 2 3 3 -63 3 -66 0 -92 -1 -57 -3z"/>
</g>
</svg>
