<svg xmlns="http://www.w3.org/2000/svg" xmlns:xlink="http://www.w3.org/1999/xlink" viewBox="0 0 80.79161538461538 95.481" height="95.481" width="80.79161538461538" data-background-color="#000000" preserveAspectRatio="xMidYMid meet" id="tight-bounds"><g><svg viewBox="0 0 80.79161538461538 95.481" height="95.481" width="80.79161538461538"><g><svg viewBox="0 0 80.79161538461538 95.481" height="95.481" width="80.79161538461538"><g id="textblocktransform"><svg viewBox="0 0 80.79161538461538 95.481" height="95.481" width="80.79161538461538" id="textblock"><g><svg viewBox="0 0 80.79161538461538 95.481" height="95.481" width="80.79161538461538"><g><svg viewBox="0 0 80.79161538461538 95.481" height="95.481" width="80.79161538461538"><g><svg xmlns="http://www.w3.org/2000/svg" viewBox="5 3 22 26" x="0" y="0" height="95.481" width="80.79161538461538" class="icon-icon-0" data-fill-palette-color="accent" id="icon-0"><g fill="#bf2051" data-fill-palette-color="accent"><path d="M11 12V6a1.001 1.001 0 0 1 1-1h8a1.001 1.001 0 0 1 1 1v4h2V6a3.003 3.003 0 0 0-3-3H12A3.003 3.003 0 0 0 9 6v6H5V29H27V12Zm6 11H15V18h2Z" fill="#bf2051" data-fill-palette-color="accent"/></g></svg></g></svg></g></svg></g></svg></g></svg></g><g/></svg></g><defs/></svg>