<?xml version="1.0" standalone="no"?>
<!DOCTYPE svg PUBLIC "-//W3C//DTD SVG 20010904//EN"
 "http://www.w3.org/TR/2001/REC-SVG-20010904/DTD/svg10.dtd">
<svg version="1.0" xmlns="http://www.w3.org/2000/svg"
 width="256.000000pt" height="256.000000pt" viewBox="0 0 256.000000 256.000000"
 preserveAspectRatio="xMidYMid meet">

<g transform="translate(0.000000,256.000000) scale(0.100000,-0.100000)"
fill="#000000" stroke="none">
<path d="M1025 2269 c-146 -17 -229 -52 -257 -111 -9 -18 -21 -61 -27 -95 -7
-35 -62 -253 -124 -485 l-113 -421 -63 -13 c-241 -49 -365 -154 -321 -269 30
-78 202 -211 401 -308 460 -225 1349 -351 1731 -246 138 38 198 92 198 177 0
110 -96 206 -318 317 l-108 54 -22 533 c-13 293 -25 550 -29 572 -11 77 -88
137 -263 206 -222 86 -452 116 -685 89z m172 -1274 c183 -33 183 -33 176 -87
-13 -112 -42 -271 -49 -278 -11 -11 -176 13 -305 43 l-94 22 -3 40 c-4 44 13
175 31 243 11 42 11 42 58 42 26 0 110 -11 186 -25z"/>
<path d="M1056 891 c-2 -3 -7 -36 -11 -72 l-7 -67 28 -6 c106 -21 155 -28 159
-24 3 2 7 36 11 75 l7 72 -34 5 c-95 16 -150 22 -153 17z"/>
</g>
</svg>
