<?xml version="1.0" standalone="no"?>
<!DOCTYPE svg PUBLIC "-//W3C//DTD SVG 20010904//EN"
 "http://www.w3.org/TR/2001/REC-SVG-20010904/DTD/svg10.dtd">
<svg version="1.0" xmlns="http://www.w3.org/2000/svg"
 width="2000.000000pt" height="1166.000000pt" viewBox="0 0 2000.000000 1166.000000"
 preserveAspectRatio="xMidYMid meet">

<g transform="translate(0.000000,1166.000000) scale(0.100000,-0.100000)"
fill="#000000" stroke="none">
<path d="M8945 11494 c-108 -22 -138 -30 -190 -51 -158 -66 -294 -194 -369
-346 -78 -160 -76 -136 -76 -1006 l0 -771 -485 0 -485 0 0 -2055 0 -2055 2660
0 2660 0 0 2055 0 2055 -1935 0 -1935 0 0 746 c0 538 3 758 12 785 15 51 69
114 122 142 l41 22 1035 0 1035 0 41 -22 c53 -28 107 -91 122 -142 9 -27 12
-188 12 -540 l0 -501 240 0 240 0 0 526 c0 598 -1 606 -78 764 -39 80 -60 109
-132 180 -124 123 -239 183 -400 209 -61 10 -2086 14 -2135 5z m1295 -4229 l0
-605 -240 0 -240 0 0 605 0 605 240 0 240 0 0 -605z"/>
<path d="M20 5870 l0 -120 3455 0 3455 0 0 120 0 120 -3455 0 -3455 0 0 -120z"/>
<path d="M13070 5870 l0 -120 3455 0 3455 0 0 120 0 120 -3455 0 -3455 0 0
-120z"/>
<path d="M20 5380 l0 -120 3455 0 3455 0 0 120 0 120 -3455 0 -3455 0 0 -120z"/>
<path d="M13070 5380 l0 -120 3455 0 3455 0 0 120 0 120 -3455 0 -3455 0 0
-120z"/>
</g>
</svg>
