<svg version="1.1" xmlns="http://www.w3.org/2000/svg" xmlns:xlink="http://www.w3.org/1999/xlink" width="106.46941" height="97.37903" viewBox="0,0,106.46941,97.37903"><g transform="translate(-183.56114,-133.14143)"><g data-paper-data="{&quot;isPaintingLayer&quot;:true}" fill-rule="nonzero" stroke-linejoin="miter" stroke-miterlimit="10" stroke-dasharray="" stroke-dashoffset="0" style="mix-blend-mode: normal"><path d="M231.28273,172.25368c0.05958,2.39516 -1.86879,4.386 -4.30714,4.44665c-2.43835,0.06066 -4.46333,-1.83183 -4.52291,-4.22699c-0.05958,-2.39516 1.86879,-4.38599 4.30714,-4.44665c2.43835,-0.06066 4.46333,1.83183 4.52291,4.22699z" fill="#712929" stroke="#000000" stroke-width="2" stroke-linecap="butt"/><path d="M225.66235,178.26205l-0.22921,-9.21396l26.49014,-0.65899l0.22921,9.21396z" fill="#712929" stroke="#000000" stroke-width="3.5" stroke-linecap="butt"/><g><path d="M185.72472,230.52046l-2.16358,-94.98448l104.30583,-2.39455l2.16358,94.98448z" fill="none" stroke="none" stroke-width="0" stroke-linecap="butt"/><path d="M280.47979,185.4721l-14.61913,-1.04006l-13.51555,4.1007l-0.5119,7.19536l-11.84887,1.32656l-1.62979,-8.0709l-13.15721,-0.93605l0.89883,8.01889l-6.73219,1.69058l0.08809,-11.56457l-29.85254,6.55431l0.75356,-20.91853l29.50852,8.60794l7.66791,-4.51672l24.90372,1.04857l13.78579,2.42711l16.02987,1.86361z" data-paper-data="{&quot;index&quot;:null}" fill="#712929" stroke="#000000" stroke-width="3.5" stroke-linecap="round"/><path d="M274.72022,173.4915l-0.46071,6.47583" data-paper-data="{&quot;index&quot;:null}" fill="none" stroke="#000000" stroke-width="3.5" stroke-linecap="round"/><path d="M220.24849,195.65058l-1.11788,-15.26626l0.95002,7.29937" data-paper-data="{&quot;index&quot;:null}" fill="none" stroke="#000000" stroke-width="3.5" stroke-linecap="round"/><path d="M253.11294,177.7397l0.11668,8.68643" data-paper-data="{&quot;index&quot;:null}" fill="none" stroke="#000000" stroke-width="3.5" stroke-linecap="round"/><path d="M263.71896,183.5565l-0.37263,-5.08875" data-paper-data="{&quot;index&quot;:null}" fill="none" stroke="#000000" stroke-width="3.5" stroke-linecap="round"/></g><path d="M255.09487,172.34381c0.06066,2.43835 -2.21061,4.47275 -5.07302,4.54396c-2.86241,0.07121 -5.23203,-1.84774 -5.29269,-4.28609c-0.06066,-2.43835 2.21062,-4.47275 5.07303,-4.54396c2.86241,-0.07121 5.23202,1.84774 5.29268,4.28609z" fill="#00ff2f" stroke="#000000" stroke-width="3.5" stroke-linecap="butt"/></g></g></svg>