<svg version="1.1" xmlns="http://www.w3.org/2000/svg" xmlns:xlink="http://www.w3.org/1999/xlink" width="48.64386" height="66.65435" viewBox="0,0,48.64386,66.65435"><g transform="translate(-215.67807,-146.42282)"><g data-paper-data="{&quot;isPaintingLayer&quot;:true}" fill-rule="nonzero" stroke-linejoin="miter" stroke-miterlimit="10" stroke-dasharray="" stroke-dashoffset="0" style="mix-blend-mode: normal"><path d="M240,205.40917c13.43263,0 24.32193,1.71654 24.32193,3.834c0,2.11746 -10.8893,3.834 -24.32193,3.834c-13.43263,0 -24.32193,-1.71654 -24.32193,-3.834c0,-2.11746 10.8893,-3.834 24.32193,-3.834z" data-paper-data="{&quot;index&quot;:null}" fill="#8c8c8c" stroke="none" stroke-width="0" stroke-linecap="butt"/><path d="M223.45537,209.19127v-52.76623h32.81399v52.76623z" fill="#ffddb2" stroke="#000000" stroke-width="1" stroke-linecap="butt"/><path d="M223.45537,209.08804v-27.53738h32.81399v27.53738z" fill="#ce0000" stroke="#000000" stroke-width="1" stroke-linecap="butt"/><path d="M248.02464,171.82188v-4.28726h4.45215v4.28726z" fill="#000000" stroke="#000000" stroke-width="1" stroke-linecap="butt"/><path d="M230.95544,171.74207v-4.28726h4.45215v4.28726z" fill="#000000" stroke="#000000" stroke-width="1" stroke-linecap="butt"/><path d="M223.12558,157.47606v-3.62767h38.42041v3.62767z" fill="#6c6cd0" stroke="#000000" stroke-width="1" stroke-linecap="butt"/><path d="M223.12558,154.34308v-7.42025h32.814v7.42025z" fill="#6c6cd0" stroke="#000000" stroke-width="1" stroke-linecap="butt"/><path d="M223.50367,156.17164v-7.42025h31.98953v7.42025z" fill="#6c6cd0" stroke="none" stroke-width="0" stroke-linecap="butt"/><path d="M248.84386,156.82175v-2.80321h12.39641v2.80321z" fill="#6c6cd0" stroke="none" stroke-width="0" stroke-linecap="butt"/><path d="M234.45317,168.44916l0.66688,-0.66688l1.067,-1.067" fill="none" stroke="#000000" stroke-width="1.5" stroke-linecap="round"/><path d="M233.26267,166.39691l-0.14449,1.33376" fill="none" stroke="#000000" stroke-width="1.5" stroke-linecap="round"/><path d="M230.42628,166.83584l0.93363,0.66688" fill="none" stroke="#000000" stroke-width="1.5" stroke-linecap="round"/><path d="M251.05203,169.14619l0.93363,-1.33376l1.06701,-1.067" fill="none" stroke="#000000" stroke-width="1.5" stroke-linecap="round"/><path d="M250.09693,169.14619v-1.33376l0.13338,-1.33376" fill="none" stroke="#000000" stroke-width="1.5" stroke-linecap="round"/><path d="M248.47692,167.96778l-0.90345,-1.02467" fill="none" stroke="#000000" stroke-width="1.5" stroke-linecap="round"/><path d="M223.35737,186.08942l-7.06891,-6.53541l6.66878,-22.80724z" fill="#cfc048" stroke="#000000" stroke-width="0.5" stroke-linecap="round"/></g></g></svg>