<svg version="1.1" xmlns="http://www.w3.org/2000/svg" xmlns:xlink="http://www.w3.org/1999/xlink" width="25.26252" height="19.33091" viewBox="0,0,25.26252,19.33091"><g transform="translate(-227.36805,-170.28559)"><g data-paper-data="{&quot;isPaintingLayer&quot;:true}" fill-rule="nonzero" stroke-linejoin="miter" stroke-miterlimit="10" stroke-dasharray="" stroke-dashoffset="0" style="mix-blend-mode: normal"><path d="M241.74233,185.61461c-2.30254,-0.03226 -4.1411,-2.05832 -4.10653,-4.52534c0.03457,-2.46701 1.92917,-4.44076 4.23171,-4.4085c2.30254,0.03226 4.1411,2.05832 4.10653,4.52534c-0.03457,2.46701 -1.92917,4.44076 -4.23171,4.4085z" fill="#ffffff" stroke="#000000" stroke-width="0.5" stroke-linecap="butt"/><path d="M235.89752,170.72455l16.48103,9.69873l-0.05143,3.67046l-16.3031,5.18171z" fill="#ff0000" stroke="#000000" stroke-width="0.5" stroke-linecap="round"/><path d="M236.11876,182.51408l-8.49731,-0.31229l0.06226,-4.44319l8.30683,0.1164z" fill="#ff0000" stroke="#000000" stroke-width="0.5" stroke-linecap="round"/><path d="M243.53818,177.01465l2.66936,2.54926l-3.85552,-0.63368z" fill="#ffffff" stroke="#000000" stroke-width="0.5" stroke-linecap="round"/><path d="M252.13122,184.28421l-8.49731,-0.31229l-1.50756,-2.72621l10.217,1.68893z" fill="#ffffff" stroke="#000000" stroke-width="0.5" stroke-linecap="round"/><path d="M245.40504,181.6781l1.3225,2.14395" fill="none" stroke="#000000" stroke-width="0.5" stroke-linecap="round"/><path d="M249.82116,183.67218l-0.94696,-1.36581" fill="none" stroke="#000000" stroke-width="0.5" stroke-linecap="round"/><g stroke-linecap="butt"><path d="M244.63179,179.3168c-0.32447,-0.00455 -0.58422,-0.24203 -0.58018,-0.53046c0.00404,-0.28841 0.27035,-0.51854 0.59481,-0.514c0.32447,0.00455 0.58422,0.24203 0.58018,0.53046c-0.00404,0.28841 -0.27035,0.51854 -0.59481,0.514z" fill="#000000" stroke="#000000" stroke-width="0.5"/><path d="M242.39646,175.75977l4.4389,0.0622l-0.08233,5.87502l-4.4389,-0.0622z" fill="none" stroke="none" stroke-width="0"/></g></g></g></svg>