<svg version="1.1" xmlns="http://www.w3.org/2000/svg" xmlns:xlink="http://www.w3.org/1999/xlink" width="34.3945" height="39.94518" viewBox="0,0,34.3945,39.94518"><g transform="translate(-223.30954,-160.03568)"><g data-paper-data="{&quot;isPaintingLayer&quot;:true}" fill-rule="nonzero" stroke-linejoin="miter" stroke-miterlimit="10" stroke-dasharray="" stroke-dashoffset="0" style="mix-blend-mode: normal"><path d="M246.04315,194.16234c0.0001,0.09447 -0.0129,0.18589 -0.03728,0.27256c0.07151,0.29328 0.12553,0.58229 0.1453,0.84845c0.07778,0.14207 0.12208,0.30509 0.12227,0.47846c0.00004,0.03548 -0.00178,0.07052 -0.00535,0.10506c0.08524,0.53472 -0.21716,0.82539 -0.46337,0.97012c-0.07628,0.47604 -0.48862,0.83999 -0.98626,0.84054c-0.13931,0.00015 -0.27199,-0.02818 -0.39254,-0.07951l-0.37163,-0.14817l-0.69743,0.00076c-0.33162,0.24979 -0.64631,0.5736 -0.95191,0.39224c-0.78229,-0.46427 -0.88592,-1.53267 -0.87699,-2.46106c-0.07436,-0.00334 -0.12408,-0.00748 -0.14121,-0.01257c-2.41249,-0.71634 -2.27922,-2.57011 -1.27052,-3.9286c-0.03302,-0.44775 0.07777,-0.79867 0.28005,-1.06406c-0.31141,-1.05867 0.15438,-1.5452 0.93919,-1.75243c0.23592,-0.87741 1.15463,-0.69471 1.15463,-0.69471c0.08,0.01628 0.16016,0.03181 0.24046,0.04659c-0.01425,-0.08039 -0.02962,-0.16082 -0.04618,-0.24129c0,0 -0.19719,-0.98038 0.78318,-1.17755c0.25964,-0.05222 0.46436,-0.02185 0.62502,0.05104c0.18127,-0.18515 0.43391,-0.30014 0.71348,-0.30045c0.49155,-0.00054 0.90067,0.35368 0.98512,0.82098l0.22612,1.12424l-0.32807,0.06599c0.02841,0.13298 0.05249,0.26495 0.07263,0.39612c0.25143,0.12407 0.50431,0.37379 0.50486,0.87639c0.0001,0.08939 -0.0078,0.1708 -0.02228,0.24494c0.01484,0.06834 0.0227,0.13932 0.02278,0.21211c0.00031,0.28626 -0.1197,0.54457 -0.31228,0.72707c0.00822,0.05582 0.01526,0.11194 0.02111,0.16824c0.87546,0.98306 0.73756,2.14454 0.00354,2.86793c0.04098,0.10907 0.06345,0.2272 0.06358,0.35057zM241.49486,193.33176c0.07278,0.08552 0.25788,0.12865 0.49422,0.14633l0.10187,-0.21573c0,0 0.04094,-0.08208 0.12288,-0.18415c-0.04441,-0.02625 -0.07957,-0.04661 -0.10364,-0.05986c-0.16722,-0.09208 -0.36638,-0.15663 -0.57202,-0.21515c-0.13685,0.18922 -0.17763,0.37075 -0.04332,0.52856z" data-paper-data="{&quot;index&quot;:null}" fill="#000000" stroke="none" stroke-width="0.5" stroke-linecap="butt"/><path d="M256.70295,198.4928l-15.31157,0.0167l-0.01246,-11.42654l15.31157,-0.0167z" data-paper-data="{&quot;index&quot;:null}" fill="#000000" stroke="#7c8888" stroke-width="2" stroke-linecap="butt"/><path d="M243.90573,198.96382l-14.62597,0.01595l-0.03563,-32.6799l14.62597,-0.01595z" data-paper-data="{&quot;index&quot;:null}" fill="#000000" stroke="#7c8888" stroke-width="2" stroke-linecap="butt"/><path d="M254.41689,197.80969l-15.76862,0.01719l-0.01047,-9.59829l15.76862,-0.01719z" data-paper-data="{&quot;index&quot;:null}" fill="#000000" stroke="none" stroke-width="0" stroke-linecap="butt"/><path d="M227.65088,172.2434l-4.34134,0.69032" data-paper-data="{&quot;index&quot;:null}" fill="none" stroke="none" stroke-width="0" stroke-linecap="round"/><path d="M224.90776,171.56079l3.42796,-0.00374" data-paper-data="{&quot;index&quot;:null}" fill="none" stroke="#7c8888" stroke-width="2" stroke-linecap="round"/><path d="M233.59641,175.66488l0.2522,21.71018" data-paper-data="{&quot;index&quot;:null}" fill="none" stroke="#00ff2f" stroke-width="2" stroke-linecap="round"/><path d="M245.0394,190.73545l6.17058,0.2218" data-paper-data="{&quot;index&quot;:null}" fill="none" stroke="#7c8888" stroke-width="2" stroke-linecap="round"/><path d="M243.90098,194.62173l5.94229,0.45058" data-paper-data="{&quot;index&quot;:null}" fill="none" stroke="#7c8888" stroke-width="2" stroke-linecap="round"/><path d="M229.01771,168.24262c-0.00434,-3.97574 3.36861,-7.2024 7.53367,-7.20694c4.16507,-0.00454 7.54503,3.21475 7.54936,7.19049c0.00434,3.97574 -3.36861,7.2024 -7.53367,7.20694c-4.16507,0.00454 -7.54503,-3.21475 -7.54936,-7.19049z" data-paper-data="{&quot;index&quot;:null}" fill="#000000" stroke="#7c8888" stroke-width="2" stroke-linecap="butt"/><path d="M244.34035,178.39554l3.20067,1.13916l1.83074,2.28332l0.46105,3.65599" data-paper-data="{&quot;index&quot;:null}" fill="none" stroke="#7c8888" stroke-width="2" stroke-linecap="round"/></g></g></svg>