<svg version="1.1" xmlns="http://www.w3.org/2000/svg" xmlns:xlink="http://www.w3.org/1999/xlink" width="44.39896" height="34.36552" viewBox="0,0,44.39896,34.36552"><g transform="translate(-241.85017,-162.40311)"><g data-paper-data="{&quot;isPaintingLayer&quot;:true}" fill-rule="nonzero" stroke-linejoin="miter" stroke-miterlimit="10" stroke-dasharray="" stroke-dashoffset="0" style="mix-blend-mode: normal"><path d="M248.41879,185.11355c-0.105,0 -0.2066,-0.0131 -0.3029,-0.03758c-0.32605,0.07119 -0.64735,0.1249 -0.9432,0.14437c-0.15799,0.07763 -0.33924,0.12175 -0.53193,0.12175c-0.03943,0 -0.07838,-0.00186 -0.11676,-0.00546c-0.59442,0.08466 -0.91712,-0.21806 -1.07768,-0.46443c-0.52901,-0.0768 -0.93303,-0.48954 -0.93303,-0.98718c0,-0.13931 0.03166,-0.27196 0.08885,-0.39245l0.16514,-0.37147v-0.69743c-0.27723,-0.33189 -0.63674,-0.64694 -0.4348,-0.95234c0.51696,-0.78178 1.70457,-0.88425 2.73642,-0.87431c0.0038,-0.07436 0.00847,-0.12407 0.01414,-0.1412c0.7991,-2.41171 2.85933,-2.27642 4.36801,-1.26624c0.4977,-0.03253 0.88759,0.07864 1.18231,0.28121c1.17704,-0.31026 1.71724,0.15606 1.94661,0.9411c0.97492,0.23688 0.77074,1.15539 0.77074,1.15539c-0.01819,0.07998 -0.03555,0.16013 -0.05208,0.24041c0.08937,-0.01416 0.17878,-0.02944 0.26824,-0.04592c0,0 1.08989,-0.19612 1.30785,0.78446c0.05773,0.2597 0.02372,0.46438 -0.05748,0.62496c0.20556,0.18147 0.33307,0.43424 0.33307,0.71381c0,0.49155 -0.39419,0.90028 -0.91367,0.98422l-1.24982,0.22489l-0.07295,-0.32814c-0.14783,0.02826 -0.29455,0.0522 -0.44036,0.0722c-0.1382,0.25129 -0.41606,0.5039 -0.97468,0.5039c-0.09936,0 -0.18983,-0.00799 -0.27222,-0.02255c-0.07598,0.01477 -0.15487,0.02255 -0.23578,0.02255c-0.31816,0 -0.60512,-0.12029 -0.80773,-0.31307c-0.06205,0.00816 -0.12443,0.01514 -0.18701,0.02093c-1.09368,0.87439 -2.38446,0.73522 -3.18759,0.00041c-0.12127,0.04086 -0.2526,0.0632 -0.38972,0.0632zM249.34745,180.56618c-0.09514,0.07269 -0.1433,0.25774 -0.16324,0.49406l0.23965,0.10211c0,0 0.09118,0.04103 0.20453,0.12308c0.02923,-0.04438 0.05191,-0.07952 0.06665,-0.10357c0.10254,-0.16712 0.17453,-0.36621 0.23982,-0.57179c-0.21015,-0.13706 -0.41186,-0.17803 -0.58742,-0.0439z" data-paper-data="{&quot;index&quot;:null}" fill="#000000" stroke="none" stroke-width="0.5" stroke-linecap="butt"/><path d="M243.59275,195.76863v-15.31158h12.70012v15.31158z" data-paper-data="{&quot;index&quot;:null}" fill="#000000" stroke="#7c8888" stroke-width="2" stroke-linecap="butt"/><path d="M243.08474,182.9709v-14.62598h36.32233v14.62598z" data-paper-data="{&quot;index&quot;:null}" fill="#000000" stroke="#7c8888" stroke-width="2" stroke-linecap="butt"/><path d="M259.95651,170.0429l-1.80022,2.90724l-13.29352,0.1259l-0.18879,-2.90813z" data-paper-data="{&quot;index&quot;:null}" fill="#00f52b" stroke="#00f52b" stroke-width="2" stroke-linecap="round"/><path d="M277.24806,168.1164c4.41886,0 8.00106,3.37646 8.00106,7.54152c0,4.16507 -3.5822,7.54152 -8.00106,7.54152c-4.41886,0 -8.00107,-3.37646 -8.00107,-7.54152c0,-4.16507 3.58221,-7.54152 8.00107,-7.54152z" data-paper-data="{&quot;index&quot;:null}" fill="#000000" stroke="#7c8888" stroke-width="2" stroke-linecap="butt"/><path d="M244.35477,193.48332v-15.76863h10.6681v15.76863z" data-paper-data="{&quot;index&quot;:null}" fill="#000000" stroke="none" stroke-width="0" stroke-linecap="butt"/><path d="M272.04102,162.40311l0.762,4.34209" data-paper-data="{&quot;index&quot;:null}" fill="none" stroke="none" stroke-width="0" stroke-linecap="round"/><path d="M273.56504,167.43079v-3.42796" data-paper-data="{&quot;index&quot;:null}" fill="none" stroke="#7c8888" stroke-width="2" stroke-linecap="round"/><path d="M251.97484,190.28387l0.254,-6.17033" data-paper-data="{&quot;index&quot;:null}" fill="none" stroke="#7c8888" stroke-width="2" stroke-linecap="round"/><path d="M247.9108,182.9709l-0.508,5.9418" data-paper-data="{&quot;index&quot;:null}" fill="none" stroke="#7c8888" stroke-width="2" stroke-linecap="round"/><path d="M265.94496,183.42795l-1.27,3.19943l-2.54003,1.82825l-4.06403,0.45706" data-paper-data="{&quot;index&quot;:null}" fill="none" stroke="#7c8888" stroke-width="2" stroke-linecap="round"/><path d="M243.00679,176.1679l-0.13894,-8.125l10.00312,0.25l-0.13893,4.75" data-paper-data="{&quot;index&quot;:null}" fill="none" stroke="#7c8888" stroke-width="2" stroke-linecap="round"/><path d="M262.04049,169.2929l-3.8901,4.875h-14.17108" data-paper-data="{&quot;index&quot;:null}" fill="none" stroke="#7c8888" stroke-width="2" stroke-linecap="round"/><path d="M247.59155,168.1679l0.13893,5.5" data-paper-data="{&quot;index&quot;:null}" fill="none" stroke="#7c8888" stroke-width="2" stroke-linecap="round"/></g></g></svg>