<svg version="1.1" xmlns="http://www.w3.org/2000/svg" xmlns:xlink="http://www.w3.org/1999/xlink" width="38.88691" height="72.70624" viewBox="0,0,38.88691,72.70624"><g transform="translate(-219.37185,-141.11089)"><g data-paper-data="{&quot;isPaintingLayer&quot;:true}" fill-rule="nonzero" stroke-linejoin="miter" stroke-miterlimit="10" stroke-dasharray="" stroke-dashoffset="0" style="mix-blend-mode: normal"><path d="M224.37341,156.27213c-0.01463,-0.99989 0.98527,-1.01452 0.98527,-1.01452l0.76458,-0.00507c1.37299,-0.17112 2.73966,-0.11434 4.10732,-0.30851c0,0 0.99036,-0.13854 1.1289,0.85182c0.13854,0.99036 -0.85182,1.12889 -0.85182,1.12889c-1.37982,0.19047 -2.75318,0.13615 -4.13448,0.31212l-0.98524,0.02053c0,0 -0.99989,0.01463 -1.01452,-0.98527z" fill="#e2d000" stroke="none" stroke-width="0.5" stroke-linecap="butt"/><path d="M225.62902,155.49092c0.10206,0.00568 0.21364,0.02792 0.3353,0.07153c0.94137,0.33739 0.60398,1.27875 0.60398,1.27875c-0.4114,1.10492 -0.40514,1.48067 -1.39057,2.31529c-2.49236,2.11093 -7.15104,-0.75668 -5.43522,-3.94367c0.17614,-0.32716 1.88792,-1.2856 2.31925,-1.44879c0.52043,-0.1969 1.05816,-0.56277 1.60487,-0.45922c0.52727,0.09987 0.84014,0.66793 1.2602,1.0019l0.38045,0.36947c0,0 0.36324,0.35277 0.32175,0.81474zM224.59866,156.41356c-0.39254,-0.01883 -0.68475,-0.30262 -0.68475,-0.30262l-0.38045,-0.36947c-0.30575,-0.55636 -1.6546,-0.11641 -2.04662,0.44981c-0.368,0.53153 0.71214,1.67364 1.21419,1.74655c1.10674,0.16073 1.57125,-0.63459 1.89763,-1.52426z" fill="#e2d000" stroke="none" stroke-width="0.5" stroke-linecap="butt"/><path d="M232.05342,147.15881c-0.86285,0.01262 -1.53532,1.86948 -1.50199,4.14741c0.03333,2.27793 0.75982,4.11433 1.62267,4.1017c0.86285,-0.01262 1.53532,-1.86948 1.50199,-4.14741c-0.03333,-2.27793 -0.75982,-4.11433 -1.62267,-4.1017z" fill="#ff0000" stroke="none" stroke-width="0" stroke-linecap="butt"/><path d="M236.33072,144.72098c2.07085,-0.0303 3.79053,2.74307 3.84102,6.19448c0.05049,3.45141 -1.58733,6.27389 -3.65817,6.30419c-2.07085,0.0303 -3.79053,-2.74307 -3.84102,-6.19448c-0.05049,-3.45141 1.58733,-6.27389 3.65817,-6.30419z" fill="#ff0000" stroke="none" stroke-width="0" stroke-linecap="butt"/><path d="M246.4814,198.05993c0.00009,0.09447 -0.01293,0.18589 -0.03733,0.27255c0.07146,0.2933 0.12543,0.58232 0.14514,0.84848c0.07776,0.14209 0.12202,0.30511 0.12218,0.47848c0.00003,0.03548 -0.00179,0.07052 -0.00536,0.10505c0.08515,0.53473 -0.21732,0.82534 -0.46355,0.97003c-0.07637,0.47603 -0.48878,0.8399 -0.98642,0.84035c-0.13931,0.00012 -0.27198,-0.02823 -0.39252,-0.07959l-0.3716,-0.14824l-0.69743,0.00064c-0.33167,0.24974 -0.64642,0.57348 -0.95199,0.39207c-0.7822,-0.46441 -0.88564,-1.53283 -0.87654,-2.46121c-0.07437,-0.00335 -0.12408,-0.00752 -0.14121,-0.0126c-2.41236,-0.71678 -2.27876,-2.57052 -1.26981,-3.92883c-0.03294,-0.44777 0.07792,-0.79866 0.28024,-1.06401c-0.31122,-1.05873 0.15466,-1.54517 0.93951,-1.75225c0.23608,-0.87737 1.15475,-0.6945 1.15475,-0.6945c0.08,0.0163 0.16016,0.03184 0.24046,0.04663c-0.01423,-0.0804 -0.02958,-0.16082 -0.04613,-0.2413c0,0 -0.19702,-0.98041 0.78339,-1.17741c0.25965,-0.05217 0.46436,-0.02176 0.62501,0.05116c0.1813,-0.18512 0.43397,-0.30007 0.71354,-0.30032c0.49155,-0.00045 0.9006,0.35384 0.98496,0.82116l0.22591,1.12429l-0.32808,0.06593c0.02839,0.13299 0.05244,0.26496 0.07256,0.39613c0.2514,0.12412 0.50423,0.37389 0.50469,0.87649c0.00009,0.08939 -0.00783,0.1708 -0.02232,0.24494c0.01483,0.06835 0.02267,0.13932 0.02274,0.21211c0.00026,0.28626 -0.11979,0.54455 -0.31241,0.72701c0.00822,0.05583 0.01524,0.11195 0.02109,0.16824c0.87529,0.98322 0.73717,2.14467 0.00301,2.86793c0.04096,0.10907 0.06341,0.22722 0.06352,0.35058zM241.93327,197.22853c0.07277,0.08553 0.25786,0.1287 0.49419,0.14642l0.10192,-0.21571c0,0 0.04095,-0.08207 0.12291,-0.18413c-0.04441,-0.02626 -0.07956,-0.04662 -0.10362,-0.05988c-0.16721,-0.0921 -0.36635,-0.1567 -0.57198,-0.21525c-0.13689,0.1892 -0.1777,0.37072 -0.04342,0.52855z" data-paper-data="{&quot;index&quot;:null}" fill="#000000" stroke="none" stroke-width="0.5" stroke-linecap="butt"/><path d="M257.1404,202.39236l-15.31157,0.01388l-0.01036,-11.42655l15.31157,-0.01388z" data-paper-data="{&quot;index&quot;:null}" fill="#ff0000" stroke="#7c8888" stroke-width="2" stroke-linecap="butt"/><path d="M244.34309,202.86102l-14.62597,0.01326l-0.02964,-32.6799l14.62597,-0.01326z" data-paper-data="{&quot;index&quot;:null}" fill="#6518ff" stroke="#7c8888" stroke-width="2" stroke-linecap="butt"/><path d="M229.4607,172.13711c-0.00361,-3.97574 3.36993,-7.20178 7.53499,-7.20556c4.16508,-0.00377 7.54444,3.21614 7.54804,7.19188c0.00361,3.97574 -3.36993,7.20178 -7.53498,7.20556c-4.16508,0.00377 -7.54444,-3.21614 -7.54805,-7.19188z" data-paper-data="{&quot;index&quot;:null}" fill="#000000" stroke="#7c8888" stroke-width="2" stroke-linecap="butt"/><path d="M254.85448,201.70883l-15.76862,0.0143l-0.00871,-9.59829l15.76862,-0.0143z" data-paper-data="{&quot;index&quot;:null}" fill="#ff0000" stroke="none" stroke-width="0" stroke-linecap="butt"/><path d="M228.09315,176.13763l-4.34146,0.68953" data-paper-data="{&quot;index&quot;:null}" fill="none" stroke="none" stroke-width="0" stroke-linecap="round"/><path d="M225.35016,175.45452l3.42796,-0.00311l4.76621,-7.56219" data-paper-data="{&quot;index&quot;:null}" fill="none" stroke="#7c8888" stroke-width="2" stroke-linecap="round"/><path d="M234.28627,201.27043l-0.24822,-21.71022l-3.86536,-2.87072l3.29784,-5.29881" data-paper-data="{&quot;index&quot;:null}" fill="none" stroke="#7c8888" stroke-width="2" stroke-linecap="round"/><path d="M245.47828,194.63287l6.17053,0.22293" data-paper-data="{&quot;index&quot;:null}" fill="none" stroke="#7c8888" stroke-width="2" stroke-linecap="round"/><path d="M244.33915,198.51895l5.94221,0.45167" data-paper-data="{&quot;index&quot;:null}" fill="none" stroke="#7c8888" stroke-width="2" stroke-linecap="round"/><path d="M241.43527,199.61317c0.05439,4.24534 -3.399,7.73168 -7.71337,7.78696c-4.31437,0.05528 -7.85595,-3.34144 -7.91035,-7.58678c-0.05439,-4.24534 3.399,-7.73168 7.71337,-7.78696c4.31437,-0.05528 7.85595,3.34144 7.91035,7.58678z" data-paper-data="{&quot;index&quot;:null}" fill="#ff0000" stroke="#7c8888" stroke-width="2" stroke-linecap="butt"/><path d="M232.41912,208.16689l-1.94058,4.65024" data-paper-data="{&quot;index&quot;:null}" fill="none" stroke="#7c8888" stroke-width="2" stroke-linecap="round"/><path d="M227.50769,205.35458l-3.33309,3.29297" data-paper-data="{&quot;index&quot;:null}" fill="none" stroke="#7c8888" stroke-width="2" stroke-linecap="round"/><path d="M225.3188,200.38221l-4.24485,0.42942" data-paper-data="{&quot;index&quot;:null}" fill="none" stroke="#7c8888" stroke-width="2" stroke-linecap="round"/><path d="M234.94584,203.87257c-0.55223,0.00808 -1.00644,-0.43304 -1.01452,-0.98527c-0.00808,-0.55223 0.43304,-1.00644 0.98527,-1.01452c0.55223,-0.00808 1.00644,0.43304 1.01452,0.98527c0.00808,0.55223 -0.43304,1.00644 -0.98527,1.01452z" fill="#ff1717" stroke="none" stroke-width="0.5" stroke-linecap="butt"/><path d="M236.99995,190.46609c0,0 0.01463,0.99989 -0.98527,1.01452c-0.99989,0.01463 -1.01452,-0.98527 -1.01452,-0.98527c-0.02585,-2.05674 0.17408,-4.07877 0.17229,-6.1057c-0.14033,-0.25523 -0.14421,-0.52042 -0.14421,-0.52042l-0.00549,-0.37496c-0.01268,-0.86674 -0.26072,-1.44823 -0.00229,-1.75533c-0.00769,-0.06076 -0.01573,-0.12155 -0.02413,-0.18236l0.02916,-0.06257l-0.03201,0.00047l-0.01463,-0.99989c-0.00808,-0.55223 0.43304,-1.00644 0.98527,-1.01452c0.55223,-0.00808 1.00644,0.43304 1.01452,0.98527l0.01394,0.95302c0.42708,3.02929 -0.04277,6.00096 0.00735,9.04774z" fill="#ff1717" stroke="none" stroke-width="0.5" stroke-linecap="butt"/><path d="M241.34043,192.6015c-0.23135,-0.08439 -0.45696,-0.18327 -0.67515,-0.29527c-0.02301,0.17867 -0.10786,0.37254 -0.29763,0.56795c-0.69669,0.71737 -1.41406,0.02069 -1.41406,0.02069l-0.63558,-0.66375c-0.12608,0.06019 -0.26687,0.09478 -0.41572,0.09696c-0.42491,0.00622 -0.7918,-0.25352 -0.94206,-0.62519c-0.09905,0.00945 -0.20451,0.01667 -0.31695,0.01854c0,0 -0.99989,0.01463 -1.01452,-0.98527c-0.01463,-0.99989 0.98527,-1.01452 0.98527,-1.01452c0.04484,-0.00058 0.08891,-0.00115 0.13225,-0.00169c-0.10497,-0.19523 -0.13003,-0.37434 -0.13003,-0.37434c-0.37913,-2.71031 -0.66676,-5.51018 -0.37063,-8.24353l-0.0114,-0.25083c0,0 -0.01463,-0.99989 0.98527,-1.01452c0.33275,-0.00487 0.55638,0.10262 0.70668,0.24821c0.16022,-0.1377 0.31803,-0.19953 0.31803,-0.19953c0.3686,-0.14195 0.73719,-0.2839 1.10579,-0.42586l1.06899,-0.15619c0.13921,-0.17009 0.29313,-0.26106 0.29313,-0.26106c0.41792,-0.22103 0.77941,-0.59325 0.98812,-1.01746l0.91145,-0.66169c0,0 0.88779,-0.46025 1.34804,0.42754c0.25339,0.48877 0.09818,0.84794 -0.09251,1.07208c0.15344,0.20844 0.20062,0.4276 0.20062,0.4276l0.13011,1.06187c-0.85672,3.5686 -0.23801,7.78916 -0.17678,11.51128c0,0 0.01463,0.99989 -0.98527,1.01452c-0.42909,0.00628 -0.67674,-0.17428 -0.81965,-0.38248c-0.38831,0.26054 -0.8758,0.10593 -0.8758,0.10593zM242.12743,180.48635c-0.11454,0.08832 -0.2324,0.1716 -0.35308,0.24933c0.10269,0.04526 0.1964,0.10732 0.27759,0.18274c0.02334,-0.14468 0.04846,-0.28871 0.07549,-0.43207z" fill="#ff1717" stroke="none" stroke-width="0.5" stroke-linecap="butt"/><path d="M244.63145,190.8545l-0.00784,-17.62677" fill="none" stroke="#7c8888" stroke-width="2" stroke-linecap="round"/><path d="M236.82173,165.46602c3.90009,-0.05706 7.10677,2.9744 7.16231,6.77095c0.05554,3.79655 -3.06108,6.92052 -6.96118,6.97757c-3.90009,0.05706 -7.10677,-2.9744 -7.16231,-6.77095c-0.05554,-3.79655 3.06108,-6.92052 6.96118,-6.97757z" fill="#ff0000" stroke="#ff0000" stroke-width="2" stroke-linecap="butt"/><path d="M241.88422,182.51879c-0.55223,0.00808 -1.00644,-0.43304 -1.01452,-0.98527c-0.00808,-0.55223 0.43304,-1.00644 0.98527,-1.01452c0.55223,-0.00808 1.00644,0.43304 1.01452,0.98527c0.00808,0.55223 -0.43304,1.00644 -0.98527,1.01452z" fill="#ff1717" stroke="none" stroke-width="0.5" stroke-linecap="butt"/><path d="M229.36163,203.41153c-0.22389,-0.13314 -0.4287,-0.37752 -0.43526,-0.82605c-0.01463,-0.99989 0.98527,-1.01452 0.98527,-1.01452l1.02741,0.53781c0.13694,0.26414 0.27387,0.52828 0.41081,0.79242c0.12005,0.10375 0.19806,0.23163 0.24875,0.35312c0.32378,0.22836 0.70738,0.38927 1.09298,0.40893c0,0 0.99399,0.10951 0.88448,1.10349c-0.10951,0.99399 -1.10349,0.88448 -1.10349,0.88448c-0.87275,-0.12514 -1.72368,-0.52901 -2.41771,-1.07277l-0.08623,-0.20932c-0.19266,-0.15836 -0.29059,-0.34727 -0.29059,-0.34727c-0.10547,-0.20344 -0.21094,-0.40688 -0.31641,-0.61032z" fill="#ff6565" stroke="none" stroke-width="0.5" stroke-linecap="butt"/><path d="M230.18219,199.23471c0.84008,0.54247 0.29761,1.38254 0.29761,1.38254l-0.11807,-0.42055c0.1685,0.6387 0.37685,1.26791 0.61879,1.88256c0,0 0.36478,0.93109 -0.56631,1.29588c-0.93109,0.36478 -1.29587,-0.56631 -1.29587,-0.56631c-0.26763,-0.68601 -0.4995,-1.38731 -0.68959,-2.09872l0.3709,-1.17779c0,0 0.54247,-0.84008 1.38254,-0.29761z" fill="#fffa66" stroke="none" stroke-width="0.5" stroke-linecap="butt"/><path d="M230.7461,196.68354c0.63605,0.77165 -0.1356,1.40769 -0.1356,1.40769l-0.28008,-0.03424c-0.12721,0.36017 -0.0655,0.82922 0.16471,1.13404c0,0 0.50879,0.86089 -0.35211,1.36968c-0.86089,0.50879 -1.36968,-0.3521 -1.36968,-0.3521c-0.40719,-0.7791 -0.54663,-1.74321 -0.3901,-2.60825l0.95515,-1.05242c0,0 0.77165,-0.63605 1.4077,0.1356z" fill="#70ff66" stroke="none" stroke-width="0.5" stroke-linecap="butt"/><path d="M257.25875,190.91979l-2.69969,-5.08605l-3.06002,-4.08067l-2.14306,-1.21878" fill="none" stroke="#7c8888" stroke-width="2" stroke-linecap="round"/><path d="M248.72799,180.33407l-3.39192,-1.13175" fill="none" stroke="#7c8888" stroke-width="2" stroke-linecap="round"/><path d="M239.67952,194.17729l0.02442,-6.87609" fill="none" stroke="#7c8888" stroke-width="2" stroke-linecap="round"/><path d="M237.50819,202.50283c0.71737,0.69669 0.02069,1.41406 0.02069,1.41406l-0.73895,0.76089c0,0 -0.69669,0.71737 -1.41406,0.02069c-0.71737,-0.69669 -0.02069,-1.41406 -0.02069,-1.41406l0.73895,-0.76089c0,0 0.69669,-0.71737 1.41406,-0.02069z" fill="#000000" stroke="none" stroke-width="0.5" stroke-linecap="butt"/><path d="M237.76314,199.6391c0.01768,-0.22409 0.14016,-0.93535 0.98232,-0.94767c0.99989,-0.01463 1.01452,0.98527 1.01452,0.98527l-0.0567,0.477c-0.12011,0.33513 -0.24022,0.67025 -0.36033,1.00538c0,0 -0.33739,0.94137 -1.27875,0.60398c-0.94137,-0.33739 -0.60398,-1.27876 -0.60398,-1.27876c0.10097,-0.28173 0.20194,-0.56347 0.30292,-0.8452z" fill="#000000" stroke="none" stroke-width="0.5" stroke-linecap="butt"/><path d="M236.11262,197.57217c-0.2969,-0.06517 -0.76294,-0.27584 -0.77289,-0.95614c-0.01463,-0.99989 0.98527,-1.01452 0.98527,-1.01452l0.70889,0.17591c0.29468,0.20405 0.58937,0.40809 0.88405,0.61213c0,0 0.82215,0.56927 0.25288,1.39142c-0.56927,0.82215 -1.39142,0.25288 -1.39142,0.25288c-0.22225,-0.1539 -0.44451,-0.30779 -0.66677,-0.46168z" fill="#000000" stroke="none" stroke-width="0.5" stroke-linecap="butt"/><path d="M244.33824,179.35756l-0.04323,-11.5006l-4.1721,-3.18931l-0.37248,-8.37045l-0.04206,-2.87469l-4.95192,3.32279l-2.91309,-2.58266l0.15542,10.62386l-2.39002,7.53577" fill="none" stroke="#7c8888" stroke-width="2" stroke-linecap="round"/><path d="M229.73309,180.82136l-0.18102,-12.37368l1.59008,-2.39852l8.35765,-1.24739" fill="none" stroke="#7c8888" stroke-width="2" stroke-linecap="round"/><path d="M234.10945,180.88235l-3.04905,-3.33076" fill="none" stroke="#7c8888" stroke-width="2" stroke-linecap="round"/><path d="M232.49872,164.77918l5.99635,-8.83866" fill="none" stroke="#7c8888" stroke-width="2" stroke-linecap="round"/><path d="M233.61994,164.51275l5.40799,-6.32978" fill="none" stroke="#7c8888" stroke-width="2" stroke-linecap="round"/><path d="M235.36976,164.48716l3.68743,-4.3044" fill="none" stroke="#7c8888" stroke-width="2" stroke-linecap="round"/><path d="M236.74644,164.59203l2.84178,-2.29181" fill="none" stroke="#7c8888" stroke-width="2" stroke-linecap="round"/><path d="M233.09257,162.64527l-0.0896,-6.12434" fill="none" stroke="#7c8888" stroke-width="2" stroke-linecap="round"/><path d="M234.57961,161.74842l-1.06206,-4.23492" fill="none" stroke="#7c8888" stroke-width="2" stroke-linecap="round"/><path d="M233.0432,159.27063l3.84533,-2.05647" fill="none" stroke="#7c8888" stroke-width="2" stroke-linecap="round"/><path d="M231.7074,153.41454l-1.94611,-4.84705l4.78488,-6.19566" fill="none" stroke="#7c8888" stroke-width="2" stroke-linecap="round"/><path d="M239.32609,152.92805l1.69313,-3.90018l-5.72679,-6.91697" fill="none" stroke="#7c8888" stroke-width="2" stroke-linecap="round"/><path d="M237.58531,179.20632l-0.24932,-8.49726" fill="none" stroke="#7c8888" stroke-width="2" stroke-linecap="round"/><path d="M234.68578,143.3699c1.65668,-0.02424 3.03283,2.22243 3.07373,5.01807c0.0409,2.79564 -1.26895,5.08161 -2.92563,5.10584c-1.65668,0.02424 -3.03283,-2.22243 -3.07373,-5.01807c-0.0409,-2.79564 1.26895,-5.08161 2.92563,-5.10584z" fill="#ff0000" stroke="none" stroke-width="0" stroke-linecap="butt"/><path d="M231.21046,162.17275l-5.81586,4.08551l3.55265,3.57341z" fill="#ff0000" stroke="#7c8888" stroke-width="2" stroke-linecap="round"/></g></g></svg>