<svg version="1.1" xmlns="http://www.w3.org/2000/svg" xmlns:xlink="http://www.w3.org/1999/xlink" width="104.53237" height="95.20908" viewBox="0,0,104.53237,95.20908"><g transform="translate(-183.94417,-124.15652)"><g data-paper-data="{&quot;isPaintingLayer&quot;:true}" fill-rule="nonzero" stroke-linejoin="miter" stroke-miterlimit="10" stroke-dasharray="" stroke-dashoffset="0" style="mix-blend-mode: normal"><g><path d="M230.93712,162.04966c0,2.3959 -1.97728,4.33816 -4.41639,4.33816c-2.4391,0 -4.41639,-1.94226 -4.41639,-4.33816c0,-2.3959 1.97729,-4.33816 4.41639,-4.33816c2.4391,0 4.41639,1.94226 4.41639,4.33816z" fill="#712929" stroke="#000000" stroke-width="2" stroke-linecap="butt"/><path d="M225.16906,167.9164v-9.21681h26.49834v9.21681z" fill="#712929" stroke="#000000" stroke-width="3.5" stroke-linecap="butt"/><g><path d="M183.94418,219.16544l0.19925,-95.00891l104.33312,0.20017l-0.19925,95.00891z" fill="none" stroke="none" stroke-width="0" stroke-linecap="butt"/><path d="M279.79024,176.48747l-14.58874,-1.4033l-13.61335,3.76331l-0.69068,7.1804l-11.8782,1.03148l-1.42857,-8.10893l-13.12986,-1.26297l0.69913,8.03876l-6.77215,1.52263l0.37566,-11.5588l-30.00631,5.80988l1.27355,-20.89332l29.28532,9.33912l7.77786,-4.32463l24.86994,1.66757l13.72117,2.7692l15.97857,2.26168z" data-paper-data="{&quot;index&quot;:null}" fill="#712929" stroke="#000000" stroke-width="3.5" stroke-linecap="round"/><path d="M274.3304,164.36734l-0.62161,6.46237" data-paper-data="{&quot;index&quot;:null}" fill="none" stroke="#000000" stroke-width="3.5" stroke-linecap="round"/><path d="M219.32444,185.16492l-0.73788,-15.28934l0.7682,7.32074" data-paper-data="{&quot;index&quot;:null}" fill="none" stroke="#000000" stroke-width="3.5" stroke-linecap="round"/><path d="M252.52478,176.76353l0.09938,-8.68665" data-paper-data="{&quot;index&quot;:null}" fill="none" stroke="#000000" stroke-width="3.5" stroke-linecap="round"/><path d="M263.08224,174.15564l-0.24596,-5.09644" data-paper-data="{&quot;index&quot;:null}" fill="none" stroke="#000000" stroke-width="3.5" stroke-linecap="round"/></g><path d="M254.73966,162.73194c0,2.43911 -2.32116,4.41639 -5.18445,4.41639c-2.86329,0 -5.18446,-1.97728 -5.18446,-4.41639c0,-2.43911 2.32117,-4.41639 5.18446,-4.41639c2.86329,0 5.18445,1.97728 5.18445,4.41639z" fill="#ff0000" stroke="#000000" stroke-width="3.5" stroke-linecap="butt"/></g></g></g></svg>