<svg version="1.1" xmlns="http://www.w3.org/2000/svg" xmlns:xlink="http://www.w3.org/1999/xlink" width="72.62822" height="38.6312" viewBox="0,0,72.62822,38.6312"><g transform="translate(-244.05404,-155.31822)"><g data-paper-data="{&quot;isPaintingLayer&quot;:true}" fill-rule="nonzero" stroke-linejoin="miter" stroke-miterlimit="10" stroke-dasharray="" stroke-dashoffset="0" style="mix-blend-mode: normal"><path d="M301.68226,160.57441c1,0 1,1 1,1l-0.00611,0.76457c0.15102,1.37535 0.07425,2.74104 0.24839,4.1114c0,0 0.12403,0.99228 -0.86825,1.11631c-0.99228,0.12403 -1.11631,-0.86825 -1.11631,-0.86825c-0.17027,-1.38246 -0.09586,-2.75488 -0.2516,-4.1386l-0.00612,-0.98543c0,0 0,-1 1,-1z" data-paper-data="{&quot;index&quot;:null}" fill="#e2d000" stroke="none" stroke-width="0.5" stroke-linecap="butt"/><path d="M303.26437,161.53151c0,0 -0.35804,0.35805 -0.81935,0.3098c-0.00717,0.10197 -0.03105,0.21321 -0.07643,0.33422c-0.35113,0.93633 -1.28745,0.58521 -1.28745,0.58521c-1.09879,-0.42751 -1.4746,-0.42675 -2.29471,-1.42428c-2.07425,-2.52297 0.86121,-7.13921 4.02276,-5.37696c0.32455,0.18091 1.25785,1.90653 1.41471,2.3402c0.18927,0.52324 0.54724,1.06628 0.4357,1.61141c-0.10758,0.52576 -0.68015,0.83028 -1.02023,1.24541l-0.375,0.375zM300.04125,158.87785c-0.1769,1.10427 0.61153,1.58036 1.49633,1.91972c0.02457,-0.39222 0.3126,-0.68025 0.3126,-0.68025l0.375,-0.375c0.56077,-0.29759 0.1406,-1.65273 -0.41982,-2.05299c-0.52609,-0.37575 -1.68388,0.68758 -1.76412,1.18851z" data-paper-data="{&quot;index&quot;:null}" fill="#e2d000" stroke="#e2d000" stroke-width="0.5" stroke-linecap="butt"/><path d="M306.55726,169.94942c-2.27817,0 -4.125,-0.69956 -4.125,-1.5625c0,-0.86294 1.84683,-1.5625 4.125,-1.5625c2.27817,0 4.125,0.69956 4.125,1.5625c0,0.86294 -1.84683,1.5625 -4.125,1.5625z" data-paper-data="{&quot;index&quot;:null}" fill="#ff0000" stroke="none" stroke-width="0" stroke-linecap="butt"/><path d="M313.05726,172.69942c0,2.07107 -2.79822,3.75 -6.25,3.75c-3.45178,0 -6.25,-1.67893 -6.25,-3.75c0,-2.07107 2.79822,-3.75 6.25,-3.75c3.45178,0 6.25,1.67893 6.25,3.75z" data-paper-data="{&quot;index&quot;:null}" fill="#ff0000" stroke="none" stroke-width="0" stroke-linecap="butt"/><path d="M259.57552,182.06877c-0.09446,-0.00129 -0.18567,-0.01564 -0.27197,-0.04131c-0.29432,0.06716 -0.5841,0.11689 -0.85052,0.13271c-0.14321,0.07567 -0.30686,0.11755 -0.48022,0.11517c-0.03548,-0.00048 -0.07049,-0.00282 -0.10496,-0.0069c-0.53591,0.07731 -0.82207,-0.22937 -0.96314,-0.47769c-0.47485,-0.08333 -0.83265,-0.50102 -0.82583,-0.99861c0.00192,-0.13929 0.03221,-0.27153 0.08532,-0.39131l0.15366,-0.36939l0.00957,-0.69737c-0.24486,-0.33529 -0.56396,-0.65473 -0.3781,-0.95762c0.4758,-0.77532 1.54562,-0.86311 2.47377,-0.84044c0.00444,-0.07431 0.00933,-0.12396 0.01466,-0.14102c0.752,-2.40162 2.60358,-2.24091 3.94699,-1.2122c0.4482,-0.02639 0.79743,0.08958 1.05979,0.29577c1.06317,-0.2957 1.54274,0.17725 1.73832,0.96504c0.87382,0.24889 0.67753,1.16479 0.67753,1.16479c-0.01746,0.07975 -0.03418,0.15968 -0.05014,0.23975c0.0806,-0.01305 0.16124,-0.02722 0.24195,-0.0426c0,0 0.98319,-0.18265 1.16583,0.80053c0.04837,0.26039 0.01497,0.46463 -0.06029,0.62419c0.18245,0.18399 0.29369,0.43831 0.28985,0.71786c-0.00675,0.4915 -0.36698,0.89533 -0.83548,0.97285l-1.12748,0.20944l-0.06112,-0.32901c-0.13339,0.02645 -0.26569,0.04856 -0.39715,0.06676c-0.12778,0.24956 -0.38122,0.49871 -0.88377,0.49182c-0.08938,-0.00122 -0.17067,-0.01032 -0.24459,-0.0259c-0.06856,0.01382 -0.13964,0.02063 -0.21242,0.01963c-0.28623,-0.00393 -0.54274,-0.12774 -0.72236,-0.32301c-0.05595,0.0074 -0.11217,0.01361 -0.16854,0.01863c-0.99591,0.86081 -2.15522,0.70571 -2.86766,-0.03894c-0.10966,0.03936 -0.22811,0.06008 -0.35147,0.05838zM260.47337,177.53328c-0.08659,0.07151 -0.13245,0.25595 -0.15363,0.492l0.2142,0.10506c0,0 0.08147,0.04214 0.18232,0.12559c0.02691,-0.04401 0.04779,-0.07886 0.06139,-0.10273c0.09454,-0.16584 0.16204,-0.36402 0.22359,-0.56878c-0.18717,-0.13964 -0.36808,-0.1831 -0.52786,-0.05115z" data-paper-data="{&quot;index&quot;:null}" fill="#000000" stroke="none" stroke-width="0.5" stroke-linecap="butt"/><path d="M255.08768,192.66327l0.2101,-15.31014l11.42548,0.15679l-0.2101,15.31013z" data-paper-data="{&quot;index&quot;:null}" fill="#ff0000" stroke="#7c8888" stroke-width="2" stroke-linecap="butt"/><path d="M254.80626,179.86045l0.20069,-14.62459l32.67684,0.4484l-0.20069,14.6246z" data-paper-data="{&quot;index&quot;:null}" fill="#00ff2f" stroke="#7c8888" stroke-width="2" stroke-linecap="butt"/><path d="M285.7446,165.42909c3.97536,0.05455 7.1517,3.47491 7.09456,7.63958c-0.05715,4.16469 -3.32615,7.49659 -7.30152,7.44204c-3.97536,-0.05455 -7.1517,-3.47491 -7.09456,-7.63958c0.05715,-4.16469 3.32615,-7.49659 7.30152,-7.44204z" data-paper-data="{&quot;index&quot;:null}" fill="#000000" stroke="#7c8888" stroke-width="2" stroke-linecap="butt"/><path d="M255.80458,190.38758l0.21636,-15.76714l9.5974,0.13169l-0.21636,15.76715z" data-paper-data="{&quot;index&quot;:null}" fill="#ff0000" stroke="none" stroke-width="0" stroke-linecap="butt"/><path d="M281.76451,164.00317l-0.62595,-4.35108" data-paper-data="{&quot;index&quot;:null}" fill="none" stroke="none" stroke-width="0" stroke-linecap="round"/><path d="M289.93231,169.57443l-7.49166,-4.87632l0.04703,-3.42764" data-paper-data="{&quot;index&quot;:null}" fill="none" stroke="#7c8888" stroke-width="2" stroke-linecap="round"/><path d="M256.5438,169.82799l21.71153,0.06938l2.92695,-3.82295l5.25,3.375" data-paper-data="{&quot;index&quot;:null}" fill="none" stroke="#7c8888" stroke-width="2" stroke-linecap="round"/><path d="M263.01694,181.1159l-0.31317,6.16661" data-paper-data="{&quot;index&quot;:null}" fill="none" stroke="#7c8888" stroke-width="2" stroke-linecap="round"/><path d="M258.6094,185.855l0.53854,-5.93497" data-paper-data="{&quot;index&quot;:null}" fill="none" stroke="#7c8888" stroke-width="2" stroke-linecap="round"/><path d="M265.79796,169.20195c-0.00784,4.31472 -3.456,7.80623 -7.70168,7.79852c-4.24568,-0.00772 -7.68113,-3.51174 -7.67329,-7.82646c0.00784,-4.31472 3.456,-7.80623 7.70168,-7.79852c4.24568,0.00771 7.68113,3.51173 7.67329,7.82645z" data-paper-data="{&quot;index&quot;:null}" fill="#ff0000" stroke="#7c8888" stroke-width="2" stroke-linecap="butt"/><path d="M249.67541,167.86015l-4.62136,-2.0084" data-paper-data="{&quot;index&quot;:null}" fill="none" stroke="#7c8888" stroke-width="2" stroke-linecap="round"/><path d="M249.31541,159.60948l3.24386,3.3809" data-paper-data="{&quot;index&quot;:null}" fill="none" stroke="#7c8888" stroke-width="2" stroke-linecap="round"/><path d="M257.19583,156.62379l0.36728,4.25068" data-paper-data="{&quot;index&quot;:null}" fill="none" stroke="#7c8888" stroke-width="2" stroke-linecap="round"/><path d="M253.93228,170.44942c0,-0.55229 0.44772,-1 1,-1c0.55228,0 1,0.44771 1,1c0,0.55229 -0.44772,1 -1,1c-0.55228,0 -1,-0.44771 -1,-1z" data-paper-data="{&quot;index&quot;:null}" fill="#ff1717" stroke="none" stroke-width="0.5" stroke-linecap="butt"/><path d="M267.30728,172.69941c0,0 -1,0 -1,-1c0,-1 1,-1 1,-1c2.0569,0.00424 4.07579,0.23373 6.10253,0.26158c0.25726,-0.13658 0.52247,-0.13658 0.52247,-0.13658h0.375c0.86683,0 1.45189,-0.2395 1.75518,0.02339c0.06087,-0.00681 0.12177,-0.01395 0.18269,-0.02146l0.06214,0.03008v-0.03201h1c0.55228,0 1,0.44771 1,1c0,0.55229 -0.44772,1 -1,1h-0.95313c-3.03522,0.38272 -5.9997,-0.13055 -9.04688,-0.125z" data-paper-data="{&quot;index&quot;:null}" fill="#ff1717" stroke="none" stroke-width="0.5" stroke-linecap="butt"/><path d="M265.20169,177.88544c-0.25483,-0.39208 -0.0931,-0.87726 -0.0931,-0.87726c0.08777,-0.23009 0.18993,-0.45423 0.30511,-0.67075c-0.17832,-0.02562 -0.37093,-0.1133 -0.56354,-0.30591c-0.70711,-0.7071 0,-1.41421 0,-1.41421l0.67298,-0.62581c-0.05834,-0.12695 -0.09087,-0.26822 -0.09087,-0.41709c0,-0.42496 0.26508,-0.78801 0.63891,-0.93282c-0.00801,-0.09917 -0.01368,-0.20473 -0.01391,-0.31718c0,0 0,-1 1,-1c1,0 1,1 1,1c-0.00008,0.04484 -0.00015,0.08892 -0.00024,0.13226c0.19674,-0.1021 0.3762,-0.12454 0.3762,-0.12454c2.71557,-0.33945 5.51935,-0.58608 8.24807,-0.25l0.25097,-0.00772c0,0 1,0 1,1c0,0.33279 -0.11074,0.55482 -0.25852,0.70297c0.13534,0.16222 0.19485,0.32091 0.19485,0.32091c0.13655,0.37063 0.27309,0.74127 0.40964,1.1119l0.14054,1.07116c0.16803,0.14168 0.25674,0.29692 0.25674,0.29692c0.2149,0.42111 0.58179,0.788 1.0029,1.0029l0.64829,0.92103c0,0 0.44722,0.89443 -0.44721,1.34164c-0.49242,0.24621 -0.84929,0.08577 -1.07061,-0.10818c-0.21067,0.15038 -0.43049,0.19434 -0.43049,0.19434l-1.06365,0.11456c-3.55569,-0.90883 -7.78485,-0.35193 -11.50747,-0.34515c0,0 -1,0 -1,-1c0,-0.42914 0.18417,-0.67412 0.39443,-0.81397zM277.21097,177.97233c-0.08664,-0.11582 -0.16819,-0.23489 -0.24414,-0.35669c-0.04676,0.10201 -0.11019,0.19481 -0.18678,0.27489c0.14432,0.02545 0.28798,0.05268 0.43092,0.0818z" data-paper-data="{&quot;index&quot;:null}" fill="#ff1717" stroke="none" stroke-width="0.5" stroke-linecap="butt"/><path d="M266.80726,180.32442l17.625,0.25" data-paper-data="{&quot;index&quot;:null}" fill="none" stroke="#7c8888" stroke-width="2" stroke-linecap="round"/><path d="M292.30726,172.88692c0,3.90051 -3.07804,7.0625 -6.875,7.0625c-3.79696,0 -6.875,-3.16199 -6.875,-7.0625c0,-3.90051 3.07804,-7.0625 6.875,-7.0625c3.79696,0 6.875,3.16199 6.875,7.0625z" data-paper-data="{&quot;index&quot;:null}" fill="#ff0000" stroke="#ff0000" stroke-width="2" stroke-linecap="butt"/><path d="M275.18226,177.69942c0,-0.55229 0.44772,-1 1,-1c0.55228,0 1,0.44771 1,1c0,0.55229 -0.44772,1 -1,1c-0.55228,0 -1,-0.44771 -1,-1z" data-paper-data="{&quot;index&quot;:null}" fill="#ff1717" stroke="none" stroke-width="0.5" stroke-linecap="butt"/><path d="M253.86007,165.18c0.20497,-0.10249 0.40992,-0.20497 0.61489,-0.30745c0.1364,-0.22191 0.38375,-0.42313 0.83232,-0.42313c1,0 1,1 1,1l-0.55278,1.01943c-0.26612,0.13306 -0.53223,0.26611 -0.79835,0.39917c-0.10549,0.11852 -0.23451,0.19466 -0.35672,0.24356c-0.23307,0.32041 -0.39957,0.70161 -0.42487,1.08688c0,0 -0.12403,0.99228 -1.11631,0.86825c-0.99228,-0.12403 -0.86824,-1.11631 -0.86824,-1.11631c0.13789,-0.87083 0.55417,-1.71576 1.10802,-2.40176l0.21056,-0.08316c0.16116,-0.19032 0.35149,-0.28548 0.35149,-0.28548z" data-paper-data="{&quot;index&quot;:null}" fill="#ff6565" stroke="none" stroke-width="0.5" stroke-linecap="butt"/><path d="M258.36197,164.36738c0,0 0.83205,0.5547 0.27735,1.38675c-0.5547,0.83205 -1.38675,0.27735 -1.38675,0.27735l0.42224,-0.11191c-0.64109,0.15914 -1.27329,0.35826 -1.89141,0.59118c0,0 -0.93633,0.35112 -1.28746,-0.58521c-0.35113,-0.93633 0.58521,-1.28745 0.58521,-1.28745c0.68986,-0.25756 1.39447,-0.47915 2.10859,-0.65881l1.17224,0.38809z" data-paper-data="{&quot;index&quot;:null}" fill="#fffa66" stroke="none" stroke-width="0.5" stroke-linecap="butt"/><path d="M261.33815,164.94973c0,0 0.6247,0.78086 -0.15617,1.40556c-0.78087,0.6247 -1.40556,-0.15617 -1.40556,-0.15617l0.03833,-0.27955c-0.35827,-0.13246 -0.82817,-0.07763 -1.13632,0.1481c0,0 -0.86824,0.49614 -1.36438,-0.37211c-0.49614,-0.86825 0.3721,-1.36438 0.3721,-1.36438c0.78497,-0.39575 1.75102,-0.52107 2.61368,-0.3519l1.03833,0.97044z" data-paper-data="{&quot;index&quot;:null}" fill="#70ff66" stroke="none" stroke-width="0.5" stroke-linecap="butt"/><path d="M277.05726,185.19942l-1.25,2.125l-4.125,3l-5.125,2.625" data-paper-data="{&quot;index&quot;:null}" fill="none" stroke="#7c8888" stroke-width="2" stroke-linecap="round"/><path d="M277.26667,184.57442l1.18125,-3.375" data-paper-data="{&quot;index&quot;:null}" fill="none" stroke="#7c8888" stroke-width="2" stroke-linecap="round"/><path d="M270.43226,175.44942l-6.875,-0.125" data-paper-data="{&quot;index&quot;:null}" fill="none" stroke="#7c8888" stroke-width="2" stroke-linecap="round"/><path d="M255.26441,171.61732c0,0 0.70711,0.7071 0,1.41421c-0.70711,0.70711 -1.41422,0 -1.41422,0l-0.75,-0.75c0,0 -0.70711,-0.7071 0,-1.41421c0.7071,-0.70711 1.41421,0 1.41421,0l0.75,0.75z" data-paper-data="{&quot;index&quot;:null}" fill="#000000" stroke="none" stroke-width="0.5" stroke-linecap="butt"/><path d="M257.2834,173.01311c0.28023,0.10508 0.56046,0.21016 0.84068,0.31525c0.22382,0.02096 0.9332,0.15382 0.9332,0.99607c0,1 -1,1 -1,1l-0.47612,-0.06367c-0.33333,-0.125 -0.66667,-0.25 -1,-0.375c0,0 -0.93634,-0.35112 -0.58521,-1.28745c0.35113,-0.93633 1.28746,-0.58521 1.28746,-0.58521z" data-paper-data="{&quot;index&quot;:null}" fill="#000000" stroke="none" stroke-width="0.5" stroke-linecap="butt"/><path d="M259.74357,172.36817c0.15712,-0.21997 0.31425,-0.43996 0.47138,-0.65994c0.06951,-0.29591 0.28697,-0.75882 0.96734,-0.75882c1,0 1,1 1,1l-0.18626,0.70624c-0.20833,0.29166 -0.41667,0.58334 -0.625,0.875c0,0 -0.58123,0.81374 -1.39497,0.2325c-0.81373,-0.58124 -0.23249,-1.39497 -0.23249,-1.39497z" data-paper-data="{&quot;index&quot;:null}" fill="#000000" stroke="none" stroke-width="0.5" stroke-linecap="butt"/><path d="M285.55726,165.57441l7.5,2.5h10.625l-2.625,2.875l3.25,5h-2.875l-8.375,0.25l-3.25,4.125l-11.5,-0.125" data-paper-data="{&quot;index&quot;:null}" fill="none" stroke="#7c8888" stroke-width="2" stroke-linecap="round"/><path d="M277.05726,165.57441h12.375l2.375,1.625l1.125,8.375" data-paper-data="{&quot;index&quot;:null}" fill="none" stroke="#7c8888" stroke-width="2" stroke-linecap="round"/><path d="M276.93226,169.94942l3.375,-3" data-paper-data="{&quot;index&quot;:null}" fill="none" stroke="#7c8888" stroke-width="2" stroke-linecap="round"/><path d="M293.05726,168.57442l8.75,6.125" data-paper-data="{&quot;index&quot;:null}" fill="none" stroke="#7c8888" stroke-width="2" stroke-linecap="round"/><path d="M293.30726,169.69942l6.25,5.5" data-paper-data="{&quot;index&quot;:null}" fill="none" stroke="#7c8888" stroke-width="2" stroke-linecap="round"/><path d="M297.55726,175.19942l-4.25,-3.75" data-paper-data="{&quot;index&quot;:null}" fill="none" stroke="#7c8888" stroke-width="2" stroke-linecap="round"/><path d="M293.18226,172.82442l2.25,2.875" data-paper-data="{&quot;index&quot;:null}" fill="none" stroke="#7c8888" stroke-width="2" stroke-linecap="round"/><path d="M301.30726,169.19942h-6.125" data-paper-data="{&quot;index&quot;:null}" fill="none" stroke="#7c8888" stroke-width="2" stroke-linecap="round"/><path d="M300.30726,169.69942l-4.25,1" data-paper-data="{&quot;index&quot;:null}" fill="none" stroke="#7c8888" stroke-width="2" stroke-linecap="round"/><path d="M300.55726,173.07442l-2,-3.875" data-paper-data="{&quot;index&quot;:null}" fill="none" stroke="#7c8888" stroke-width="2" stroke-linecap="round"/><path d="M304.43226,167.94942l4.875,-1.875l6.125,4.875" data-paper-data="{&quot;index&quot;:null}" fill="none" stroke="#7c8888" stroke-width="2" stroke-linecap="round"/><path d="M315.68226,171.69942l-7,5.625l-3.875,-1.75" data-paper-data="{&quot;index&quot;:null}" fill="none" stroke="#7c8888" stroke-width="2" stroke-linecap="round"/><path d="M287.05726,173.32442l-8.5,0.125" data-paper-data="{&quot;index&quot;:null}" fill="none" stroke="#7c8888" stroke-width="2" stroke-linecap="round"/><path d="M314.43226,171.07442c0,1.65686 -2.26656,3 -5.0625,3c-2.79594,0 -5.0625,-1.34314 -5.0625,-3c0,-1.65686 2.26656,-3 5.0625,-3c2.79594,0 5.0625,1.34314 5.0625,3z" data-paper-data="{&quot;index&quot;:null}" fill="#ff0000" stroke="none" stroke-width="0" stroke-linecap="butt"/><path d="M288.05726,164.94941l3.625,-3.5l4,5.875z" data-paper-data="{&quot;index&quot;:null}" fill="#ff0000" stroke="#7c8888" stroke-width="2" stroke-linecap="round"/><path d="M297.45846,166.73035l0.12151,10.57144" fill="none" stroke="#e2d000" stroke-width="0.5" stroke-linecap="round"/><path d="M300.79605,177.19081l-0.21608,-10.26401" fill="none" stroke="#e2d000" stroke-width="0.5" stroke-linecap="round"/><path d="M269.07997,166.5518v2.5" fill="none" stroke="#e2d000" stroke-width="0.5" stroke-linecap="round"/><path d="M272.95497,169.4268l0.125,-3" fill="none" stroke="#e2d000" stroke-width="0.5" stroke-linecap="round"/></g></g></svg>