<svg version="1.1" xmlns="http://www.w3.org/2000/svg" xmlns:xlink="http://www.w3.org/1999/xlink" width="34.51286" height="40.19467" viewBox="0,0,34.51286,40.19467"><g transform="translate(-223.24634,-159.91355)"><g data-paper-data="{&quot;isPaintingLayer&quot;:true}" fill-rule="nonzero" stroke-linejoin="miter" stroke-miterlimit="10" stroke-dasharray="" stroke-dashoffset="0" style="mix-blend-mode: normal"><path d="M246.07461,193.99746c0.00053,0.09447 -0.01207,0.18595 -0.03606,0.27272c0.07282,0.29296 0.12814,0.58173 0.14909,0.84779c0.07842,0.14172 0.12345,0.30454 0.12441,0.47791c0.0002,0.03548 -0.00147,0.07053 -0.00488,0.10508c0.08763,0.53433 -0.21347,0.82635 -0.45903,0.97218c-0.07415,0.47638 -0.48487,0.84217 -0.9825,0.84494c-0.13931,0.00077 -0.27211,-0.02697 -0.39289,-0.07776l-0.37229,-0.14651l-0.69742,0.00388c-0.3305,0.25127 -0.64374,0.57648 -0.95015,0.39649c-0.78435,-0.46077 -0.89276,-1.5287 -0.88799,-2.45711c-0.07438,-0.00301 -0.12411,-0.00693 -0.14127,-0.01193c-2.41567,-0.70555 -2.29069,-2.55989 -1.28807,-3.92288c-0.03502,-0.4476 0.0742,-0.799 0.27529,-1.0653c-0.31614,-1.05727 0.14747,-1.54587 0.93135,-1.75661c0.232,-0.87845 1.15152,-0.69986 1.15152,-0.69986c0.08007,0.01593 0.16031,0.03109 0.24067,0.04551c-0.01461,-0.08033 -0.03033,-0.16068 -0.04726,-0.24108c0,0 -0.20157,-0.97948 0.77791,-1.18104c0.25941,-0.05338 0.46425,-0.02392 0.62524,0.04824c0.18044,-0.18596 0.43257,-0.30208 0.71213,-0.30363c0.49154,-0.00273 0.90224,0.34965 0.98878,0.81657l0.23114,1.12322l-0.32777,0.06745c0.029,0.13285 0.05367,0.26472 0.0744,0.39579c0.25198,0.12294 0.50597,0.37153 0.50877,0.87412c0.0005,0.08939 -0.00704,0.17083 -0.02119,0.24504c0.01515,0.06828 0.02332,0.13921 0.02373,0.212c0.00159,0.28626 -0.11726,0.5451 -0.30902,0.72846c0.00847,0.05578 0.01576,0.11187 0.02187,0.16814c0.87985,0.97913 0.74714,2.14122 0.01636,2.86788c0.04147,0.10888 0.06446,0.22692 0.06515,0.35028zM241.52265,193.18721c0.07316,0.08519 0.25845,0.12749 0.49487,0.14412l0.10091,-0.21618c0,0 0.04057,-0.08227 0.12205,-0.1847c-0.04453,-0.02605 -0.07978,-0.04626 -0.1039,-0.05939c-0.16763,-0.09133 -0.36708,-0.15499 -0.57298,-0.21259c-0.13601,0.18983 -0.17597,0.37154 -0.04096,0.52875z" data-paper-data="{&quot;index&quot;:null}" fill="#000000" stroke="none" stroke-width="0.5" stroke-linecap="butt"/><path d="M256.75366,198.28023l-15.31134,0.08513l-0.06353,-11.42637l15.31134,-0.08513z" data-paper-data="{&quot;index&quot;:null}" fill="#000000" stroke="#7c8888" stroke-width="2" stroke-linecap="butt"/><path d="M243.95867,198.80845l-14.62575,0.08132l-0.1817,-32.67941l14.62575,-0.08132z" data-paper-data="{&quot;index&quot;:null}" fill="#000000" stroke="#7c8888" stroke-width="2" stroke-linecap="butt"/><path d="M230.94647,183.70069l2.9162,1.60351l0.1924,11.95956l-2.90714,0.18603z" data-paper-data="{&quot;index&quot;:null}" fill="#00f52b" stroke="#00f52b" stroke-width="2" stroke-linecap="round"/><path d="M228.93349,168.15409c-0.0221,-3.97568 3.33638,-7.21738 7.50138,-7.24054c4.16501,-0.02316 7.55932,3.181 7.58143,7.15668c0.0221,3.97568 -3.33638,7.21738 -7.50138,7.24054c-4.16501,0.02316 -7.55932,-3.181 -7.58143,-7.15668z" data-paper-data="{&quot;index&quot;:null}" fill="#000000" stroke="#7c8888" stroke-width="2" stroke-linecap="butt"/><path d="M254.46457,197.60735l-15.76839,0.08767l-0.05337,-9.59815l15.76839,-0.08767z" data-paper-data="{&quot;index&quot;:null}" fill="#000000" stroke="none" stroke-width="0" stroke-linecap="butt"/><path d="M223.24634,172.87066l4.33821,-0.70972" data-paper-data="{&quot;index&quot;:null}" fill="none" stroke="none" stroke-width="0" stroke-linecap="round"/><path d="M224.83841,171.4906l3.42791,-0.01906" data-paper-data="{&quot;index&quot;:null}" fill="none" stroke="#7c8888" stroke-width="2" stroke-linecap="round"/><path d="M245.05556,190.57509l6.17151,0.19422" data-paper-data="{&quot;index&quot;:null}" fill="none" stroke="#7c8888" stroke-width="2" stroke-linecap="round"/><path d="M243.93451,194.46641l5.94425,0.42402" data-paper-data="{&quot;index&quot;:null}" fill="none" stroke="#7c8888" stroke-width="2" stroke-linecap="round"/><path d="M244.30135,178.23842l3.20573,1.12484l1.84093,2.27511l0.47738,3.65389" data-paper-data="{&quot;index&quot;:null}" fill="none" stroke="#7c8888" stroke-width="2" stroke-linecap="round"/><path d="M237.15616,198.9164l-8.12418,0.17017l0.19996,-9.00125l4.75062,0.09859" fill="none" stroke="#7c8888" stroke-width="2" stroke-linecap="round"/><path d="M235.15133,198.05253l-0.07089,-12.7498l-4.89438,-3.47284" fill="none" stroke="#7c8888" stroke-width="2" stroke-linecap="round"/><path d="M229.13335,194.83594l5.49922,-0.15558" fill="none" stroke="#7c8888" stroke-width="2" stroke-linecap="round"/></g></g></svg>