<svg version="1.1" xmlns="http://www.w3.org/2000/svg" xmlns:xlink="http://www.w3.org/1999/xlink" width="48.64386" height="62.82371" viewBox="0,0,48.64386,62.82371"><g transform="translate(-214.05137,-135.84558)"><g data-paper-data="{&quot;isPaintingLayer&quot;:true}" fill-rule="nonzero" stroke-linejoin="miter" stroke-miterlimit="10" stroke-dasharray="" stroke-dashoffset="0" style="mix-blend-mode: normal"><path d="M238.3733,191.0013c13.43263,0 24.32193,1.71654 24.32193,3.834c0,2.11746 -10.8893,3.834 -24.32193,3.834c-13.43263,0 -24.32193,-1.71654 -24.32193,-3.834c0,-2.11746 10.8893,-3.834 24.32193,-3.834z" data-paper-data="{&quot;index&quot;:null}" fill="#494949" stroke="none" stroke-width="0" stroke-linecap="butt"/><path d="M227.77507,161.43047l0.17094,-0.30971" data-paper-data="{&quot;index&quot;:null}" fill="none" stroke="#000000" stroke-width="1" stroke-linecap="round"/><path d="M231.39479,159.84059l-1.64535,2.70279" data-paper-data="{&quot;index&quot;:null}" fill="none" stroke="#000000" stroke-width="1" stroke-linecap="round"/><path d="M231.23026,163.33833l1.48082,-1.74887" data-paper-data="{&quot;index&quot;:null}" fill="none" stroke="#000000" stroke-width="1" stroke-linecap="round"/><path d="M229.31327,161.75734l17.60414,1.54932l-6.49872,14.34859l-8.12187,-12.42971l-4.05812,-2.6311z" data-paper-data="{&quot;index&quot;:null}" fill="#ffffff" stroke="#ffffff" stroke-width="3" stroke-linecap="round"/><path d="M236.47946,170.28488v-3.82041h6.37692c0,0 0,2.87897 0,3.4477c0,0.18699 -2.76334,3.32562 -2.76334,3.32562z" fill="#5500ff" stroke="none" stroke-width="NaN" stroke-linecap="butt"/><path d="M241.5462,172.5198v10.57288l-1.90651,2.14261l-1.84434,-2.14261v-10.57288l1.96868,-2.28278z" data-paper-data="{&quot;index&quot;:null}" fill="#5500ff" stroke="none" stroke-width="0" stroke-linecap="butt"/><path d="M247.52661,158.99406v-4.28726h4.45215v4.28726z" fill="#000000" stroke="#000000" stroke-width="1" stroke-linecap="butt"/><path d="M230.45741,158.68848v-4.28726h4.45215v4.28726z" fill="#000000" stroke="#000000" stroke-width="1" stroke-linecap="butt"/><path d="M221.25297,195.74441v-59.39883h34.948v59.39883z" fill="#ffffff" stroke="#000000" stroke-width="1" stroke-linecap="butt"/><text transform="translate(245.21393,139.79204) rotate(90.10344) scale(0.57608,-0.57608)" font-size="40" xml:space="preserve" data-paper-data="{&quot;index&quot;:null}" fill="#000000" fill-rule="nonzero" stroke="none" stroke-width="1" stroke-linecap="butt" stroke-linejoin="miter" stroke-miterlimit="10" stroke-dasharray="" stroke-dashoffset="0" font-family="Sans Serif" font-weight="normal" text-anchor="start" style="mix-blend-mode: normal"><tspan x="0" dy="0">:D</tspan></text></g></g></svg>