<svg version="1.1" xmlns="http://www.w3.org/2000/svg" xmlns:xlink="http://www.w3.org/1999/xlink" width="74" height="92" viewBox="0,0,74,92"><g transform="translate(-201.5,-137)"><g data-paper-data="{&quot;isPaintingLayer&quot;:true}" fill-rule="nonzero" stroke-linejoin="miter" stroke-miterlimit="10" stroke-dasharray="" stroke-dashoffset="0" style="mix-blend-mode: normal"><path d="M201.5,229v-92h74v92z" fill="none" stroke="none" stroke-width="0" stroke-linecap="butt"/><g><path d="M236.16667,183.83334v-7.66667h7.66667v7.66667z" fill="#ff6666" stroke="none" stroke-width="0" stroke-linecap="butt"/><path d="M251.24171,179.22656c0,6.24883 -5.14873,11.31452 -11.5,11.31452c-6.35127,0 -11.5,-5.06568 -11.5,-11.31451c0,-6.24883 5.14873,-11.31451 11.5,-11.31451c6.35127,0 11.5,5.06568 11.5,11.31452z" fill="none" stroke="#ff0000" stroke-width="2" stroke-linecap="butt"/><path d="M256.99171,179.41204c0,9.11715 -7.54254,16.50807 -16.84674,16.50807c-9.3042,0 -16.84674,-7.39092 -16.84674,-16.50807c0,-9.11715 7.54254,-16.50806 16.84674,-16.50806c9.3042,0 16.84674,7.39091 16.84674,16.50806z" fill="none" stroke="#ff0000" stroke-width="2" stroke-linecap="butt"/><path d="M239.92719,154.55721l0.18548,16.13709" fill="none" stroke="#ff0000" stroke-width="2" stroke-linecap="round"/><path d="M214.70139,179.78301l17.62097,0.18548" fill="none" stroke="#ff0000" stroke-width="2" stroke-linecap="round"/><path d="M247.71751,179.9685l17.06452,0.18548" fill="none" stroke="#ff0000" stroke-width="2" stroke-linecap="round"/><path d="M239.92719,186.27495v18.54839" fill="none" stroke="#ff0000" stroke-width="2" stroke-linecap="round"/></g></g></g></svg>