<svg version="1.1" xmlns="http://www.w3.org/2000/svg" xmlns:xlink="http://www.w3.org/1999/xlink" width="104.53237" height="95.20908" viewBox="0,0,104.53237,95.20908"><g transform="translate(-187.73381,-132.39546)"><g data-paper-data="{&quot;isPaintingLayer&quot;:true}" fill-rule="nonzero" stroke-linejoin="miter" stroke-miterlimit="10" stroke-dasharray="" stroke-dashoffset="0" style="mix-blend-mode: normal"><path d="M230.31037,194.04957c-2.43911,0 -4.41639,-1.94226 -4.41639,-4.33816c0,-2.39591 1.97728,-4.33817 4.41639,-4.33817c2.43911,0 4.41639,1.94227 4.41639,4.33817c0,2.3959 -1.97728,4.33816 -4.41639,4.33816z" data-paper-data="{&quot;index&quot;:null}" fill="#712929" stroke="#000000" stroke-width="2" stroke-linecap="butt"/><path d="M255.45702,183.84467v9.21681h-26.49833v-9.21681z" data-paper-data="{&quot;index&quot;:null}" fill="#712929" stroke="#000000" stroke-width="3.5" stroke-linecap="butt"/><g data-paper-data="{&quot;index&quot;:null}"><path d="M292.06694,132.39546l0.19925,95.00891l-104.33312,0.20017l-0.19925,-95.00891z" fill="none" stroke="none" stroke-width="0" stroke-linecap="butt"/><path d="M285.45322,179.44152l-15.97857,2.26168l-13.72117,2.7692l-24.86994,1.66757l-7.77786,-4.32463l-29.28532,9.33912l-1.27355,-20.89332l30.00631,5.80988l-0.37566,-11.5588l6.77215,1.52263l-0.69913,8.03876l13.12986,-1.26297l1.42857,-8.10893l11.8782,1.03148l0.69068,7.1804l13.61335,3.76331l14.58874,-1.4033z" data-paper-data="{&quot;index&quot;:null}" fill="#712929" stroke="#000000" stroke-width="3.5" stroke-linecap="round"/><path d="M278.12003,187.39373l-0.62161,-6.46237" data-paper-data="{&quot;index&quot;:null}" fill="none" stroke="#000000" stroke-width="3.5" stroke-linecap="round"/><path d="M223.1444,174.56475l-0.7682,7.32074l0.73788,-15.28934" data-paper-data="{&quot;index&quot;:null}" fill="none" stroke="#000000" stroke-width="3.5" stroke-linecap="round"/><path d="M256.31442,174.99754l0.09938,8.68665" data-paper-data="{&quot;index&quot;:null}" fill="none" stroke="#000000" stroke-width="3.5" stroke-linecap="round"/><path d="M266.87188,177.60543l-0.24596,5.09644" data-paper-data="{&quot;index&quot;:null}" fill="none" stroke="#000000" stroke-width="3.5" stroke-linecap="round"/></g><path d="M253.34485,193.44552c-2.86329,0 -5.18446,-1.97728 -5.18446,-4.41639c0,-2.43911 2.32117,-4.41639 5.18446,-4.41639c2.86329,0 5.18445,1.97728 5.18445,4.41639c0,2.43911 -2.32115,4.41639 -5.18445,4.41639z" data-paper-data="{&quot;index&quot;:null}" fill="#00ff2f" stroke="#000000" stroke-width="3.5" stroke-linecap="butt"/></g></g></svg>