<svg version="1.1" xmlns="http://www.w3.org/2000/svg" xmlns:xlink="http://www.w3.org/1999/xlink" width="104.53237" height="95.20908" viewBox="0,0,104.53237,95.20908"><g transform="translate(-187.73382,-132.39546)"><g data-paper-data="{&quot;isPaintingLayer&quot;:true}" fill-rule="nonzero" stroke-linejoin="miter" stroke-miterlimit="10" stroke-dasharray="" stroke-dashoffset="0" style="mix-blend-mode: normal"><g><path d="M234.72677,170.28859c0,2.3959 -1.97728,4.33817 -4.41639,4.33817c-2.43911,0 -4.41639,-1.94226 -4.41639,-4.33817c0,-2.3959 1.97728,-4.33816 4.41639,-4.33816c2.43911,0 4.41639,1.94226 4.41639,4.33816z" fill="#712929" stroke="#000000" stroke-width="2" stroke-linecap="butt"/><path d="M228.9587,176.15533v-9.21681h26.49834v9.21681z" fill="#712929" stroke="#000000" stroke-width="3.5" stroke-linecap="butt"/><g><path d="M187.73382,227.40437l0.19925,-95.00891l104.33312,0.20017l-0.19925,95.00891z" fill="none" stroke="none" stroke-width="0" stroke-linecap="butt"/><path d="M283.57987,184.7264l-14.58874,-1.4033l-13.61335,3.76331l-0.69068,7.1804l-11.8782,1.03148l-1.42857,-8.10893l-13.12986,-1.26297l0.69913,8.03876l-6.77215,1.52263l0.37566,-11.5588l-30.00631,5.80988l1.27355,-20.89332l29.28532,9.33912l7.77786,-4.32463l24.86994,1.66757l13.72117,2.7692l15.97857,2.26168z" data-paper-data="{&quot;index&quot;:null}" fill="#712929" stroke="#000000" stroke-width="3.5" stroke-linecap="round"/><path d="M277.49842,179.06864l0.62161,-6.46237" data-paper-data="{&quot;index&quot;:null}" fill="none" stroke="#000000" stroke-width="3.5" stroke-linecap="round"/><path d="M223.11408,193.40385l-0.73788,-15.28934l0.7682,7.32074" data-paper-data="{&quot;index&quot;:null}" fill="none" stroke="#000000" stroke-width="3.5" stroke-linecap="round"/><path d="M256.31442,185.00246l0.09938,-8.68665" data-paper-data="{&quot;index&quot;:null}" fill="none" stroke="#000000" stroke-width="3.5" stroke-linecap="round"/><path d="M266.87188,182.39457l-0.24596,-5.09644" data-paper-data="{&quot;index&quot;:null}" fill="none" stroke="#000000" stroke-width="3.5" stroke-linecap="round"/></g><path d="M258.5293,170.97087c0,2.43911 -2.32116,4.41639 -5.18445,4.41639c-2.86329,0 -5.18446,-1.97728 -5.18446,-4.41639c0,-2.43911 2.32117,-4.41639 5.18446,-4.41639c2.86329,0 5.18445,1.97728 5.18445,4.41639z" fill="#00ff2f" stroke="#000000" stroke-width="3.5" stroke-linecap="butt"/></g></g></g></svg>