<svg version="1.1" xmlns="http://www.w3.org/2000/svg" xmlns:xlink="http://www.w3.org/1999/xlink" width="48.64386" height="66.65438" viewBox="0,0,48.64386,66.65438"><g transform="translate(-214.05137,-132.01491)"><g data-paper-data="{&quot;isPaintingLayer&quot;:true}" fill-rule="nonzero" stroke-linejoin="miter" stroke-miterlimit="10" stroke-dasharray="" stroke-dashoffset="0" style="mix-blend-mode: normal"><path d="M238.3733,191.00127c13.43263,0 24.32193,1.71654 24.32193,3.834c0,2.11746 -10.8893,3.834 -24.32193,3.834c-13.43263,0 -24.32193,-1.71654 -24.32193,-3.834c0,-2.11746 10.8893,-3.834 24.32193,-3.834z" data-paper-data="{&quot;index&quot;:null}" fill="#8c8c8c" stroke="none" stroke-width="0" stroke-linecap="butt"/><path d="M238.3733,191.0013c13.43263,0 24.32193,1.71654 24.32193,3.834c0,2.11746 -10.8893,3.834 -24.32193,3.834c-13.43263,0 -24.32193,-1.71654 -24.32193,-3.834c0,-2.11746 10.8893,-3.834 24.32193,-3.834z" data-paper-data="{&quot;index&quot;:null}" fill="#494949" stroke="none" stroke-width="0" stroke-linecap="butt"/><path d="M221.82867,194.78336v-52.76623h32.81399v52.76623z" fill="#ffddb2" stroke="#000000" stroke-width="1" stroke-linecap="butt"/><path d="M221.82867,194.68012v-27.53738h32.81399v27.53738z" fill="#ce0000" stroke="#000000" stroke-width="1" stroke-linecap="butt"/><path d="M246.39794,157.41396v-4.28726h4.45215v4.28726z" fill="#000000" stroke="#000000" stroke-width="1" stroke-linecap="butt"/><path d="M229.32874,157.33415v-4.28726h4.45215v4.28726z" fill="#000000" stroke="#000000" stroke-width="1" stroke-linecap="butt"/><path d="M221.49888,143.06814v-3.62767h38.42041v3.62767z" fill="#6c6cd0" stroke="#000000" stroke-width="1" stroke-linecap="butt"/><path d="M221.49888,139.93516v-7.42025h32.814v7.42025z" fill="#6c6cd0" stroke="#000000" stroke-width="1" stroke-linecap="butt"/><path d="M221.87697,141.76374v-7.42025h31.98953v7.42025z" fill="#6c6cd0" stroke="none" stroke-width="0" stroke-linecap="butt"/><path d="M247.21716,142.41383v-2.80321h12.39641v2.80321z" fill="#6c6cd0" stroke="none" stroke-width="0" stroke-linecap="butt"/><path d="M232.82647,154.04124l0.66688,-0.66688l1.067,-1.067" fill="none" stroke="#000000" stroke-width="1.5" stroke-linecap="round"/><path d="M231.63597,151.98899l-0.14449,1.33376" fill="none" stroke="#000000" stroke-width="1.5" stroke-linecap="round"/><path d="M228.79958,152.42792l0.93363,0.66688" fill="none" stroke="#000000" stroke-width="1.5" stroke-linecap="round"/><path d="M249.42533,154.73826l0.93363,-1.33376l1.06701,-1.067" fill="none" stroke="#000000" stroke-width="1.5" stroke-linecap="round"/><path d="M248.47023,154.73826v-1.33376l0.13338,-1.33376" fill="none" stroke="#000000" stroke-width="1.5" stroke-linecap="round"/><path d="M245.94677,152.53519l0.90345,1.02467" fill="none" stroke="#000000" stroke-width="1.5" stroke-linecap="round"/><path d="M221.73067,171.68152l-7.06891,-6.53541l6.66878,-22.80724z" fill="#cfc048" stroke="#000000" stroke-width="0.5" stroke-linecap="round"/></g></g></svg>