<svg version="1.1" xmlns="http://www.w3.org/2000/svg" xmlns:xlink="http://www.w3.org/1999/xlink" width="63.81075" height="74.0417" viewBox="0,0,63.81075,74.0417"><g transform="translate(-207.96125,-134.04298)"><g data-paper-data="{&quot;isPaintingLayer&quot;:true}" fill-rule="nonzero" stroke-linejoin="miter" stroke-miterlimit="10" stroke-dasharray="" stroke-dashoffset="0" style="mix-blend-mode: normal"><path d="M239.74516,194.6596c13.43263,0 24.32193,2.02364 24.32193,4.51993c0,2.49629 -10.8893,4.51993 -24.32193,4.51993c-13.43263,0 -24.32193,-2.02364 -24.32193,-4.51993c0,-2.49629 10.8893,-4.51993 24.32193,-4.51993z" data-paper-data="{&quot;index&quot;:null}" fill="#494949" stroke="none" stroke-width="0" stroke-linecap="butt"/><path d="M220.49093,199.73739v-62.49176h38.86206v62.49176z" data-paper-data="{&quot;index&quot;:null}" fill="#00b420" stroke="#000000" stroke-width="1" stroke-linecap="butt"/><path d="M249.58865,155.60259v-5.07746h5.27275v5.07746z" data-paper-data="{&quot;index&quot;:null}" fill="#000000" stroke="#000000" stroke-width="1" stroke-linecap="butt"/><path d="M229.37339,155.50805v-5.07746h5.27275v5.07746z" data-paper-data="{&quot;index&quot;:null}" fill="#000000" stroke="#000000" stroke-width="1" stroke-linecap="butt"/><path d="M230.05992,141.34329l10.50416,2.03306" data-paper-data="{&quot;index&quot;:null}" fill="none" stroke="#000000" stroke-width="1" stroke-linecap="round"/><path d="M238.3616,140.32676l-2.03306,3.38844" data-paper-data="{&quot;index&quot;:null}" fill="none" stroke="#000000" stroke-width="1" stroke-linecap="round"/><path d="M234.97315,140.15733l-2.37191,2.88017" data-paper-data="{&quot;index&quot;:null}" fill="none" stroke="#000000" stroke-width="1" stroke-linecap="round"/><path d="M255.9815,159.81028l-7.11572,4.06613" data-paper-data="{&quot;index&quot;:null}" fill="none" stroke="#000000" stroke-width="1" stroke-linecap="round"/><path d="M253.27074,159.13259l1.35537,2.54133" data-paper-data="{&quot;index&quot;:null}" fill="none" stroke="#000000" stroke-width="1" stroke-linecap="round"/><path d="M252.59306,162.85987l-1.69422,-2.88017" data-paper-data="{&quot;index&quot;:null}" fill="none" stroke="#000000" stroke-width="1" stroke-linecap="round"/><path d="M249.54346,161.84335l1.5248,1.86364" data-paper-data="{&quot;index&quot;:null}" fill="none" stroke="#000000" stroke-width="1" stroke-linecap="round"/><path d="M220.49093,199.73739v-32.6129h38.86206v32.6129z" data-paper-data="{&quot;index&quot;:null}" fill="#6c6cd0" stroke="#000000" stroke-width="1" stroke-linecap="butt"/><path d="M224.28194,177.97989l3.56327,-3.56327l8.18232,5.27892l1.05578,4.48708l-5.54286,0.52789l-0.79184,0.26395l-2.50749,0.13197l-0.13197,-4.883l-4.09116,-1.4517z" fill="#00b420" stroke="#000000" stroke-width="1" stroke-linecap="round"/><path d="M207.96125,161.51837v-26.27501h63.81075v26.27501z" fill="none" stroke="none" stroke-width="0" stroke-linecap="butt"/><path d="M210.09526,208.08468v-74.0417h59.48556v74.0417z" fill="none" stroke="none" stroke-width="0" stroke-linecap="butt"/></g></g></svg>