<svg version="1.1" xmlns="http://www.w3.org/2000/svg" xmlns:xlink="http://www.w3.org/1999/xlink" width="48.64386" height="62.61414" viewBox="0,0,48.64386,62.61414"><g transform="translate(-213.82273,-150.91702)"><g data-paper-data="{&quot;isPaintingLayer&quot;:true}" fill-rule="nonzero" stroke-linejoin="miter" stroke-miterlimit="10" stroke-dasharray="" stroke-dashoffset="0" style="mix-blend-mode: normal"><path d="M238.14466,205.86316c13.43263,0 24.32193,1.71654 24.32193,3.834c0,2.11746 -10.8893,3.834 -24.32193,3.834c-13.43263,0 -24.32193,-1.71654 -24.32193,-3.834c0,-2.11746 10.8893,-3.834 24.32193,-3.834z" data-paper-data="{&quot;index&quot;:null}" fill="#494949" stroke="none" stroke-width="0" stroke-linecap="butt"/><path d="M227.24155,176.50191l0.17094,-0.30971" data-paper-data="{&quot;index&quot;:null}" fill="none" stroke="#000000" stroke-width="1" stroke-linecap="round"/><path d="M230.86128,174.91202l-1.64535,2.70279" data-paper-data="{&quot;index&quot;:null}" fill="none" stroke="#000000" stroke-width="1" stroke-linecap="round"/><path d="M230.69675,178.40977l1.48082,-1.74887" data-paper-data="{&quot;index&quot;:null}" fill="none" stroke="#000000" stroke-width="1" stroke-linecap="round"/><path d="M228.77975,176.82879l17.60414,1.54932l-6.49872,14.34859l-8.12187,-12.42971l-4.05812,-2.6311z" data-paper-data="{&quot;index&quot;:null}" fill="#ffffff" stroke="#ffffff" stroke-width="3" stroke-linecap="round"/><path d="M235.94594,185.35631v-3.82041h6.37692c0,0 0,2.87897 0,3.4477c0,0.18699 -2.76334,3.32562 -2.76334,3.32562z" fill="#5500ff" stroke="none" stroke-width="NaN" stroke-linecap="butt"/><path d="M241.01268,187.59123v10.57288l-1.90651,2.14261l-1.84434,-2.14261v-10.57288l1.96868,-2.28278z" data-paper-data="{&quot;index&quot;:null}" fill="#5500ff" stroke="none" stroke-width="0" stroke-linecap="butt"/><path d="M246.99309,174.06551v-4.28726h4.45215v4.28726z" fill="#000000" stroke="#000000" stroke-width="1" stroke-linecap="butt"/><path d="M229.92389,173.75994v-4.28726h4.45215v4.28726z" fill="#000000" stroke="#000000" stroke-width="1" stroke-linecap="butt"/><path d="M220.71946,210.81585v-59.39883h34.948v59.39883z" fill="#ffffff" stroke="#000000" stroke-width="1" stroke-linecap="butt"/><text transform="translate(230.81267,154.86347) rotate(89.89656) scale(0.57608,0.57608)" font-size="40" xml:space="preserve" fill="#000000" fill-rule="nonzero" stroke="none" stroke-width="1" stroke-linecap="butt" stroke-linejoin="miter" stroke-miterlimit="10" stroke-dasharray="" stroke-dashoffset="0" font-family="Sans Serif" font-weight="normal" text-anchor="start" style="mix-blend-mode: normal"><tspan x="0" dy="0">:D</tspan></text><path d="M220.69405,210.72765v-58.89247h34.33718v58.89247z" fill="#ffffff" stroke="#000000" stroke-width="1" stroke-linecap="butt"/><path d="M220.69405,210.72765v-31.16882h34.87069v31.16882z" fill="#ffffff" stroke="#000000" stroke-width="1" stroke-linecap="butt"/><path d="M246.00435,172.33753v-4.41657h4.58643v4.41657z" fill="#000000" stroke="#000000" stroke-width="1" stroke-linecap="butt"/><path d="M228.42033,172.25531v-4.41657h4.58643v4.41657z" fill="#000000" stroke="#000000" stroke-width="1" stroke-linecap="butt"/></g></g></svg>