<svg version="1.1" xmlns="http://www.w3.org/2000/svg" xmlns:xlink="http://www.w3.org/1999/xlink" width="57.60958" height="65.95856" viewBox="0,0,57.60958,65.95856"><g transform="translate(-191.98337,-155.77157)"><g data-paper-data="{&quot;isPaintingLayer&quot;:true}" fill-rule="nonzero" stroke-linejoin="miter" stroke-miterlimit="10" stroke-dasharray="" stroke-dashoffset="0" style="mix-blend-mode: normal"><path d="M201.77996,218.76333v-62.49176h38.86206v62.49176z" data-paper-data="{&quot;index&quot;:null}" fill="#00b420" stroke="#000000" stroke-width="1" stroke-linecap="butt"/><path d="M230.87767,174.62853v-5.07746h5.27275v5.07746z" data-paper-data="{&quot;index&quot;:null}" fill="#000000" stroke="#000000" stroke-width="1" stroke-linecap="butt"/><path d="M210.66241,174.53399v-5.07746h5.27275v5.07746z" data-paper-data="{&quot;index&quot;:null}" fill="#000000" stroke="#000000" stroke-width="1" stroke-linecap="butt"/><path d="M221.8531,162.40229l-10.50416,-2.03306" data-paper-data="{&quot;index&quot;:null}" fill="none" stroke="#000000" stroke-width="1" stroke-linecap="round"/><path d="M219.65062,159.3527l-2.03306,3.38844" data-paper-data="{&quot;index&quot;:null}" fill="none" stroke="#000000" stroke-width="1" stroke-linecap="round"/><path d="M216.26217,159.18327l-2.37191,2.88017" data-paper-data="{&quot;index&quot;:null}" fill="none" stroke="#000000" stroke-width="1" stroke-linecap="round"/><path d="M237.27052,178.83622l-7.11572,4.06613" data-paper-data="{&quot;index&quot;:null}" fill="none" stroke="#000000" stroke-width="1" stroke-linecap="round"/><path d="M234.55976,178.15853l1.35537,2.54133" data-paper-data="{&quot;index&quot;:null}" fill="none" stroke="#000000" stroke-width="1" stroke-linecap="round"/><path d="M233.88208,181.88581l-1.69422,-2.88017" data-paper-data="{&quot;index&quot;:null}" fill="none" stroke="#000000" stroke-width="1" stroke-linecap="round"/><path d="M232.35728,182.73293l-1.5248,-1.86364" data-paper-data="{&quot;index&quot;:null}" fill="none" stroke="#000000" stroke-width="1" stroke-linecap="round"/><path d="M220.78817,212.64883c15.90844,0 28.80479,2.03291 28.80479,4.54065c0,2.50773 -12.89634,4.54065 -28.80479,4.54065c-15.90844,0 -28.80479,-2.03291 -28.80479,-4.54065c0,-2.50773 12.89634,-4.54065 28.80479,-4.54065z" data-paper-data="{&quot;index&quot;:null}" fill="#8c8c8c" stroke="none" stroke-width="0" stroke-linecap="butt"/><path d="M201.77996,218.76333v-32.6129h38.86206v32.6129z" data-paper-data="{&quot;index&quot;:null}" fill="#6c6cd0" stroke="#000000" stroke-width="1" stroke-linecap="butt"/><path d="M205.57096,197.00583l3.56327,-3.56327l8.18232,5.27892l1.05578,4.48708l-5.54286,0.52789l-0.79184,0.26395l-2.50749,0.13197l-0.13197,-4.883l-4.09116,-1.4517z" fill="#00b420" stroke="#000000" stroke-width="1" stroke-linecap="round"/></g></g></svg>