<svg version="1.1" xmlns="http://www.w3.org/2000/svg" xmlns:xlink="http://www.w3.org/1999/xlink" width="104.53237" height="95.20908" viewBox="0,0,104.53237,95.20908"><g transform="translate(-187.73381,-137.88829)"><g data-paper-data="{&quot;isPaintingLayer&quot;:true}" fill-rule="nonzero" stroke-linejoin="miter" stroke-miterlimit="10" stroke-dasharray="" stroke-dashoffset="0" style="mix-blend-mode: normal"><path d="M292.06694,137.88829l0.19925,95.00891l-104.33312,0.20017l-0.19925,-95.00891z" data-paper-data="{&quot;index&quot;:null}" fill="none" stroke="none" stroke-width="0" stroke-linecap="butt"/><path d="M285.45322,184.93435l-15.97857,2.26168l-13.72117,2.7692l-24.86994,1.66757l-7.77786,-4.32463l-29.28532,9.33912l-1.27355,-20.89332l30.00631,5.80988l-0.37566,-11.5588l6.77215,1.52263l-0.69913,8.03876l13.12986,-1.26297l1.42857,-8.10893l11.8782,1.03148l0.69068,7.1804l13.61335,3.76331l14.58874,-1.4033z" data-paper-data="{&quot;index&quot;:null}" fill="#712929" stroke="#000000" stroke-width="3.5" stroke-linecap="round"/><path d="M278.12003,192.88656l-0.62161,-6.46237" data-paper-data="{&quot;index&quot;:null}" fill="none" stroke="#000000" stroke-width="3.5" stroke-linecap="round"/><path d="M223.1444,180.05758l-0.7682,7.32074l0.73788,-15.28934" data-paper-data="{&quot;index&quot;:null}" fill="none" stroke="#000000" stroke-width="3.5" stroke-linecap="round"/><path d="M256.31442,180.49037l0.09938,8.68665" data-paper-data="{&quot;index&quot;:null}" fill="none" stroke="#000000" stroke-width="3.5" stroke-linecap="round"/><path d="M266.87188,183.09826l-0.24596,5.09644" data-paper-data="{&quot;index&quot;:null}" fill="none" stroke="#000000" stroke-width="3.5" stroke-linecap="round"/></g></g></svg>