<svg version="1.1" xmlns="http://www.w3.org/2000/svg" xmlns:xlink="http://www.w3.org/1999/xlink" width="38.73611" height="72.64557" viewBox="0,0,38.73611,72.64557"><g transform="translate(-259.88597,-146.45257)"><g data-paper-data="{&quot;isPaintingLayer&quot;:true}" fill-rule="nonzero" stroke-linejoin="miter" stroke-miterlimit="10" stroke-dasharray="" stroke-dashoffset="0" style="mix-blend-mode: normal"><path d="M266.14427,162.48305c0,0 -0.99999,0.00302 -1.00301,-0.99698c-0.00302,-0.99999 0.99698,-1.00301 0.99698,-1.00301l0.76458,0.0038c1.37489,-0.15517 2.7408,-0.08252 4.11063,-0.26079c0,0 0.9919,-0.12702 1.11892,0.86488c0.12702,0.9919 -0.86488,1.11892 -0.86488,1.11892c-1.38194,0.17444 -2.75458,0.10418 -4.13782,0.26409l-0.98541,0.00909z" data-paper-data="{&quot;index&quot;:null}" fill="#e2d000" stroke="none" stroke-width="0.5" stroke-linecap="butt"/><path d="M266.09357,159.90108c0,0 0.35913,0.35696 0.31227,0.81841c0.10199,0.00686 0.2133,0.03041 0.33445,0.07542c0.93738,0.3483 0.58909,1.28568 0.58909,1.28568c-0.42419,1.10008 -0.4223,1.47588 -1.41735,2.299c-2.5167,2.08185 -7.14177,-0.83967 -5.38907,-4.00652c0.17993,-0.32509 1.90273,-1.26359 2.33592,-1.42176c0.52267,-0.19085 1.06463,-0.55045 1.61009,-0.44056c0.52608,0.106 0.83233,0.67764 1.24848,1.01647l0.37613,0.37387zM265.36484,161.6301c-0.39229,-0.02339 -0.68119,-0.31055 -0.68119,-0.31055l-0.37613,-0.37387c-0.29928,-0.55987 -1.65314,-0.13562 -2.05171,0.42601c-0.37416,0.52723 0.69266,1.6818 1.19383,1.76053c1.1048,0.17356 1.57851,-0.6163 1.9152,-1.50212z" data-paper-data="{&quot;index&quot;:null}" fill="#e2d000" stroke="#e2d000" stroke-width="0.5" stroke-linecap="butt"/><path d="M274.5015,156.58282c0.00687,2.27816 -0.68711,4.1271 -1.55005,4.1297c-0.86294,0.0026 -1.56807,-1.84211 -1.57494,-4.12027c-0.00687,-2.27816 0.68711,-4.1271 1.55005,-4.1297c0.86294,-0.0026 1.56807,1.84211 1.57494,4.12027z" data-paper-data="{&quot;index&quot;:null}" fill="#ff0000" stroke="none" stroke-width="0" stroke-linecap="butt"/><path d="M277.23188,150.07454c2.07106,-0.00625 3.75843,2.7869 3.76884,6.23866c0.01041,3.45177 -1.66007,6.25504 -3.73113,6.26129c-2.07106,0.00625 -3.75843,-2.7869 -3.76884,-6.23866c-0.01041,-3.45177 1.66007,-6.25504 3.73113,-6.26129z" data-paper-data="{&quot;index&quot;:null}" fill="#ff0000" stroke="none" stroke-width="0" stroke-linecap="butt"/><path d="M286.76252,203.52776c-0.00101,0.09446 -0.01508,0.18571 -0.04049,0.27209c0.06805,0.29412 0.11866,0.58375 0.13528,0.85012c0.0761,0.14298 0.11848,0.3065 0.11662,0.47987c-0.00037,0.03548 -0.0026,0.0705 -0.00658,0.10498c0.07893,0.53568 -0.22689,0.82276 -0.47478,0.96458c-0.08189,0.4751 -0.4985,0.83416 -0.99611,0.82884c-0.1393,-0.0015 -0.27163,-0.03139 -0.39157,-0.08414l-0.36985,-0.15254l-0.6974,-0.00747c-0.33454,0.24587 -0.65302,0.56594 -0.95647,0.38099c-0.77675,-0.47346 -0.86777,-1.54301 -0.8479,-2.47122c-0.07432,-0.00421 -0.12398,-0.00895 -0.14106,-0.01423c-2.40388,-0.74475 -2.24875,-2.5968 -1.2241,-3.94331c-0.02774,-0.44812 0.08717,-0.7977 0.29257,-1.06068c-0.29891,-1.06227 0.17259,-1.54326 0.95979,-1.74122c0.24625,-0.87457 1.16274,-0.68104 1.16274,-0.68104c0.0798,0.01722 0.15978,0.0337 0.2399,0.04942c-0.01329,-0.08056 -0.02771,-0.16116 -0.04333,-0.24182c0,0 -0.18561,-0.98263 0.79701,-1.16824c0.26024,-0.04915 0.46458,-0.01637 0.62437,0.05841c0.18344,-0.183 0.43742,-0.29501 0.71698,-0.29201c0.49152,0.00527 0.89644,0.36428 0.97537,0.83254l0.21284,1.12684l-0.32882,0.06211c0.02685,0.13331 0.04936,0.26555 0.06796,0.39695c0.24994,0.12702 0.49985,0.37971 0.49448,0.88228c-0.00095,0.08939 -0.0098,0.1707 -0.02516,0.24467c0.01403,0.06852 0.02105,0.13958 0.02027,0.21236c-0.00307,0.28624 -0.1261,0.54312 -0.32083,0.72333c0.00757,0.05592 0.01395,0.11213 0.01914,0.16848c0.86381,0.9933 0.71221,2.15308 -0.03029,2.86776c0.03969,0.10954 0.06077,0.22793 0.05944,0.35129zM282.22437,202.64363c0.07177,0.08637 0.25635,0.13167 0.49246,0.15214l0.10441,-0.21452c0,0 0.04189,-0.0816 0.12504,-0.1827c-0.04409,-0.02678 -0.079,-0.04755 -0.10291,-0.06108c-0.16612,-0.09404 -0.36451,-0.16094 -0.56945,-0.22187c-0.13908,0.18759 -0.18199,0.36863 -0.04956,0.52801z" data-paper-data="{&quot;index&quot;:null}" fill="#000000" stroke="none" stroke-width="0.5" stroke-linecap="butt"/><path d="M297.37053,207.98366l-15.3107,-0.16391l0.12232,-11.4259l15.31069,0.16391z" data-paper-data="{&quot;index&quot;:null}" fill="#ff0000" stroke="#7c8888" stroke-width="2" stroke-linecap="butt"/><path d="M284.56863,208.30368l-14.62513,-0.15657l0.34981,-32.67804l14.62514,0.15657z" data-paper-data="{&quot;index&quot;:null}" fill="#00ff2f" stroke="#7c8888" stroke-width="2" stroke-linecap="butt"/><path d="M270.04399,177.40903c0.04256,-3.97551 3.45332,-7.16215 7.61814,-7.11758c4.16485,0.04458 7.5066,3.30351 7.46404,7.27903c-0.04256,3.97551 -3.45332,7.16215 -7.61814,7.11758c-4.16485,-0.04458 -7.5066,-3.30351 -7.46404,-7.27903z" data-paper-data="{&quot;index&quot;:null}" fill="#000000" stroke="#7c8888" stroke-width="2" stroke-linecap="butt"/><path d="M295.09269,207.2736l-15.76772,-0.16879l0.10273,-9.59775l15.76773,0.16879z" data-paper-data="{&quot;index&quot;:null}" fill="#ff0000" stroke="none" stroke-width="0" stroke-linecap="butt"/><path d="M268.63007,181.39342l-4.34917,0.63907" data-paper-data="{&quot;index&quot;:null}" fill="none" stroke="none" stroke-width="0" stroke-linecap="round"/><path d="M274.17667,173.20884l-4.85369,7.50634l-3.42777,-0.03669" data-paper-data="{&quot;index&quot;:null}" fill="none" stroke="#7c8888" stroke-width="2" stroke-linecap="round"/><path d="M274.53097,206.59643l0.00387,-21.71164l-3.83176,-2.9154l3.35914,-5.26016" data-paper-data="{&quot;index&quot;:null}" fill="none" stroke="#7c8888" stroke-width="2" stroke-linecap="round"/><path d="M285.79929,200.08926l6.16753,0.29456" data-paper-data="{&quot;index&quot;:null}" fill="none" stroke="#7c8888" stroke-width="2" stroke-linecap="round"/><path d="M284.61511,203.96185l5.93657,0.52063" data-paper-data="{&quot;index&quot;:null}" fill="none" stroke="#7c8888" stroke-width="2" stroke-linecap="round"/><path d="M273.87701,197.34418c4.31472,-0.00517 7.81662,3.43244 7.82172,7.67812c0.00509,4.24569 -3.48855,7.69169 -7.80327,7.69687c-4.31472,0.00517 -7.81662,-3.43244 -7.82172,-7.67812c-0.0051,-4.24569 3.48854,-7.69169 7.80326,-7.69687z" data-paper-data="{&quot;index&quot;:null}" fill="#ff0000" stroke="#7c8888" stroke-width="2" stroke-linecap="butt"/><path d="M270.58941,218.09814l1.99445,-4.6274" data-paper-data="{&quot;index&quot;:null}" fill="none" stroke="#7c8888" stroke-width="2" stroke-linecap="round"/><path d="M264.33432,213.85563l3.3711,-3.25405" data-paper-data="{&quot;index&quot;:null}" fill="none" stroke="#7c8888" stroke-width="2" stroke-linecap="round"/><path d="M265.57441,205.60415l-4.24955,0.3801" data-paper-data="{&quot;index&quot;:null}" fill="none" stroke="#7c8888" stroke-width="2" stroke-linecap="round"/><path d="M275.16027,209.20605c-0.55228,0.00166 -1.00134,-0.4447 -1.00301,-0.99698c-0.00166,-0.55227 0.44469,-1.00134 0.99698,-1.00301c0.55228,-0.00166 1.00134,0.4447 1.00301,0.99698c0.00166,0.55227 -0.44469,1.00134 -0.99698,1.00301z" data-paper-data="{&quot;index&quot;:null}" fill="#ff1717" stroke="none" stroke-width="0.5" stroke-linecap="butt"/><path d="M277.46761,186.7771c0.39188,3.03406 -0.11244,6.00007 -0.0977,9.04722c0,0 0.00302,0.99999 -0.99698,1.00301c-0.99999,0.00302 -1.00301,-0.99698 -1.00301,-0.99698c-0.00196,-2.0569 0.22143,-4.07648 0.24317,-6.10329c-0.13736,-0.25685 -0.13816,-0.52206 -0.13816,-0.52206l-0.00113,-0.375c-0.00262,-0.86682 -0.24388,-1.45116 0.01809,-1.75524c-0.00699,-0.06084 -0.01432,-0.12172 -0.02201,-0.18262l0.02989,-0.06223l-0.03201,0.0001l-0.00302,-1c-0.00166,-0.55227 0.44469,-1.00134 0.99698,-1.00301c0.55228,-0.00166 1.00134,0.4447 1.00301,0.99698l0.00288,0.95313z" data-paper-data="{&quot;index&quot;:null}" fill="#ff1717" stroke="none" stroke-width="0.5" stroke-linecap="butt"/><path d="M281.68528,198.01c-0.23036,-0.08707 -0.4548,-0.18855 -0.67167,-0.30308c-0.02508,0.1784 -0.11218,0.37127 -0.30421,0.56446c-0.70496,0.70924 -1.4142,0.00427 -1.4142,0.00427l-0.62784,-0.67109c-0.12677,0.05872 -0.26794,0.09168 -0.41681,0.09213c-0.42495,0.00128 -0.7888,-0.2627 -0.93474,-0.63609c-0.09915,0.00831 -0.20469,0.0143 -0.31714,0.01487c0,0 -0.99999,0.00302 -1.00301,-0.99698c-0.00302,-0.99999 0.99698,-1.00301 0.99698,-1.00301c0.04484,-0.00006 0.08892,-0.00012 0.13226,-0.00016c-0.10269,-0.19643 -0.12567,-0.37582 -0.12567,-0.37582c-0.34764,-2.71454 -0.60273,-5.51756 -0.27488,-8.24728l-0.00848,-0.25095c0,0 -0.00302,-0.99999 0.99698,-1.00301c0.33279,-0.001 0.55515,0.10907 0.70375,0.2564c0.16181,-0.13583 0.32032,-0.19582 0.32032,-0.19582c0.37022,-0.13766 0.74044,-0.27532 1.11066,-0.41299l1.07073,-0.14377c0.14117,-0.16845 0.29614,-0.25763 0.29614,-0.25763c0.42046,-0.21617 0.78624,-0.58416 0.99987,-1.00592l0.91907,-0.65107c0,0 0.89307,-0.44992 1.34298,0.44316c0.24769,0.49167 0.08833,0.84903 -0.10495,1.07093c0.15102,0.21021 0.19564,0.4299 0.19564,0.4299l0.11777,1.0633c-0.8981,3.55842 -0.32844,7.78588 -0.31043,11.50846c0,0 0.00302,0.99999 -0.99698,1.00301c-0.42914,0.0013 -0.67468,-0.18213 -0.81516,-0.39197c-0.39131,0.25602 -0.87698,0.09575 -0.87698,0.09575zM282.53241,186.33594c0.02501,-0.14439 0.05181,-0.28813 0.0805,-0.43116c-0.11556,0.08699 -0.23438,0.1689 -0.35595,0.24522c0.10215,0.04645 0.19514,0.1096 0.27545,0.18595z" data-paper-data="{&quot;index&quot;:null}" fill="#ff1717" stroke="none" stroke-width="0.5" stroke-linecap="butt"/><path d="M284.99638,196.30133l0.19682,-17.62567" data-paper-data="{&quot;index&quot;:null}" fill="none" stroke="#7c8888" stroke-width="2" stroke-linecap="round"/><path d="M277.48198,170.82388c3.90049,-0.01177 7.07175,3.05672 7.08321,6.85366c0.01145,3.79695 -3.14124,6.88451 -7.04173,6.89628c-3.90049,0.01177 -7.07175,-3.05672 -7.08321,-6.85366c-0.01145,-3.79695 3.14124,-6.88451 7.04173,-6.89628z" data-paper-data="{&quot;index&quot;:null}" fill="#ff0000" stroke="#ff0000" stroke-width="2" stroke-linecap="butt"/><path d="M282.34612,187.93429c-0.55228,0.00166 -1.00134,-0.4447 -1.00301,-0.99698c-0.00166,-0.55227 0.44469,-1.00134 0.99698,-1.00301c0.55228,-0.00166 1.00134,0.4447 1.00301,0.99698c0.00166,0.55227 -0.44469,1.00134 -0.99698,1.00301z" data-paper-data="{&quot;index&quot;:null}" fill="#ff1717" stroke="none" stroke-width="0.5" stroke-linecap="butt"/><path d="M269.89108,209.29418c-0.1031,-0.20466 -0.2062,-0.4093 -0.3093,-0.61396c-0.22232,-0.13573 -0.42429,-0.38247 -0.42564,-0.83104c-0.00302,-0.99999 0.99698,-1.00301 0.99698,-1.00301l1.02109,0.5497c0.13387,0.26572 0.26772,0.53142 0.40158,0.79714c0.11884,0.10513 0.19537,0.23392 0.24464,0.35598c0.32111,0.2321 0.70282,0.39745 1.08816,0.42159c0,0 0.99265,0.12104 0.87161,1.11369c-0.12104,0.99265 -1.11369,0.8716 -1.11369,0.8716c-0.87124,-0.13526 -1.71742,-0.54899 -2.40509,-1.10077l-0.08379,-0.21031c-0.19081,-0.16059 -0.28654,-0.35063 -0.28654,-0.35063z" data-paper-data="{&quot;index&quot;:null}" fill="#ff6565" stroke="none" stroke-width="0.5" stroke-linecap="butt"/><path d="M269.06489,204.79473c0,0 0.55219,-0.83372 1.38591,-0.28153c0.83372,0.55219 0.28153,1.38591 0.28153,1.38591l-0.11318,-0.4219c0.16107,0.64061 0.3621,1.27221 0.59688,1.88962c0,0 0.35395,0.93527 -0.58132,1.28922c-0.93527,0.35396 -1.28921,-0.58132 -1.28921,-0.58132c-0.25964,-0.68908 -0.48336,-1.39302 -0.66517,-2.10659l0.38455,-1.17341z" data-paper-data="{&quot;index&quot;:null}" fill="#fffa66" stroke="none" stroke-width="0.5" stroke-linecap="butt"/><path d="M269.63827,201.81682c0,0 0.77897,-0.62705 1.40602,0.15193c0.62705,0.77898 -0.15193,1.40602 -0.15193,1.40602l-0.27966,-0.03749c-0.13138,0.35867 -0.07513,0.8284 0.15153,1.13587c0,0 0.49876,0.86674 -0.36799,1.3655c-0.86675,0.49876 -1.3655,-0.36798 -1.3655,-0.36798c-0.39811,-0.78378 -0.52635,-1.74944 -0.35978,-2.61261l0.9673,-1.04125z" data-paper-data="{&quot;index&quot;:null}" fill="#70ff66" stroke="none" stroke-width="0.5" stroke-linecap="butt"/><path d="M289.84044,186.03667l2.12876,1.24358l3.01243,4.11593l2.64045,5.11706" data-paper-data="{&quot;index&quot;:null}" fill="none" stroke="#7c8888" stroke-width="2" stroke-linecap="round"/><path d="M285.83625,184.6581l3.37855,1.17106" data-paper-data="{&quot;index&quot;:null}" fill="none" stroke="#7c8888" stroke-width="2" stroke-linecap="round"/><path d="M280.00621,199.5664l0.10426,-6.87535" data-paper-data="{&quot;index&quot;:null}" fill="none" stroke="#7c8888" stroke-width="2" stroke-linecap="round"/><path d="M276.32414,207.87042c0,0 0.70496,-0.70924 1.4142,-0.00427c0.70924,0.70497 0.00427,1.41421 0.00427,1.41421l-0.74773,0.75226c0,0 -0.70496,0.70924 -1.4142,0.00427c-0.70924,-0.70496 -0.00427,-1.4142 -0.00427,-1.4142l0.74773,-0.75226z" data-paper-data="{&quot;index&quot;:null}" fill="#000000" stroke="none" stroke-width="0.5" stroke-linecap="butt"/><path d="M277.71384,205.84722c0.10423,-0.28055 0.20847,-0.56109 0.31271,-0.84163c0.02028,-0.22388 0.151,-0.93366 0.99325,-0.9362c0.99999,-0.00302 1.00301,0.99698 1.00301,0.99698l-0.06223,0.47631c-0.12399,0.33371 -0.24799,0.66742 -0.37198,1.00113c0,0 -0.34829,0.93739 -1.28568,0.58909c-0.93738,-0.3483 -0.58909,-1.28569 -0.58909,-1.28569z" data-paper-data="{&quot;index&quot;:null}" fill="#000000" stroke="none" stroke-width="0.5" stroke-linecap="butt"/><path d="M277.06149,203.38901c-0.22044,-0.15646 -0.44091,-0.31292 -0.66136,-0.46939c-0.29612,-0.06862 -0.75969,-0.28468 -0.76174,-0.96505c-0.00302,-0.99999 0.99698,-1.00301 0.99698,-1.00301l0.7068,0.18413c0.29229,0.20745 0.58459,0.41491 0.87688,0.62236c0,0 0.81549,0.57877 0.23671,1.39426c-0.57878,0.81548 -1.39426,0.2367 -1.39426,0.2367z" data-paper-data="{&quot;index&quot;:null}" fill="#000000" stroke="none" stroke-width="0.5" stroke-linecap="butt"/><path d="M270.18987,177.59592l2.47736,-7.50751l-0.03206,-10.62495l2.88291,2.61631l4.99017,-3.26507l0.00867,2.87499l0.27527,8.37421l4.13479,3.23754l-0.0903,11.50032" data-paper-data="{&quot;index&quot;:null}" fill="none" stroke="#7c8888" stroke-width="2" stroke-linecap="round"/><path d="M270.21552,186.09587l-0.03734,-12.37494l1.61783,-2.37989l8.37157,-1.15026" data-paper-data="{&quot;index&quot;:null}" fill="none" stroke="#7c8888" stroke-width="2" stroke-linecap="round"/><path d="M274.59088,186.20768l-3.01017,-3.36593" data-paper-data="{&quot;index&quot;:null}" fill="none" stroke="#7c8888" stroke-width="2" stroke-linecap="round"/><path d="M279.2658,161.31846l-6.09857,8.76844" data-paper-data="{&quot;index&quot;:null}" fill="none" stroke="#7c8888" stroke-width="2" stroke-linecap="round"/><path d="M274.29147,169.83351l5.48112,-6.26657" data-paper-data="{&quot;index&quot;:null}" fill="none" stroke="#7c8888" stroke-width="2" stroke-linecap="round"/><path d="M279.77863,165.56694l-3.73716,4.26129" data-paper-data="{&quot;index&quot;:null}" fill="none" stroke="#7c8888" stroke-width="2" stroke-linecap="round"/><path d="M277.41684,169.94908l2.8682,-2.25866" data-paper-data="{&quot;index&quot;:null}" fill="none" stroke="#7c8888" stroke-width="2" stroke-linecap="round"/><path d="M273.78582,167.96002l-0.01848,-6.12497" data-paper-data="{&quot;index&quot;:null}" fill="none" stroke="#7c8888" stroke-width="2" stroke-linecap="round"/><path d="M274.27035,162.83354l1.01282,4.24696" data-paper-data="{&quot;index&quot;:null}" fill="none" stroke="#7c8888" stroke-width="2" stroke-linecap="round"/><path d="M277.64459,162.57336l-3.86895,2.01168" data-paper-data="{&quot;index&quot;:null}" fill="none" stroke="#7c8888" stroke-width="2" stroke-linecap="round"/><path d="M272.50792,158.71384l-1.8897,-4.86932l4.8565,-6.13968" data-paper-data="{&quot;index&quot;:null}" fill="none" stroke="#7c8888" stroke-width="2" stroke-linecap="round"/><path d="M276.22396,147.45257l5.64609,6.983l-1.7383,3.88026" data-paper-data="{&quot;index&quot;:null}" fill="none" stroke="#7c8888" stroke-width="2" stroke-linecap="round"/><path d="M278.08595,184.57212l-0.15064,-8.49958" data-paper-data="{&quot;index&quot;:null}" fill="none" stroke="#7c8888" stroke-width="2" stroke-linecap="round"/><path d="M275.60273,148.70445c1.65685,-0.00499 3.00682,2.2575 3.01526,5.05343c0.00844,2.79593 -1.32786,5.06653 -2.98471,5.07153c-1.65685,0.00499 -3.00682,-2.2575 -3.01526,-5.05343c-0.00844,-2.79593 1.32786,-5.06653 2.98471,-5.07153z" data-paper-data="{&quot;index&quot;:null}" fill="#ff0000" stroke="none" stroke-width="0" stroke-linecap="butt"/><path d="M269.55734,175.09781l-3.51092,-3.61442l5.8629,-4.01771z" data-paper-data="{&quot;index&quot;:null}" fill="#ff0000" stroke="#7c8888" stroke-width="2" stroke-linecap="round"/><path d="M281.88093,165.53791l-10.57103,0.1534" data-paper-data="{&quot;index&quot;:null}" fill="none" stroke="#e2d000" stroke-width="0.5" stroke-linecap="round"/><path d="M271.49693,162.56922l10.26331,-0.24705" data-paper-data="{&quot;index&quot;:null}" fill="none" stroke="#e2d000" stroke-width="0.5" stroke-linecap="round"/><path d="M271.21696,194.07021l2.49999,-0.00754" data-paper-data="{&quot;index&quot;:null}" fill="none" stroke="#e2d000" stroke-width="0.5" stroke-linecap="round"/><path d="M271.0799,190.07061l3.00036,0.11595" data-paper-data="{&quot;index&quot;:null}" fill="none" stroke="#e2d000" stroke-width="0.5" stroke-linecap="round"/></g></g></svg>