<svg version="1.1" xmlns="http://www.w3.org/2000/svg" xmlns:xlink="http://www.w3.org/1999/xlink" width="44.39896" height="34.36552" viewBox="0,0,44.39896,34.36552"><g transform="translate(-241.85017,-161.40311)"><g data-paper-data="{&quot;isPaintingLayer&quot;:true}" fill-rule="nonzero" stroke-linejoin="miter" stroke-miterlimit="10" stroke-dasharray="" stroke-dashoffset="0" style="mix-blend-mode: normal"><path d="M248.4188,173.05821c0.13712,0 0.26845,0.02234 0.38972,0.0632c0.80313,-0.73481 2.0939,-0.87398 3.18758,0.00041c0.06258,0.00579 0.12496,0.01277 0.18701,0.02093c0.20261,-0.19278 0.48956,-0.31307 0.80773,-0.31307c0.0809,0 0.15979,0.00778 0.23577,0.02255c0.08239,-0.01456 0.17286,-0.02255 0.27222,-0.02255c0.55862,0 0.83648,0.25261 0.97468,0.5039c0.14581,0.02 0.29252,0.04394 0.44036,0.0722l0.07294,-0.32814l1.24982,0.22489c0.51948,0.08394 0.91367,0.49267 0.91367,0.98422c0,0.27957 -0.12751,0.53234 -0.33307,0.71381c0.0812,0.16058 0.11521,0.36526 0.05748,0.62496c-0.21797,0.98058 -1.30785,0.78446 -1.30785,0.78446c-0.08946,-0.01648 -0.17887,-0.03176 -0.26824,-0.04592c0.01653,0.08028 0.03388,0.16043 0.05207,0.24041c0,0 0.20417,0.91851 -0.77074,1.15539c-0.22937,0.78504 -0.76956,1.25136 -1.94661,0.9411c-0.29473,0.20257 -0.68461,0.31374 -1.18231,0.28121c-1.50868,1.01018 -3.5689,1.14547 -4.368,-1.26624c-0.00567,-0.01713 -0.01034,-0.06684 -0.01414,-0.1412c-1.03184,0.00994 -2.21946,-0.09253 -2.73642,-0.87431c-0.20194,-0.3054 0.15757,-0.62045 0.4348,-0.95234v-0.69743l-0.16514,-0.37147c-0.0572,-0.12049 -0.08885,-0.25314 -0.08885,-0.39245c0,-0.49764 0.40401,-0.91038 0.93302,-0.98718c0.16056,-0.24637 0.48326,-0.54909 1.07768,-0.46443c0.03838,-0.0036 0.07732,-0.00546 0.11676,-0.00546c0.19269,0 0.37394,0.04412 0.53193,0.12175c0.29585,0.01947 0.61714,0.07318 0.94319,0.14437c0.0963,-0.02448 0.19789,-0.03758 0.30289,-0.03758zM249.34745,177.60559c0.17555,0.13413 0.37727,0.09316 0.58742,-0.0439c-0.06529,-0.20558 -0.13728,-0.40467 -0.23982,-0.57179c-0.01475,-0.02405 -0.03742,-0.05919 -0.06665,-0.10357c-0.11335,0.08205 -0.20453,0.12308 -0.20453,0.12308l-0.23965,0.10211c0.01994,0.23632 0.0681,0.42137 0.16324,0.49406z" data-paper-data="{&quot;index&quot;:null}" fill="#000000" stroke="none" stroke-width="0.5" stroke-linecap="butt"/><path d="M256.29287,162.40311v15.31158h-12.70012v-15.31158z" data-paper-data="{&quot;index&quot;:null}" fill="#000000" stroke="#7c8888" stroke-width="2" stroke-linecap="butt"/><path d="M279.40706,175.20086v14.62598h-36.32233v-14.62598z" data-paper-data="{&quot;index&quot;:null}" fill="#000000" stroke="#7c8888" stroke-width="2" stroke-linecap="butt"/><path d="M244.67397,188.00383l0.18879,-2.90813l13.29352,0.1259l1.80023,2.90724z" data-paper-data="{&quot;index&quot;:null}" fill="#00f52b" stroke="#00f52b" stroke-width="2" stroke-linecap="round"/><path d="M269.24699,182.51384c0,-4.16506 3.5822,-7.54152 8.00107,-7.54152c4.41886,0 8.00107,3.37645 8.00107,7.54152c0,4.16506 -3.5822,7.54152 -8.00107,7.54152c-4.41886,0 -8.00107,-3.37645 -8.00107,-7.54152z" data-paper-data="{&quot;index&quot;:null}" fill="#000000" stroke="#7c8888" stroke-width="2" stroke-linecap="butt"/><path d="M255.02286,164.68843v15.76863h-10.6681v-15.76863z" data-paper-data="{&quot;index&quot;:null}" fill="#000000" stroke="none" stroke-width="0" stroke-linecap="butt"/><path d="M272.04102,195.76864l0.762,-4.34209" data-paper-data="{&quot;index&quot;:null}" fill="none" stroke="none" stroke-width="0" stroke-linecap="round"/><path d="M273.56503,190.74096v3.42796" data-paper-data="{&quot;index&quot;:null}" fill="none" stroke="#7c8888" stroke-width="2" stroke-linecap="round"/><path d="M251.97484,167.88787l0.254,6.17033" data-paper-data="{&quot;index&quot;:null}" fill="none" stroke="#7c8888" stroke-width="2" stroke-linecap="round"/><path d="M247.91079,175.20086l-0.508,-5.9418" data-paper-data="{&quot;index&quot;:null}" fill="none" stroke="#7c8888" stroke-width="2" stroke-linecap="round"/><path d="M258.0709,169.25906l4.06403,0.45706l2.54002,1.82825l1.27001,3.19943" data-paper-data="{&quot;index&quot;:null}" fill="none" stroke="#7c8888" stroke-width="2" stroke-linecap="round"/><path d="M252.73204,185.12886l0.13893,4.75l-10.00311,0.25l0.13893,-8.125" data-paper-data="{&quot;index&quot;:null}" fill="none" stroke="#7c8888" stroke-width="2" stroke-linecap="round"/><path d="M243.97931,184.00386h14.17108l3.8901,4.875" data-paper-data="{&quot;index&quot;:null}" fill="none" stroke="#7c8888" stroke-width="2" stroke-linecap="round"/><path d="M247.59155,190.00386l0.13893,-5.5" data-paper-data="{&quot;index&quot;:null}" fill="none" stroke="#7c8888" stroke-width="2" stroke-linecap="round"/></g></g></svg>