<svg version="1.1" xmlns="http://www.w3.org/2000/svg" xmlns:xlink="http://www.w3.org/1999/xlink" width="62.67735" height="60.84905" viewBox="0,0,62.67735,60.84905"><g transform="translate(-188.01709,-169.8072)"><g data-paper-data="{&quot;isPaintingLayer&quot;:true}" fill-rule="nonzero" stroke-linecap="butt" stroke-linejoin="miter" stroke-miterlimit="10" stroke-dasharray="" stroke-dashoffset="0" style="mix-blend-mode: normal"><path d="M241.2416,194.85435c0,13.36425 -11.31537,24.19811 -25.27358,24.19811c-13.95821,0 -25.27358,-10.83386 -25.27358,-24.19811c0,-13.36425 11.31537,-24.19811 25.27358,-24.19811c13.95821,0 25.27358,10.83386 25.27358,24.19811z" fill="#ffffff" stroke="none" stroke-width="0"/><path d="M247.69444,200.23173c0,15.14615 -12.68766,27.42453 -28.33868,27.42453c-15.65103,0 -28.33868,-12.27838 -28.33868,-27.42453c0,-15.14615 12.68766,-27.42453 28.33868,-27.42453c15.65103,0 28.33868,12.27838 28.33868,27.42453z" fill="#ffffff" stroke="#000000" stroke-width="6"/><path d="M205.08322,219.49611v-25.77685h29.45924v25.77685z" fill="#ffffff" stroke="#000000" stroke-width="6"/><path d="M213.81189,218.26865v-10.36529h12.00191v10.36529z" fill="none" stroke="#000000" stroke-width="6"/><path d="M202.90105,192.62819l6.08064,-5.5914l11.02117,-10.10059l11.4012,9.73986l5.32056,5.95213z" fill="none" stroke="#000000" stroke-width="6"/></g></g></svg>