<svg version="1.1" xmlns="http://www.w3.org/2000/svg" xmlns:xlink="http://www.w3.org/1999/xlink" width="72.62823" height="38.63119" viewBox="0,0,72.62823,38.63119"><g transform="translate(-242.55403,-163.06823)"><g data-paper-data="{&quot;isPaintingLayer&quot;:true}" fill-rule="nonzero" stroke-linejoin="miter" stroke-miterlimit="10" stroke-dasharray="" stroke-dashoffset="0" style="mix-blend-mode: normal"><path d="M299.18226,195.44323l0.00612,-0.98543c0.15574,-1.38372 0.08133,-2.75614 0.2516,-4.1386c0,0 0.12403,-0.99228 1.11631,-0.86825c0.99228,0.12403 0.86825,1.11631 0.86825,1.11631c-0.17414,1.37036 -0.09737,2.73605 -0.24839,4.1114l0.00611,0.76457c0,0 0,1 -1,1c-1,0 -1,-1 -1,-1z" data-paper-data="{&quot;index&quot;:null}" fill="#e2d000" stroke="none" stroke-width="0.5" stroke-linecap="butt"/><path d="M301.76437,195.48612l0.375,0.375c0.34008,0.41513 0.91265,0.71965 1.02023,1.24541c0.11154,0.54513 -0.24643,1.08817 -0.4357,1.61141c-0.15686,0.43367 -1.09016,2.15929 -1.41471,2.3402c-3.16155,1.76225 -6.09701,-2.85399 -4.02276,-5.37696c0.82011,-0.99753 1.19592,-0.99677 2.29471,-1.42428c0,0 0.93632,-0.35112 1.28745,0.58521c0.04538,0.12101 0.06926,0.23225 0.07643,0.33422c0.46131,-0.04825 0.81935,0.3098 0.81935,0.3098zM298.54123,198.1398c0.08024,0.50093 1.23803,1.56426 1.76412,1.18851c0.56042,-0.40026 0.98059,-1.7554 0.41982,-2.05299l-0.375,-0.375c0,0 -0.28803,-0.28803 -0.3126,-0.68025c-0.8848,0.33936 -1.67323,0.81545 -1.49633,1.91972z" data-paper-data="{&quot;index&quot;:null}" fill="#e2d000" stroke="#e2d000" stroke-width="0.5" stroke-linecap="butt"/><path d="M309.18226,188.63073c0,0.86294 -1.84683,1.5625 -4.125,1.5625c-2.27817,0 -4.125,-0.69956 -4.125,-1.5625c0,-0.86294 1.84683,-1.5625 4.125,-1.5625c2.27817,0 4.125,0.69956 4.125,1.5625z" data-paper-data="{&quot;index&quot;:null}" fill="#ff0000" stroke="none" stroke-width="0" stroke-linecap="butt"/><path d="M305.30726,188.06823c-3.45178,0 -6.25,-1.67893 -6.25,-3.75c0,-2.07107 2.79822,-3.75 6.25,-3.75c3.45178,0 6.25,1.67893 6.25,3.75c0,2.07107 -2.79822,3.75 -6.25,3.75z" data-paper-data="{&quot;index&quot;:null}" fill="#ff0000" stroke="none" stroke-width="0" stroke-linecap="butt"/><path d="M258.07554,174.94888c0.12336,-0.0017 0.24181,0.01902 0.35147,0.05838c0.71244,-0.74465 1.87175,-0.89975 2.86766,-0.03894c0.05637,0.00502 0.11259,0.01123 0.16854,0.01863c0.17962,-0.19527 0.43613,-0.31908 0.72236,-0.32301c0.07278,-0.001 0.14386,0.00581 0.21242,0.01963c0.07392,-0.01558 0.15521,-0.02468 0.24459,-0.0259c0.50255,-0.00689 0.75599,0.24226 0.88377,0.49182c0.13146,0.0182 0.26376,0.04031 0.39715,0.06676l0.06112,-0.32901l1.12748,0.20944c0.4685,0.07752 0.82873,0.48135 0.83548,0.97285c0.00384,0.27955 -0.1074,0.53387 -0.28985,0.71786c0.07526,0.15956 0.10866,0.3638 0.06029,0.62419c-0.18264,0.98318 -1.16583,0.80053 -1.16583,0.80053c-0.08071,-0.01538 -0.16135,-0.02955 -0.24195,-0.0426c0.01596,0.08007 0.03268,0.16 0.05014,0.23975c0,0 0.19629,0.9159 -0.67753,1.16479c-0.19558,0.78779 -0.67515,1.26074 -1.73832,0.96504c-0.26236,0.20619 -0.61159,0.32216 -1.05979,0.29577c-1.34341,1.02871 -3.19499,1.18942 -3.94699,-1.2122c-0.00533,-0.01706 -0.01022,-0.06671 -0.01466,-0.14102c-0.92815,0.02267 -1.99797,-0.06512 -2.47377,-0.84044c-0.18586,-0.30289 0.13324,-0.62233 0.3781,-0.95762l-0.00957,-0.69737l-0.15366,-0.36939c-0.05311,-0.11978 -0.0834,-0.25202 -0.08532,-0.39131c-0.00682,-0.49759 0.35098,-0.91528 0.82583,-0.99861c0.14107,-0.24832 0.42723,-0.555 0.96314,-0.47769c0.03447,-0.00408 0.06948,-0.00642 0.10496,-0.0069c0.17336,-0.00238 0.33701,0.0395 0.48022,0.11517c0.26642,0.01582 0.5562,0.06555 0.85052,0.13271c0.0863,-0.02567 0.17751,-0.04002 0.27197,-0.04131zM258.97337,179.48437c0.15978,0.13195 0.34069,0.08849 0.52786,-0.05115c-0.06155,-0.20476 -0.12905,-0.40294 -0.22359,-0.56878c-0.0136,-0.02387 -0.03448,-0.05872 -0.06139,-0.10273c-0.10085,0.08345 -0.18232,0.12559 -0.18232,0.12559l-0.2142,0.10506c0.02118,0.23605 0.06704,0.42049 0.15363,0.492z" data-paper-data="{&quot;index&quot;:null}" fill="#000000" stroke="none" stroke-width="0.5" stroke-linecap="butt"/><path d="M265.01313,164.1976l0.2101,15.31013l-11.42548,0.15679l-0.2101,-15.31014z" data-paper-data="{&quot;index&quot;:null}" fill="#ff0000" stroke="#7c8888" stroke-width="2" stroke-linecap="butt"/><path d="M285.98311,176.70878l0.20069,14.6246l-32.67684,0.4484l-0.20069,-14.62459z" data-paper-data="{&quot;index&quot;:null}" fill="#00ff2f" stroke="#7c8888" stroke-width="2" stroke-linecap="butt"/><path d="M276.94308,184.14651c-0.05714,-4.16467 3.1192,-7.58503 7.09456,-7.63958c3.97537,-0.05455 7.24437,3.27735 7.30152,7.44204c0.05714,4.16467 -3.1192,7.58503 -7.09456,7.63958c-3.97537,0.05455 -7.24437,-3.27735 -7.30152,-7.44204z" data-paper-data="{&quot;index&quot;:null}" fill="#000000" stroke="#7c8888" stroke-width="2" stroke-linecap="butt"/><path d="M263.90199,166.49837l0.21636,15.76715l-9.5974,0.13169l-0.21636,-15.76714z" data-paper-data="{&quot;index&quot;:null}" fill="#ff0000" stroke="none" stroke-width="0" stroke-linecap="butt"/><path d="M279.63855,197.36556l0.62595,-4.35108" data-paper-data="{&quot;index&quot;:null}" fill="none" stroke="none" stroke-width="0" stroke-linecap="round"/><path d="M280.98768,195.74718l-0.04703,-3.42764l7.49166,-4.87632" data-paper-data="{&quot;index&quot;:null}" fill="none" stroke="#7c8888" stroke-width="2" stroke-linecap="round"/><path d="M284.93226,187.56823l-5.25,3.375l-2.92695,-3.82295l-21.71153,0.06938" data-paper-data="{&quot;index&quot;:null}" fill="none" stroke="#7c8888" stroke-width="2" stroke-linecap="round"/><path d="M261.20376,169.73514l0.31317,6.16661" data-paper-data="{&quot;index&quot;:null}" fill="none" stroke="#7c8888" stroke-width="2" stroke-linecap="round"/><path d="M257.1094,171.16264l0.53854,5.93497" data-paper-data="{&quot;index&quot;:null}" fill="none" stroke="#7c8888" stroke-width="2" stroke-linecap="round"/><path d="M264.29796,187.8157c0.00784,4.31472 -3.42761,7.81874 -7.67329,7.82645c-4.24568,0.00771 -7.69384,-3.4838 -7.70168,-7.79852c-0.00784,-4.31472 3.42761,-7.81874 7.67329,-7.82646c4.24568,-0.00771 7.69384,3.4838 7.70168,7.79852z" data-paper-data="{&quot;index&quot;:null}" fill="#ff0000" stroke="#7c8888" stroke-width="2" stroke-linecap="butt"/><path d="M243.55404,191.1659l4.62136,-2.0084" data-paper-data="{&quot;index&quot;:null}" fill="none" stroke="#7c8888" stroke-width="2" stroke-linecap="round"/><path d="M247.8154,197.40816l3.24386,-3.3809" data-paper-data="{&quot;index&quot;:null}" fill="none" stroke="#7c8888" stroke-width="2" stroke-linecap="round"/><path d="M255.69582,200.39386l0.36728,-4.25068" data-paper-data="{&quot;index&quot;:null}" fill="none" stroke="#7c8888" stroke-width="2" stroke-linecap="round"/><path d="M253.43228,185.56823c0.55228,0 1,0.44771 1,1c0,0.55229 -0.44772,1 -1,1c-0.55228,0 -1,-0.44771 -1,-1c0,-0.55229 0.44772,-1 1,-1z" data-paper-data="{&quot;index&quot;:null}" fill="#ff1717" stroke="none" stroke-width="0.5" stroke-linecap="butt"/><path d="M274.85417,184.19323h0.95313c0.55228,0 1,0.44771 1,1c0,0.55229 -0.44772,1 -1,1h-1v-0.03201l-0.06214,0.03008c-0.06092,-0.00751 -0.12182,-0.01465 -0.18269,-0.02146c-0.30329,0.26289 -0.88835,0.02339 -1.75518,0.02339h-0.375c0,0 -0.26521,0 -0.52247,-0.13658c-2.02674,0.02785 -4.04563,0.25734 -6.10253,0.26158c0,0 -1,0 -1,-1c0,-1 1,-1 1,-1c3.04718,0.00555 6.01166,-0.50772 9.04688,-0.125z" data-paper-data="{&quot;index&quot;:null}" fill="#ff1717" stroke="none" stroke-width="0.5" stroke-linecap="butt"/><path d="M263.70169,179.1322c-0.21026,-0.13985 -0.39443,-0.38483 -0.39443,-0.81397c0,-1 1,-1 1,-1c3.72262,0.00678 7.95178,0.56368 11.50747,-0.34515l1.06365,0.11456c0,0 0.21982,0.04396 0.43049,0.19434c0.22132,-0.19395 0.57819,-0.35439 1.07061,-0.10818c0.89443,0.44721 0.44721,1.34164 0.44721,1.34164l-0.64829,0.92103c-0.42111,0.2149 -0.788,0.58179 -1.0029,1.0029c0,0 -0.08871,0.15524 -0.25674,0.29692l-0.14054,1.07116c-0.13655,0.37063 -0.27309,0.74127 -0.40964,1.1119c0,0 -0.05951,0.15869 -0.19485,0.32091c0.14778,0.14815 0.25852,0.37018 0.25852,0.70297c0,1 -1,1 -1,1l-0.25097,-0.00772c-2.72872,0.33608 -5.5325,0.08945 -8.24807,-0.25c0,0 -0.17946,-0.02244 -0.3762,-0.12454c0.00009,0.04334 0.00016,0.08742 0.00024,0.13226c0,0 0,1 -1,1c-1,0 -1,-1 -1,-1c0.00023,-0.11245 0.0059,-0.21801 0.01391,-0.31718c-0.37383,-0.14481 -0.63891,-0.50786 -0.63891,-0.93282c0,-0.14887 0.03253,-0.29014 0.09087,-0.41709l-0.67298,-0.62581c0,0 -0.70711,-0.70711 0,-1.41421c0.19261,-0.19261 0.38522,-0.28029 0.56354,-0.30591c-0.11518,-0.21652 -0.21734,-0.44066 -0.30511,-0.67075c0,0 -0.16173,-0.48518 0.0931,-0.87726zM275.28004,179.12712c0.07659,0.08008 0.14002,0.17288 0.18678,0.27489c0.07595,-0.1218 0.1575,-0.24087 0.24414,-0.35669c-0.14294,0.02912 -0.2866,0.05635 -0.43092,0.0818z" data-paper-data="{&quot;index&quot;:null}" fill="#ff1717" stroke="none" stroke-width="0.5" stroke-linecap="butt"/><path d="M265.30726,176.69323l17.625,-0.25" data-paper-data="{&quot;index&quot;:null}" fill="none" stroke="#7c8888" stroke-width="2" stroke-linecap="round"/><path d="M283.93226,191.19323c-3.79696,0 -6.875,-3.16199 -6.875,-7.0625c0,-3.90051 3.07804,-7.0625 6.875,-7.0625c3.79696,0 6.875,3.16199 6.875,7.0625c0,3.90051 -3.07804,7.0625 -6.875,7.0625z" data-paper-data="{&quot;index&quot;:null}" fill="#ff0000" stroke="#ff0000" stroke-width="2" stroke-linecap="butt"/><path d="M274.68226,178.31823c0.55228,0 1,0.44771 1,1c0,0.55229 -0.44772,1 -1,1c-0.55228,0 -1,-0.44771 -1,-1c0,-0.55229 0.44772,-1 1,-1z" data-paper-data="{&quot;index&quot;:null}" fill="#ff1717" stroke="none" stroke-width="0.5" stroke-linecap="butt"/><path d="M252.36008,191.83765c0,0 -0.19033,-0.09516 -0.35149,-0.28548l-0.21056,-0.08316c-0.55385,-0.686 -0.97013,-1.53093 -1.10802,-2.40176c0,0 -0.12404,-0.99228 0.86824,-1.11631c0.99228,-0.12403 1.11631,0.86825 1.11631,0.86825c0.0253,0.38527 0.1918,0.76647 0.42487,1.08688c0.12221,0.0489 0.25123,0.12504 0.35672,0.24356c0.26612,0.13306 0.53223,0.26611 0.79835,0.39917l0.55278,1.01943c0,0 0,1 -1,1c-0.44857,0 -0.69592,-0.20122 -0.83232,-0.42313c-0.20497,-0.10248 -0.40992,-0.20496 -0.61489,-0.30745z" data-paper-data="{&quot;index&quot;:null}" fill="#ff6565" stroke="none" stroke-width="0.5" stroke-linecap="butt"/><path d="M256.86197,192.65028l-1.17224,0.38809c-0.71412,-0.17966 -1.41873,-0.40125 -2.10859,-0.65881c0,0 -0.93634,-0.35112 -0.58521,-1.28745c0.35113,-0.93633 1.28746,-0.58521 1.28746,-0.58521c0.61812,0.23292 1.25032,0.43204 1.89141,0.59118l-0.42224,-0.11191c0,0 0.83205,-0.5547 1.38675,0.27735c0.5547,0.83205 -0.27735,1.38675 -0.27735,1.38675z" data-paper-data="{&quot;index&quot;:null}" fill="#fffa66" stroke="none" stroke-width="0.5" stroke-linecap="butt"/><path d="M259.83815,192.06792l-1.03833,0.97044c-0.86266,0.16917 -1.82871,0.04385 -2.61368,-0.3519c0,0 -0.86824,-0.49613 -0.3721,-1.36438c0.49614,-0.86825 1.36438,-0.37211 1.36438,-0.37211c0.30815,0.22573 0.77805,0.28056 1.13632,0.1481l-0.03833,-0.27955c0,0 0.62469,-0.78087 1.40556,-0.15617c0.78087,0.6247 0.15617,1.40556 0.15617,1.40556z" data-paper-data="{&quot;index&quot;:null}" fill="#70ff66" stroke="none" stroke-width="0.5" stroke-linecap="butt"/><path d="M265.05726,164.06823l5.125,2.625l4.125,3l1.25,2.125" data-paper-data="{&quot;index&quot;:null}" fill="none" stroke="#7c8888" stroke-width="2" stroke-linecap="round"/><path d="M275.76667,172.44323l1.18125,3.375" data-paper-data="{&quot;index&quot;:null}" fill="none" stroke="#7c8888" stroke-width="2" stroke-linecap="round"/><path d="M262.05726,181.69323l6.875,-0.125" data-paper-data="{&quot;index&quot;:null}" fill="none" stroke="#7c8888" stroke-width="2" stroke-linecap="round"/><path d="M253.76439,185.40033l-0.75,0.75c0,0 -0.70711,0.70711 -1.41421,0c-0.70711,-0.70711 0,-1.41421 0,-1.41421l0.75,-0.75c0,0 0.70711,-0.70711 1.41422,0c0.70711,0.70711 0,1.41421 0,1.41421z" data-paper-data="{&quot;index&quot;:null}" fill="#000000" stroke="none" stroke-width="0.5" stroke-linecap="butt"/><path d="M255.78342,184.00455c0,0 -0.93633,0.35112 -1.28746,-0.58521c-0.35113,-0.93633 0.58521,-1.28745 0.58521,-1.28745c0.33333,-0.125 0.66667,-0.25 1,-0.375l0.47612,-0.06367c0,0 1,0 1,1c0,0.84225 -0.70938,0.97511 -0.9332,0.99607c-0.28022,0.10509 -0.56045,0.21017 -0.84068,0.31525z" data-paper-data="{&quot;index&quot;:null}" fill="#000000" stroke="none" stroke-width="0.5" stroke-linecap="butt"/><path d="M258.24357,184.64946c0,0 -0.58124,-0.81373 0.23249,-1.39497c0.81374,-0.58124 1.39497,0.2325 1.39497,0.2325c0.20833,0.29166 0.41667,0.58334 0.625,0.875l0.18626,0.70624c0,0 0,1 -1,1c-0.68037,0 -0.89783,-0.46291 -0.96734,-0.75882c-0.15713,-0.21998 -0.31426,-0.43997 -0.47138,-0.65994z" data-paper-data="{&quot;index&quot;:null}" fill="#000000" stroke="none" stroke-width="0.5" stroke-linecap="butt"/><path d="M276.80726,176.81823l11.5,-0.125l3.25,4.125l8.375,0.25h2.875l-3.25,5l2.625,2.875h-10.625l-7.5,2.5" data-paper-data="{&quot;index&quot;:null}" fill="none" stroke="#7c8888" stroke-width="2" stroke-linecap="round"/><path d="M291.43226,181.44323l-1.125,8.375l-2.375,1.625h-12.375" data-paper-data="{&quot;index&quot;:null}" fill="none" stroke="#7c8888" stroke-width="2" stroke-linecap="round"/><path d="M275.43226,187.06823l3.375,3" data-paper-data="{&quot;index&quot;:null}" fill="none" stroke="#7c8888" stroke-width="2" stroke-linecap="round"/><path d="M291.55726,188.44323l8.75,-6.125" data-paper-data="{&quot;index&quot;:null}" fill="none" stroke="#7c8888" stroke-width="2" stroke-linecap="round"/><path d="M298.05726,181.81823l-6.25,5.5" data-paper-data="{&quot;index&quot;:null}" fill="none" stroke="#7c8888" stroke-width="2" stroke-linecap="round"/><path d="M296.05726,181.81823l-4.25,3.75" data-paper-data="{&quot;index&quot;:null}" fill="none" stroke="#7c8888" stroke-width="2" stroke-linecap="round"/><path d="M293.93226,181.31823l-2.25,2.875" data-paper-data="{&quot;index&quot;:null}" fill="none" stroke="#7c8888" stroke-width="2" stroke-linecap="round"/><path d="M293.68226,187.81823h6.125" data-paper-data="{&quot;index&quot;:null}" fill="none" stroke="#7c8888" stroke-width="2" stroke-linecap="round"/><path d="M294.55726,186.31823l4.25,1" data-paper-data="{&quot;index&quot;:null}" fill="none" stroke="#7c8888" stroke-width="2" stroke-linecap="round"/><path d="M297.05726,187.81823l2,-3.875" data-paper-data="{&quot;index&quot;:null}" fill="none" stroke="#7c8888" stroke-width="2" stroke-linecap="round"/><path d="M313.93226,186.06823l-6.125,4.875l-4.875,-1.875" data-paper-data="{&quot;index&quot;:null}" fill="none" stroke="#7c8888" stroke-width="2" stroke-linecap="round"/><path d="M303.30726,181.44323l3.875,-1.75l7,5.625" data-paper-data="{&quot;index&quot;:null}" fill="none" stroke="#7c8888" stroke-width="2" stroke-linecap="round"/><path d="M277.05726,183.56823l8.5,0.125" data-paper-data="{&quot;index&quot;:null}" fill="none" stroke="#7c8888" stroke-width="2" stroke-linecap="round"/><path d="M307.86976,188.94323c-2.79594,0 -5.0625,-1.34314 -5.0625,-3c0,-1.65686 2.26656,-3 5.0625,-3c2.79594,0 5.0625,1.34314 5.0625,3c0,1.65686 -2.26656,3 -5.0625,3z" data-paper-data="{&quot;index&quot;:null}" fill="#ff0000" stroke="none" stroke-width="0" stroke-linecap="butt"/><path d="M294.18226,189.69323l-4,5.875l-3.625,-3.5z" data-paper-data="{&quot;index&quot;:null}" fill="#ff0000" stroke="#7c8888" stroke-width="2" stroke-linecap="round"/><path d="M295.95845,190.28729l0.12151,-10.57144" fill="none" stroke="#e2d000" stroke-width="0.5" stroke-linecap="round"/><path d="M299.29604,179.82684l-0.21608,10.26401" fill="none" stroke="#e2d000" stroke-width="0.5" stroke-linecap="round"/><path d="M267.57996,187.96585v2.5" fill="none" stroke="#e2d000" stroke-width="0.5" stroke-linecap="round"/><path d="M271.57996,190.59085l-0.125,-3" fill="none" stroke="#e2d000" stroke-width="0.5" stroke-linecap="round"/></g></g></svg>