<svg version="1.1" xmlns="http://www.w3.org/2000/svg" xmlns:xlink="http://www.w3.org/1999/xlink" width="104.53237" height="95.20908" viewBox="0,0,104.53237,95.20908"><g transform="translate(-187.40048,-127.2288)"><g data-paper-data="{&quot;isPaintingLayer&quot;:true}" fill-rule="nonzero" stroke-linejoin="miter" stroke-miterlimit="10" stroke-dasharray="" stroke-dashoffset="0" style="mix-blend-mode: normal"><path d="M187.40048,222.23771l0.19925,-95.00891l104.33312,0.20017l-0.19925,95.00891z" data-paper-data="{&quot;index&quot;:null}" fill="none" stroke="none" stroke-width="0" stroke-linecap="butt"/><path d="M283.24654,179.55974l-14.58874,-1.4033l-13.61335,3.76331l-0.69068,7.1804l-11.8782,1.03148l-1.42857,-8.10893l-13.12986,-1.26297l0.69913,8.03876l-6.77215,1.52263l0.37566,-11.5588l-30.00631,5.80988l1.27355,-20.89332l29.28532,9.33912l7.77786,-4.32463l24.86994,1.66757l13.72117,2.7692l15.97857,2.26168z" data-paper-data="{&quot;index&quot;:null}" fill="#712929" stroke="#000000" stroke-width="3.5" stroke-linecap="round"/><path d="M277.16509,173.90198l0.62161,-6.46237" data-paper-data="{&quot;index&quot;:null}" fill="none" stroke="#000000" stroke-width="3.5" stroke-linecap="round"/><path d="M222.78074,188.23719l-0.73788,-15.28934l0.7682,7.32074" data-paper-data="{&quot;index&quot;:null}" fill="none" stroke="#000000" stroke-width="3.5" stroke-linecap="round"/><path d="M255.98108,179.8358l0.09938,-8.68665" data-paper-data="{&quot;index&quot;:null}" fill="none" stroke="#000000" stroke-width="3.5" stroke-linecap="round"/><path d="M266.29258,172.13147l0.24596,5.09644" data-paper-data="{&quot;index&quot;:null}" fill="none" stroke="#000000" stroke-width="3.5" stroke-linecap="round"/></g></g></svg>