<svg version="1.1" xmlns="http://www.w3.org/2000/svg" xmlns:xlink="http://www.w3.org/1999/xlink" width="49.78224" height="64.74519" viewBox="0,0,49.78224,64.74519"><g transform="translate(-211.99842,-134.83868)"><g data-paper-data="{&quot;isPaintingLayer&quot;:true}" fill-rule="nonzero" stroke-linejoin="miter" stroke-miterlimit="10" stroke-dasharray="" stroke-dashoffset="0" style="mix-blend-mode: normal"><path d="M237.45872,191.91587c13.43263,0 24.32193,1.71654 24.32193,3.834c0,2.11746 -10.8893,3.834 -24.32193,3.834c-13.43263,0 -24.32193,-1.71654 -24.32193,-3.834c0,-2.11746 10.8893,-3.834 24.32193,-3.834z" data-paper-data="{&quot;index&quot;:null}" fill="#494949" stroke="none" stroke-width="0" stroke-linecap="butt"/><path d="M218.34591,196.10656v-39.58391c2.60987,0.57832 5.55245,-0.31688 8.08339,-0.34369c1.30681,-0.01383 2.61363,-0.02457 3.92046,-0.03271c3.0627,0.56591 8.03479,0.33636 12.72204,-0.01502c0.78772,0.00196 1.57544,0.00426 2.36315,0.00678c2.57096,2.11583 5.45282,4.11705 8.46541,5.71266c0.37894,0.78213 0.91738,1.43194 1.64708,1.88499v32.37087z" data-paper-data="{&quot;index&quot;:null}" fill="#00b420" stroke="#000000" stroke-width="1" stroke-linecap="butt"/><path d="M250.85403,160.07751l0.1685,0.30971" data-paper-data="{&quot;index&quot;:null}" fill="none" stroke="#000000" stroke-width="1" stroke-linecap="round"/><path d="M247.45453,158.79732l1.62183,2.70279" data-paper-data="{&quot;index&quot;:null}" fill="none" stroke="#000000" stroke-width="1" stroke-linecap="round"/><path d="M247.61671,162.29508l-1.45965,-1.74887" data-paper-data="{&quot;index&quot;:null}" fill="none" stroke="#000000" stroke-width="1" stroke-linecap="round"/><path d="M218.34591,196.10656v-30.60445h37.20155v30.60445z" data-paper-data="{&quot;index&quot;:null}" fill="#6c6cd0" stroke="#000000" stroke-width="1" stroke-linecap="butt"/><path d="M239.91433,183.11972l1.89502,-4.08691l8.33804,-1.60999l-5.17969,3.71536l2.274,1.36231l-3.41102,2.22921z" fill="#00b420" stroke="#000000" stroke-width="1" stroke-linecap="round"/><path d="M221.09056,189.68351l5.17969,-3.46767l3.28468,-0.24769l-0.379,-3.46767l7.0747,3.5915l1.13701,3.71536l-5.43236,-1.73384l-2.52668,1.85768z" fill="#00b420" stroke="#000000" stroke-width="1" stroke-linecap="round"/><path d="M218.69024,195.75194v-30.71366h36.1315v30.71366z" fill="#000000" stroke="#000000" stroke-width="2" stroke-linecap="butt"/><path d="M250.34029,159.74733l-4.83196,2.70673l-9.67061,12.787l-7.73795,-14.76104l20.96106,-1.59385" fill="none" stroke="#ffffff" stroke-width="3" stroke-linecap="round"/><path d="M245.03963,158.13399c1.32172,0 2.39318,1.05035 2.39318,2.34604c0,1.19673 -0.91404,2.18415 -2.09508,2.32801c0.00247,0.04374 0.00373,0.0878 0.00373,0.13216c0,1.29568 -1.07146,2.34604 -2.39318,2.34604c-0.38864,0 -0.75562,-0.09082 -1.08011,-0.25197c-1.31057,2.49968 -3.1044,4.73096 -3.45596,7.48831l0.02783,0.0533c0,0 0,2.34604 -2.39318,2.34604c-2.39318,0 -2.39318,-2.34604 -2.39318,-2.34604l0.02783,-0.76676c0.06886,-0.38946 0.15342,-0.76455 0.2513,-1.12788c-0.01447,-0.05726 -0.02677,-0.11537 -0.03684,-0.1742l-0.33147,-1.73303c-1.50326,-0.5534 -2.7735,-1.82892 -3.63573,-3.15245c-4.50112,-6.90936 6.15688,-8.6949 10.50991,-8.71764l1.41698,0.27507c0,0 1.31162,0.32144 1.71672,1.44754c0.40521,-0.30871 0.91434,-0.49252 1.46726,-0.49252z" fill="#ffffff" stroke="none" stroke-width="0.5" stroke-linecap="butt"/><path d="M227.03159,164.95049l-6.87481,-0.92957l33.89988,1.62675l-35.08519,-0.69718" fill="none" stroke="#000000" stroke-width="2" stroke-linecap="round"/><path d="M235.9527,172.88c0,0 -2.72384,-3.13863 -2.72384,-3.32562c0,-0.56873 0,-3.4477 0,-3.4477h6.28577v3.82041z" fill="#5500ff" stroke="none" stroke-width="NaN" stroke-linecap="butt"/><path d="M236.27701,170.33621l1.94054,2.28278v10.57288l-1.81798,2.14261l-1.87926,-2.14261v-10.57288z" data-paper-data="{&quot;index&quot;:null}" fill="#5500ff" stroke="none" stroke-width="0" stroke-linecap="butt"/><path d="M218.13069,165.35495v-29.37648h37.59514v29.37648z" fill="#ffddb2" stroke="#000000" stroke-width="1" stroke-linecap="butt"/><path d="M226.36356,152.96873v-5.05134h5.24562v5.05134z" fill="#000000" stroke="#000000" stroke-width="1" stroke-linecap="butt"/><path d="M246.19696,152.96873v-5.05134h5.24562v5.05134z" fill="#000000" stroke="#000000" stroke-width="1" stroke-linecap="butt"/><path d="M212.49842,144.76446v-5.49837h48.11072v5.49837z" fill="#000000" stroke="#000000" stroke-width="1" stroke-linecap="butt"/><path d="M217.21131,141.8189v-6.48022h38.68495v6.48022z" fill="#000000" stroke="#000000" stroke-width="1" stroke-linecap="butt"/></g></g></svg>