<svg version="1.1" xmlns="http://www.w3.org/2000/svg" xmlns:xlink="http://www.w3.org/1999/xlink" width="58.03051" height="66.0209" viewBox="0,0,58.03051,66.0209"><g transform="translate(-191.56247,-155.77157)"><g data-paper-data="{&quot;isPaintingLayer&quot;:true}" fill-rule="nonzero" stroke-linejoin="miter" stroke-miterlimit="10" stroke-dasharray="" stroke-dashoffset="0" style="mix-blend-mode: normal"><path d="M201.77997,218.76333v-62.49176h38.86206v62.49176z" data-paper-data="{&quot;index&quot;:null}" fill="#00b420" stroke="#000000" stroke-width="1" stroke-linecap="butt"/><path d="M230.87769,174.62853v-5.07746h5.27275v5.07746z" data-paper-data="{&quot;index&quot;:null}" fill="#000000" stroke="#000000" stroke-width="1" stroke-linecap="butt"/><path d="M210.66243,174.53399v-5.07746h5.27275v5.07746z" data-paper-data="{&quot;index&quot;:null}" fill="#000000" stroke="#000000" stroke-width="1" stroke-linecap="butt"/><path d="M221.85312,162.40229l-10.50416,-2.03306" data-paper-data="{&quot;index&quot;:null}" fill="none" stroke="#000000" stroke-width="1" stroke-linecap="round"/><path d="M219.65064,159.3527l-2.03306,3.38844" data-paper-data="{&quot;index&quot;:null}" fill="none" stroke="#000000" stroke-width="1" stroke-linecap="round"/><path d="M216.26219,159.18327l-2.37191,2.88017" data-paper-data="{&quot;index&quot;:null}" fill="none" stroke="#000000" stroke-width="1" stroke-linecap="round"/><path d="M237.27054,178.83622l-7.11572,4.06613" data-paper-data="{&quot;index&quot;:null}" fill="none" stroke="#000000" stroke-width="1" stroke-linecap="round"/><path d="M234.55977,178.15853l1.35537,2.54133" data-paper-data="{&quot;index&quot;:null}" fill="none" stroke="#000000" stroke-width="1" stroke-linecap="round"/><path d="M233.8821,181.88581l-1.69422,-2.88017" data-paper-data="{&quot;index&quot;:null}" fill="none" stroke="#000000" stroke-width="1" stroke-linecap="round"/><path d="M232.3573,182.73293l-1.5248,-1.86364" data-paper-data="{&quot;index&quot;:null}" fill="none" stroke="#000000" stroke-width="1" stroke-linecap="round"/><path d="M220.78819,212.64883c15.90844,0 28.80479,2.03291 28.80479,4.54065c0,2.50773 -12.89634,4.54065 -28.80479,4.54065c-15.90844,0 -28.80479,-2.03291 -28.80479,-4.54065c0,-2.50773 12.89634,-4.54065 28.80479,-4.54065z" data-paper-data="{&quot;index&quot;:null}" fill="#8c8c8c" stroke="none" stroke-width="0" stroke-linecap="butt"/><path d="M201.77997,218.76333v-32.6129h38.86206v32.6129z" data-paper-data="{&quot;index&quot;:null}" fill="#6c6cd0" stroke="#000000" stroke-width="1" stroke-linecap="butt"/><path d="M205.57097,197.00583l3.56327,-3.56327l8.18232,5.27892l1.05578,4.48708l-5.54286,0.52789l-0.79184,0.26395l-2.50749,0.13197l-0.13197,-4.883l-4.09116,-1.4517z" fill="#00b420" stroke="#000000" stroke-width="1" stroke-linecap="round"/><path d="M202.17795,218.33267v-61.875h38.25v61.875z" fill="#ffffff" stroke="none" stroke-width="NaN" stroke-linecap="butt"/><path d="M215.95013,164.96839c0.73642,1.86284 -0.86377,4.14454 -1.02218,6.11428c-0.08709,1.08291 0.25562,3.36938 -0.5,4.125c-8.46183,8.46183 -5.02111,-6.95129 -4.57872,-8.84723c-0.03041,-0.17133 -0.04628,-0.3477 -0.04628,-0.52777c0,-1.65686 1.34314,-3 3,-3c0.16134,0 0.31971,0.01274 0.47415,0.03726c1.002,-0.16005 1.98431,0.35625 2.67303,2.09846z" fill="#000000" stroke="none" stroke-width="0.5" stroke-linecap="butt"/><path d="M230.67795,163.20767c0.75922,0.43383 1.80521,0.58283 2.39149,1.18843c0.08942,0.09236 0.16813,0.19534 0.23351,0.31157c1.36417,2.42514 0.14228,12.90876 -3.75,13.125c-5.0708,0.28171 -1.94519,-6.41568 -1.875,-8.73683c0.04463,-1.47606 -0.86761,-3.6781 0.41456,-4.41077z" fill="#000000" stroke="none" stroke-width="0.5" stroke-linecap="butt"/><path d="M208.03003,178.5035c0.11998,0.06127 0.23112,0.13654 0.33489,0.22306c0.65443,0.44583 1.12333,1.14381 1.26691,1.95418c0.29637,0.56734 0.60306,1.06324 1.04815,1.24664c2.00546,0.82635 5.74719,1.79677 7.95072,1.90529c1.98415,0.09772 3.94419,-0.91083 5.92225,-1c0.77314,-0.03485 1.6672,0.38078 2.32156,-0.03247c0.92259,-0.58265 3.20103,-1.95376 4.30344,-1.71753c2.52754,0.54162 3.34543,2.71063 2.01558,4.92705c-1.45033,2.41722 -5.82022,2.72938 -8.32876,2.82295c-1.72152,0.06421 -3.50778,1.01869 -5.22952,1.01869c-3.32965,0 -6.83037,-1.2911 -10.03098,-1.92264c-1.31875,-0.26021 -7.05671,-4.28462 -5.92177,-6.55449c-0.00302,-0.05514 -0.00455,-0.11067 -0.00455,-0.16656c0,-1.65685 1.34315,-3 3,-3c0.00203,0 0.00406,0 0.00609,0.00001c0.3727,-0.06036 0.80652,0.02032 1.346,0.29583z" fill="#000000" stroke="none" stroke-width="0.5" stroke-linecap="butt"/><path d="M201.35905,218.82567v-62.49176h38.86206v62.49176z" data-paper-data="{&quot;index&quot;:null}" fill="#00b420" stroke="#000000" stroke-width="1" stroke-linecap="butt"/><path d="M230.45676,174.69087v-5.07746h5.27275v5.07746z" data-paper-data="{&quot;index&quot;:null}" fill="#000000" stroke="#000000" stroke-width="1" stroke-linecap="butt"/><path d="M210.2415,174.59633v-5.07746h5.27275v5.07746z" data-paper-data="{&quot;index&quot;:null}" fill="#000000" stroke="#000000" stroke-width="1" stroke-linecap="butt"/><path d="M210.92803,160.43157l10.50416,2.03306" data-paper-data="{&quot;index&quot;:null}" fill="none" stroke="#000000" stroke-width="1" stroke-linecap="round"/><path d="M219.22971,159.41504l-2.03306,3.38844" data-paper-data="{&quot;index&quot;:null}" fill="none" stroke="#000000" stroke-width="1" stroke-linecap="round"/><path d="M215.84126,159.24561l-2.37191,2.88017" data-paper-data="{&quot;index&quot;:null}" fill="none" stroke="#000000" stroke-width="1" stroke-linecap="round"/><path d="M236.84961,178.89856l-7.11572,4.06613" data-paper-data="{&quot;index&quot;:null}" fill="none" stroke="#000000" stroke-width="1" stroke-linecap="round"/><path d="M235.49422,180.7622l-1.35537,-2.54133" data-paper-data="{&quot;index&quot;:null}" fill="none" stroke="#000000" stroke-width="1" stroke-linecap="round"/><path d="M233.46117,181.94815l-1.69422,-2.88017" data-paper-data="{&quot;index&quot;:null}" fill="none" stroke="#000000" stroke-width="1" stroke-linecap="round"/><path d="M231.93637,182.79527l-1.5248,-1.86364" data-paper-data="{&quot;index&quot;:null}" fill="none" stroke="#000000" stroke-width="1" stroke-linecap="round"/><path d="M220.36726,212.71117c15.90844,0 28.80479,2.03291 28.80479,4.54065c0,2.50773 -12.89634,4.54065 -28.80479,4.54065c-15.90844,0 -28.80479,-2.03291 -28.80479,-4.54065c0,-2.50773 12.89634,-4.54065 28.80479,-4.54065z" data-paper-data="{&quot;index&quot;:null}" fill="#8c8c8c" stroke="none" stroke-width="0" stroke-linecap="butt"/><path d="M201.35905,218.82567v-32.6129h38.86206v32.6129z" data-paper-data="{&quot;index&quot;:null}" fill="#6c6cd0" stroke="#000000" stroke-width="1" stroke-linecap="butt"/><path d="M205.15005,197.06817l3.56327,-3.56327l8.18232,5.27892l1.05578,4.48708l-5.54286,0.52789l-0.79184,0.26395l-2.50749,0.13197l-0.13197,-4.883l-4.09116,-1.4517z" fill="#00b420" stroke="#000000" stroke-width="1" stroke-linecap="round"/><path d="M201.75702,218.39501v-61.875h38.25v61.875z" fill="#ffffff" stroke="none" stroke-width="NaN" stroke-linecap="butt"/><text transform="translate(230.09445,157.57576) rotate(88.38008) scale(0.7632,-0.7632)" font-size="40" xml:space="preserve" data-paper-data="{&quot;index&quot;:null}" fill="#000000" fill-rule="nonzero" stroke="none" stroke-width="1" stroke-linecap="butt" stroke-linejoin="miter" stroke-miterlimit="10" stroke-dasharray="" stroke-dashoffset="0" font-family="Sans Serif" font-weight="normal" text-anchor="start" style="mix-blend-mode: normal"><tspan x="0" dy="0">:D</tspan></text></g></g></svg>