<svg version="1.1" xmlns="http://www.w3.org/2000/svg" xmlns:xlink="http://www.w3.org/1999/xlink" width="59.2771" height="67.33158" viewBox="0,0,59.2771,67.33158"><g transform="translate(-191.42744,-155.77157)"><g data-paper-data="{&quot;isPaintingLayer&quot;:true}" fill-rule="nonzero" stroke-linejoin="miter" stroke-miterlimit="10" stroke-dasharray="" stroke-dashoffset="0" style="mix-blend-mode: normal"><path d="M221.066,212.04155c16.36892,0 29.63855,2.47622 29.63855,5.5308c0,3.05457 -13.26963,5.5308 -29.63855,5.5308c-16.36892,0 -29.63856,-2.47623 -29.63856,-5.5308c0,-3.05457 13.26964,-5.5308 29.63856,-5.5308z" data-paper-data="{&quot;index&quot;:null}" fill="#494949" stroke="none" stroke-width="0" stroke-linecap="butt"/><path d="M201.77997,218.76333v-62.49176h38.86206v62.49176z" data-paper-data="{&quot;index&quot;:null}" fill="#00b420" stroke="#000000" stroke-width="1" stroke-linecap="butt"/><path d="M230.87769,174.62853v-5.07746h5.27275v5.07746z" data-paper-data="{&quot;index&quot;:null}" fill="#000000" stroke="#000000" stroke-width="1" stroke-linecap="butt"/><path d="M211.34896,160.36923l10.50416,2.03306" data-paper-data="{&quot;index&quot;:null}" fill="none" stroke="#000000" stroke-width="1" stroke-linecap="round"/><path d="M219.65065,159.3527l-2.03306,3.38844" data-paper-data="{&quot;index&quot;:null}" fill="none" stroke="#000000" stroke-width="1" stroke-linecap="round"/><path d="M216.2622,159.18327l-2.37191,2.88017" data-paper-data="{&quot;index&quot;:null}" fill="none" stroke="#000000" stroke-width="1" stroke-linecap="round"/><path d="M237.27055,178.83622l-7.11572,4.06613" data-paper-data="{&quot;index&quot;:null}" fill="none" stroke="#000000" stroke-width="1" stroke-linecap="round"/><path d="M234.55977,178.15853l1.35537,2.54133" data-paper-data="{&quot;index&quot;:null}" fill="none" stroke="#000000" stroke-width="1" stroke-linecap="round"/><path d="M233.88211,181.88581l-1.69422,-2.88017" data-paper-data="{&quot;index&quot;:null}" fill="none" stroke="#000000" stroke-width="1" stroke-linecap="round"/><path d="M230.83251,180.86929l1.5248,1.86364" data-paper-data="{&quot;index&quot;:null}" fill="none" stroke="#000000" stroke-width="1" stroke-linecap="round"/><path d="M201.77997,218.76333v-32.6129h38.86206v32.6129z" data-paper-data="{&quot;index&quot;:null}" fill="#6c6cd0" stroke="#000000" stroke-width="1" stroke-linecap="butt"/><path d="M224.31112,204.92421l1.9796,-4.35511l8.71021,-1.71565l-5.41089,3.95918l2.37551,1.45171l-3.56327,2.37551z" fill="#00b420" stroke="#000000" stroke-width="1" stroke-linecap="round"/><path d="M240.41183,156.49015l-0.13197,10.68981l-6.59865,-2.63946l0.92381,-2.11157l-0.52789,-2.77143l-2.77143,0.92381l-3.4313,-4.09116z" fill="#e40090" stroke="#000000" stroke-width="1" stroke-linecap="round"/><path d="M205.96687,168.10376l13.06532,7.39048" fill="none" stroke="#000000" stroke-width="2" stroke-linecap="round"/><path d="M215.99682,169.55547l-3.03538,5.67483" fill="none" stroke="#000000" stroke-width="2" stroke-linecap="round"/><path d="M210.84988,167.31193l-3.16735,4.883" fill="none" stroke="#000000" stroke-width="2" stroke-linecap="round"/><path d="M206.49476,198.98542l12.27348,-8.44627l-0.26395,6.46667l-3.4313,0.13197l-1.97959,5.41089z" fill="#00b420" stroke="#000000" stroke-width="1" stroke-linecap="round"/></g></g></svg>