<svg version="1.1" xmlns="http://www.w3.org/2000/svg" xmlns:xlink="http://www.w3.org/1999/xlink" width="61.71178" height="67.30859" viewBox="0,0,61.71178,67.30859"><g transform="translate(-208.55752,-132.04157)"><g data-paper-data="{&quot;isPaintingLayer&quot;:true}" fill-rule="nonzero" stroke-linejoin="miter" stroke-miterlimit="10" stroke-dasharray="" stroke-dashoffset="0" style="mix-blend-mode: normal"><path d="M220.21053,196.38336v-62.49176h38.86206v62.49176z" data-paper-data="{&quot;index&quot;:null}" fill="#704343" stroke="#000000" stroke-width="1" stroke-linecap="butt"/><path d="M249.30825,152.24856v-5.07746h5.27275v5.07746z" data-paper-data="{&quot;index&quot;:null}" fill="#000000" stroke="#000000" stroke-width="1" stroke-linecap="butt"/><path d="M229.09299,152.15402v-5.07746h5.27275v5.07746z" data-paper-data="{&quot;index&quot;:null}" fill="#000000" stroke="#000000" stroke-width="1" stroke-linecap="butt"/><path d="M239.21875,190.26886c15.90844,0 28.80479,2.03291 28.80479,4.54065c0,2.50773 -12.89634,4.54065 -28.80479,4.54065c-15.90844,0 -28.80479,-2.03291 -28.80479,-4.54065c0,-2.50773 12.89634,-4.54065 28.80479,-4.54065z" data-paper-data="{&quot;index&quot;:null}" fill="#8c8c8c" stroke="none" stroke-width="0" stroke-linecap="butt"/><path d="M220.21053,196.38336v-32.6129h38.86206v32.6129z" data-paper-data="{&quot;index&quot;:null}" fill="#704343" stroke="#000000" stroke-width="1" stroke-linecap="butt"/><path d="M241.25402,154.02391v5.21535h2.60768l0.15339,-1.84071" fill="none" stroke="#000000" stroke-width="0.5" stroke-linecap="round"/><path d="M240.94723,159.08587l-2.76107,0.30678l-0.30678,-1.38054" fill="none" stroke="#000000" stroke-width="0.5" stroke-linecap="round"/><path d="M239.25992,154.79087v-2.30089h3.9882v2.30089z" fill="#000000" stroke="#000000" stroke-width="0.5" stroke-linecap="butt"/><path d="M223.90971,167.60857l32.84791,-0.23179" fill="none" stroke="#0052ff" stroke-width="10" stroke-linecap="round"/><path d="M219.62565,147.58141l-7.36285,1.07375l-2.60768,-2.91446l10.4307,-11.65785z" fill="none" stroke="#000000" stroke-width="1.5" stroke-linecap="round"/><path d="M259.29239,147.67285l7.36285,1.07375l2.60768,-2.91446l-10.4307,-11.65784z" data-paper-data="{&quot;index&quot;:null}" fill="none" stroke="#000000" stroke-width="1.5" stroke-linecap="round"/><path d="M220.54601,132.85572l37.58121,0.30678" fill="none" stroke="#000000" stroke-width="1.5" stroke-linecap="round"/><path d="M213.2767,143.07317c0,0 -0.02549,0.02549 -0.07161,0.06194l-0.81821,1.13328c-0.21893,0.18194 -0.82324,0.92927 -1.3065,1.53514c0.02722,-0.0202 0.05272,-0.03987 0.07592,-0.05894c0.00204,-0.00171 0.00409,-0.00343 0.00615,-0.00514c0.00224,-0.00187 0.00449,-0.00373 0.00673,-0.00558c0.49185,-0.41481 0.91541,-0.66003 1.31855,-0.82104c0.21066,-0.17414 0.42869,-0.333 0.64958,-0.48147c0.1105,-0.54148 0.24832,-1.0917 0.41415,-1.63923c-0.09159,0.09368 -0.18317,0.18736 -0.27475,0.28105zM211.86248,141.65896c0.34759,-0.3415 0.69516,-0.68299 1.04275,-1.02449l1.05786,-0.54336c0,0 0.34903,-0.17452 0.72005,-0.08748c0.49223,-0.93091 1.08449,-1.78388 1.78113,-2.48627c0,0 0.67872,-0.67873 1.37121,-0.04129c0.0703,-0.23812 0.15442,-0.47774 0.25747,-0.71928l-0.08086,0.08714c0,0 0,-1 1,-1c1,0 1,1 1,1l-0.08085,0.7007c-0.35104,0.81502 -0.45416,1.57404 -0.5493,2.33588c0.08712,0.23091 0.11846,0.55192 0.10745,0.91998c0.4789,1.96928 1.38137,3.94082 0.0541,5.24698c-0.07032,0.61608 -0.56339,0.78384 -0.82669,0.82952c-0.06441,0.10663 -0.15641,0.18746 -0.2812,0.23666c-0.28262,0.11142 -0.56368,0.08139 -0.84391,-0.02459c-0.00606,0.00178 -0.01212,0.00356 -0.01819,0.00531l-0.06326,0.22141l-0.38391,-0.10969c-0.44001,0.0929 -0.89084,0.14 -1.33547,0.14817c0,0 -0.00637,0 -0.0181,-0.00051l-0.78931,0.21494c-1.44628,0.94154 -2.20231,1.06181 -3.22948,0.24626c-0.13766,0.09127 -0.28656,0.16552 -0.45194,0.21392c-0.67341,0.19708 -1.53601,0.62067 -2.09568,0.19749c-1.84261,-1.39327 0.72495,-4.44567 1.70526,-5.30835l0.69088,-0.97981c0,0 0.06788,-0.09503 0.18971,-0.19694c0.04086,-0.05288 0.07031,-0.08232 0.07031,-0.08232zM216.30842,141.18274l0.24997,-0.24083c-0.0179,-0.04592 -0.03343,-0.09541 -0.04623,-0.14875c-0.0702,0.12785 -0.1381,0.25781 -0.20374,0.38958z" fill="#000000" stroke="none" stroke-width="0.5" stroke-linecap="butt"/></g></g></svg>