<svg version="1.1" xmlns="http://www.w3.org/2000/svg" xmlns:xlink="http://www.w3.org/1999/xlink" width="59.95583" height="67.55781" viewBox="0,0,59.95583,67.55781"><g transform="translate(-190.74872,-155.77157)"><g data-paper-data="{&quot;isPaintingLayer&quot;:true}" fill-rule="nonzero" stroke-linejoin="miter" stroke-miterlimit="10" stroke-dasharray="" stroke-dashoffset="0" style="mix-blend-mode: normal"><path d="M220.72664,211.58907c16.55634,0 29.97791,2.62815 29.97791,5.87015c0,3.242 -13.42156,5.87016 -29.97791,5.87016c-16.55634,0 -29.97792,-2.62816 -29.97792,-5.87016c0,-3.242 13.42157,-5.87015 29.97792,-5.87015z" data-paper-data="{&quot;index&quot;:null}" fill="#494949" stroke="none" stroke-width="0" stroke-linecap="butt"/><path d="M201.77999,218.76333v-62.49176h38.86206v62.49176z" data-paper-data="{&quot;index&quot;:null}" fill="#00b420" stroke="#000000" stroke-width="1" stroke-linecap="butt"/><path d="M230.87769,174.62853v-5.07746h5.27275v5.07746z" data-paper-data="{&quot;index&quot;:null}" fill="#000000" stroke="#000000" stroke-width="1" stroke-linecap="butt"/><path d="M211.34897,160.36923l10.50416,2.03306" data-paper-data="{&quot;index&quot;:null}" fill="none" stroke="#000000" stroke-width="1" stroke-linecap="round"/><path d="M219.65065,159.3527l-2.03306,3.38844" data-paper-data="{&quot;index&quot;:null}" fill="none" stroke="#000000" stroke-width="1" stroke-linecap="round"/><path d="M216.2622,159.18327l-2.37191,2.88017" data-paper-data="{&quot;index&quot;:null}" fill="none" stroke="#000000" stroke-width="1" stroke-linecap="round"/><path d="M237.27055,178.83622l-7.11572,4.06613" data-paper-data="{&quot;index&quot;:null}" fill="none" stroke="#000000" stroke-width="1" stroke-linecap="round"/><path d="M234.55978,178.15853l1.35537,2.54133" data-paper-data="{&quot;index&quot;:null}" fill="none" stroke="#000000" stroke-width="1" stroke-linecap="round"/><path d="M232.18789,179.00564l1.69422,2.88017" data-paper-data="{&quot;index&quot;:null}" fill="none" stroke="#000000" stroke-width="1" stroke-linecap="round"/><path d="M230.83251,180.86929l1.5248,1.86364" data-paper-data="{&quot;index&quot;:null}" fill="none" stroke="#000000" stroke-width="1" stroke-linecap="round"/><path d="M201.77999,218.76333v-32.6129h38.86206v32.6129z" data-paper-data="{&quot;index&quot;:null}" fill="#6c6cd0" stroke="#000000" stroke-width="1" stroke-linecap="butt"/><path d="M224.31113,204.92421l1.9796,-4.35511l8.71021,-1.71565l-5.41089,3.95918l2.37551,1.45171l-3.56327,2.37551z" fill="#00b420" stroke="#000000" stroke-width="1" stroke-linecap="round"/><path d="M205.96688,168.10376l13.06532,7.39048" fill="none" stroke="#000000" stroke-width="2" stroke-linecap="round"/><path d="M215.99682,169.55547l-3.03538,5.67483" fill="none" stroke="#000000" stroke-width="2" stroke-linecap="round"/><path d="M210.84988,167.31193l-3.16735,4.883" fill="none" stroke="#000000" stroke-width="2" stroke-linecap="round"/><path d="M204.64715,211.91876l5.41089,-3.69524l3.43129,-0.26394l-0.39592,-3.69524l7.39048,3.82721l1.18776,3.95919l-5.67483,-1.84762l-2.63946,1.97959z" fill="#00b420" stroke="#000000" stroke-width="1" stroke-linecap="round"/></g></g></svg>