<svg version="1.1" xmlns="http://www.w3.org/2000/svg" xmlns:xlink="http://www.w3.org/1999/xlink" width="57.69343" height="67.33158" viewBox="0,0,57.69343,67.33158"><g transform="translate(-191.87992,-155.77157)"><g data-paper-data="{&quot;isPaintingLayer&quot;:true}" fill-rule="nonzero" stroke-linejoin="miter" stroke-miterlimit="10" stroke-dasharray="" stroke-dashoffset="0" style="mix-blend-mode: normal"><path d="M220.72664,212.26779c15.9316,0 28.84671,2.42557 28.84671,5.41768c0,2.9921 -12.91511,5.41768 -28.84671,5.41768c-15.9316,0 -28.84672,-2.42558 -28.84672,-5.41768c0,-2.9921 12.91512,-5.41768 28.84672,-5.41768z" data-paper-data="{&quot;index&quot;:null}" fill="#494949" stroke="none" stroke-width="0" stroke-linecap="butt"/><path d="M201.77997,218.76333v-62.49176h38.86206v62.49176z" data-paper-data="{&quot;index&quot;:null}" fill="#00b420" stroke="#000000" stroke-width="1" stroke-linecap="butt"/><path d="M230.87768,174.62853v-5.07746h5.27275v5.07746z" data-paper-data="{&quot;index&quot;:null}" fill="#000000" stroke="#000000" stroke-width="1" stroke-linecap="butt"/><path d="M210.66242,174.53399v-5.07746h5.27275v5.07746z" data-paper-data="{&quot;index&quot;:null}" fill="#000000" stroke="#000000" stroke-width="1" stroke-linecap="butt"/><path d="M221.85313,162.40229l-10.50416,-2.03306" data-paper-data="{&quot;index&quot;:null}" fill="none" stroke="#000000" stroke-width="1" stroke-linecap="round"/><path d="M219.65065,159.3527l-2.03306,3.38844" data-paper-data="{&quot;index&quot;:null}" fill="none" stroke="#000000" stroke-width="1" stroke-linecap="round"/><path d="M216.2622,159.18327l-2.37191,2.88017" data-paper-data="{&quot;index&quot;:null}" fill="none" stroke="#000000" stroke-width="1" stroke-linecap="round"/><path d="M237.27055,178.83622l-7.11572,4.06613" data-paper-data="{&quot;index&quot;:null}" fill="none" stroke="#000000" stroke-width="1" stroke-linecap="round"/><path d="M234.55978,178.15853l1.35537,2.54133" data-paper-data="{&quot;index&quot;:null}" fill="none" stroke="#000000" stroke-width="1" stroke-linecap="round"/><path d="M233.88211,181.88581l-1.69422,-2.88017" data-paper-data="{&quot;index&quot;:null}" fill="none" stroke="#000000" stroke-width="1" stroke-linecap="round"/><path d="M230.83251,180.86929l1.5248,1.86364" data-paper-data="{&quot;index&quot;:null}" fill="none" stroke="#000000" stroke-width="1" stroke-linecap="round"/><path d="M201.77997,218.76333v-32.6129h38.86206v32.6129z" data-paper-data="{&quot;index&quot;:null}" fill="#6c6cd0" stroke="#000000" stroke-width="1" stroke-linecap="butt"/><path d="M224.31113,204.92421l1.9796,-4.35511l8.71021,-1.71565l-5.41089,3.95918l2.37551,1.45171l-3.56327,2.37551z" fill="#00b420" stroke="#000000" stroke-width="1" stroke-linecap="round"/><path d="M240.41183,156.49015l-0.13197,10.68981l-6.59865,-2.63946l0.92381,-2.11157l-0.52789,-2.77143l-2.77143,0.92381l-3.4313,-4.09116z" fill="#e40090" stroke="#000000" stroke-width="1" stroke-linecap="round"/><path d="M219.0322,180.24527l3.03538,-8.05035" fill="none" stroke="#000000" stroke-width="1" stroke-linecap="round"/><path d="M217.71246,177.34187l5.93878,1.31973" fill="none" stroke="#000000" stroke-width="1" stroke-linecap="round"/><path d="M220.87981,173.51465l1.71565,-0.13197" fill="none" stroke="#000000" stroke-width="1" stroke-linecap="round"/><path d="M219.29614,175.2303l3.82721,1.4517" fill="none" stroke="#000000" stroke-width="1" stroke-linecap="round"/></g></g></svg>