<svg version="1.1" xmlns="http://www.w3.org/2000/svg" xmlns:xlink="http://www.w3.org/1999/xlink" width="48.64386" height="66.65437" viewBox="0,0,48.64386,66.65437"><g transform="translate(-214.05137,-132.01492)"><g data-paper-data="{&quot;isPaintingLayer&quot;:true}" fill-rule="nonzero" stroke-linecap="butt" stroke-linejoin="miter" stroke-miterlimit="10" stroke-dasharray="" stroke-dashoffset="0" style="mix-blend-mode: normal"><path d="M238.3733,191.0013c13.43263,0 24.32193,1.71654 24.32193,3.834c0,2.11746 -10.8893,3.834 -24.32193,3.834c-13.43263,0 -24.32193,-1.71654 -24.32193,-3.834c0,-2.11746 10.8893,-3.834 24.32193,-3.834z" data-paper-data="{&quot;index&quot;:null}" fill="#494949" stroke="none" stroke-width="0"/><path d="M221.82867,194.68015v-52.76623h32.81399v52.76623z" fill="#ffddb2" stroke="#000000" stroke-width="1"/><path d="M221.82867,194.68015v-27.53738h32.81399v27.53738z" fill="#6c6cd0" stroke="#000000" stroke-width="1"/><path d="M246.39794,157.41397v-4.28726h4.45215v4.28726z" fill="#000000" stroke="#000000" stroke-width="1"/><path d="M229.32874,157.33418v-4.28726h4.45215v4.28726z" fill="#000000" stroke="#000000" stroke-width="1"/><path d="M221.49888,143.06815v-3.62767h38.42041v3.62767z" fill="#ce0000" stroke="#000000" stroke-width="1"/><path d="M221.49888,139.93518v-7.42025h32.814v7.42025z" fill="#ce0000" stroke="#000000" stroke-width="1"/><path d="M222.01034,142.16387v-7.42025h31.72278v7.42025z" fill="#ce0000" stroke="none" stroke-width="0"/><path d="M247.21716,142.41386v-2.80321h12.39641v2.80321z" fill="#ce0000" stroke="none" stroke-width="0"/></g></g></svg>