<svg version="1.1" xmlns="http://www.w3.org/2000/svg" xmlns:xlink="http://www.w3.org/1999/xlink" width="48.64386" height="66.65435" viewBox="0,0,48.64386,66.65435"><g transform="translate(-214.05137,-132.0149)"><g data-paper-data="{&quot;isPaintingLayer&quot;:true}" fill-rule="nonzero" stroke-linejoin="miter" stroke-miterlimit="10" stroke-dasharray="" stroke-dashoffset="0" style="mix-blend-mode: normal"><path d="M238.3733,191.00126c13.43263,0 24.32193,1.71654 24.32193,3.834c0,2.11746 -10.8893,3.834 -24.32193,3.834c-13.43263,0 -24.32193,-1.71654 -24.32193,-3.834c0,-2.11746 10.8893,-3.834 24.32193,-3.834z" data-paper-data="{&quot;index&quot;:null}" fill="#8c8c8c" stroke="none" stroke-width="0" stroke-linecap="butt"/><path d="M221.82867,194.68012v-52.76623h32.81399v52.76623z" fill="#ffddb2" stroke="#000000" stroke-width="1" stroke-linecap="butt"/><path d="M221.82867,194.68012v-27.53738h32.81399v27.53738z" fill="#ce0000" stroke="#000000" stroke-width="1" stroke-linecap="butt"/><path d="M246.39794,157.41396v-4.28726h4.45215v4.28726z" fill="#000000" stroke="#000000" stroke-width="1" stroke-linecap="butt"/><path d="M229.32874,157.33415v-4.28726h4.45215v4.28726z" fill="#000000" stroke="#000000" stroke-width="1" stroke-linecap="butt"/><path d="M221.49888,143.06814v-3.62767h38.42041v3.62767z" fill="#6c6cd0" stroke="#000000" stroke-width="1" stroke-linecap="butt"/><path d="M221.49888,139.93516v-7.42025h32.814v7.42025z" fill="#6c6cd0" stroke="#000000" stroke-width="1" stroke-linecap="butt"/><path d="M221.87697,141.76373v-7.42025h31.98953v7.42025z" fill="#6c6cd0" stroke="none" stroke-width="0" stroke-linecap="butt"/><path d="M247.21716,142.41383v-2.80321h12.39641v2.80321z" fill="#6c6cd0" stroke="none" stroke-width="0" stroke-linecap="butt"/><path d="M233.73448,151.27503l-1.067,1.067l-0.66688,0.66688" fill="none" stroke="#000000" stroke-width="1.5" stroke-linecap="round"/><path d="M230.93359,151.00828l-0.13338,1.33376" fill="none" stroke="#000000" stroke-width="1.5" stroke-linecap="round"/><path d="M228.79958,151.80853l0.93363,0.66688" fill="none" stroke="#000000" stroke-width="1.5" stroke-linecap="round"/><path d="M248.80593,153.80916l0.93363,-1.33375l1.06701,-1.067" fill="none" stroke="#000000" stroke-width="1.5" stroke-linecap="round"/><path d="M248.00568,153.80916v-1.33375l0.13338,-1.33376" fill="none" stroke="#000000" stroke-width="1.5" stroke-linecap="round"/><path d="M246.13842,152.07528l0.5335,1.06701" fill="none" stroke="#000000" stroke-width="1.5" stroke-linecap="round"/><path d="M221.73067,171.68151l-7.06891,-6.53541l6.66878,-22.80724z" fill="#cfc048" stroke="#000000" stroke-width="0.5" stroke-linecap="round"/></g></g></svg>