<svg version="1.1" xmlns="http://www.w3.org/2000/svg" xmlns:xlink="http://www.w3.org/1999/xlink" width="48.64386" height="65.75929" viewBox="0,0,48.64386,65.75929"><g transform="translate(-214.05137,-135.19645)"><g data-paper-data="{&quot;isPaintingLayer&quot;:true}" fill-rule="nonzero" stroke-linejoin="miter" stroke-miterlimit="10" stroke-dasharray="" stroke-dashoffset="0" style="mix-blend-mode: normal"><path d="M238.3733,192.37316c13.43263,0 24.32193,1.92127 24.32193,4.29129c0,2.37001 -10.8893,4.29129 -24.32193,4.29129c-13.43263,0 -24.32193,-1.92127 -24.32193,-4.29129c0,-2.37001 10.8893,-4.29129 24.32193,-4.29129z" data-paper-data="{&quot;index&quot;:null}" fill="#494949" stroke="none" stroke-width="0" stroke-linecap="butt"/><path d="M222.95733,196.93739v-52.76623h32.81399v52.76623z" fill="#ffddb2" stroke="#000000" stroke-width="1" stroke-linecap="butt"/><path d="M222.72165,196.79118v-31.06011h33.16476v31.06011z" data-paper-data="{&quot;index&quot;:null}" fill="#000000" stroke="#000000" stroke-width="2" stroke-linecap="butt"/><path d="M227.946,161.12075l-0.17094,0.30971" data-paper-data="{&quot;index&quot;:null}" fill="none" stroke="#000000" stroke-width="1" stroke-linecap="round"/><path d="M229.74944,162.54336l1.64535,-2.70279" data-paper-data="{&quot;index&quot;:null}" fill="none" stroke="#000000" stroke-width="1" stroke-linecap="round"/><path d="M231.23026,163.33832l1.48082,-1.74887" data-paper-data="{&quot;index&quot;:null}" fill="none" stroke="#000000" stroke-width="1" stroke-linecap="round"/><path d="M229.31326,161.75734l17.60414,1.54932l-6.49872,14.34859l-8.12187,-12.42971l-4.05812,-2.6311z" data-paper-data="{&quot;index&quot;:null}" fill="#ffffff" stroke="#ffffff" stroke-width="3" stroke-linecap="round"/><path d="M222.14094,166.05131v-29.70785h34.26515v29.70785z" data-paper-data="{&quot;index&quot;:null}" fill="#ffddb2" stroke="#000000" stroke-width="1" stroke-linecap="butt"/><path d="M218.04942,146.12696v-4.67178h42.63915v4.67179z" data-paper-data="{&quot;index&quot;:null}" fill="#000000" stroke="#000000" stroke-width="1" stroke-linecap="butt"/><path d="M220.57633,145.19833v-9.50188h36.34177v9.50188z" fill="#000000" stroke="#000000" stroke-width="1" stroke-linecap="butt"/><path d="M236.47945,170.28486v-3.82041h6.37692c0,0 0,2.87897 0,3.4477c0,0.18699 -2.76334,3.32562 -2.76334,3.32562z" fill="#5500ff" stroke="none" stroke-width="NaN" stroke-linecap="butt"/><path d="M241.54619,172.51978v10.57288l-1.90651,2.14261l-1.84434,-2.14261v-10.57288l1.96868,-2.28278z" data-paper-data="{&quot;index&quot;:null}" fill="#5500ff" stroke="none" stroke-width="0" stroke-linecap="butt"/><path d="M247.5266,158.99406v-4.28726h4.45215v4.28726z" fill="#000000" stroke="#000000" stroke-width="1" stroke-linecap="butt"/><path d="M230.4574,158.68849v-4.28726h4.45215v4.28726z" fill="#000000" stroke="#000000" stroke-width="1" stroke-linecap="butt"/></g></g></svg>