<svg version="1.1" xmlns="http://www.w3.org/2000/svg" xmlns:xlink="http://www.w3.org/1999/xlink" width="55.94772" height="66.60991" viewBox="0,0,55.94772,66.60991"><g transform="translate(-211.85533,-133.77238)"><g data-paper-data="{&quot;isPaintingLayer&quot;:true}" fill-rule="nonzero" stroke-linejoin="miter" stroke-miterlimit="10" stroke-dasharray="" stroke-dashoffset="0" style="mix-blend-mode: normal"><g><path d="M239.82919,192.51685c15.44954,0 27.97386,1.76073 27.97386,3.93272c0,2.17198 -12.52432,3.93272 -27.97386,3.93272c-15.44954,0 -27.97386,-1.76073 -27.97386,-3.93272c0,-2.17198 12.52432,-3.93272 27.97386,-3.93272z" data-paper-data="{&quot;index&quot;:null}" fill="#8c8c8c" stroke="none" stroke-width="0" stroke-linecap="butt"/><path d="M220.33309,195.04026v-39.58391c2.64772,0.57832 5.63297,-0.31688 8.20061,-0.34369c1.32576,-0.01383 2.65153,-0.02457 3.97731,-0.03271c3.10711,0.56591 8.1513,0.33636 12.90653,-0.01502c0.79914,0.00196 1.59829,0.00426 2.39742,0.00678c2.60824,2.11583 5.53189,4.11705 8.58817,5.71266c0.38444,0.78213 0.93068,1.43194 1.67096,1.88499v32.37087z" data-paper-data="{&quot;index&quot;:null}" fill="#00b420" stroke="#000000" stroke-width="1" stroke-linecap="butt"/><path d="M253.31262,159.01121l0.17094,0.30971" data-paper-data="{&quot;index&quot;:null}" fill="none" stroke="#000000" stroke-width="1" stroke-linecap="round"/><path d="M251.50918,160.43382l-1.64535,-2.70279" data-paper-data="{&quot;index&quot;:null}" fill="none" stroke="#000000" stroke-width="1" stroke-linecap="round"/><path d="M250.02836,161.22878l-1.48082,-1.74887" data-paper-data="{&quot;index&quot;:null}" fill="none" stroke="#000000" stroke-width="1" stroke-linecap="round"/><path d="M220.33309,195.04026v-30.60445h37.74102v30.60445z" data-paper-data="{&quot;index&quot;:null}" fill="#6c6cd0" stroke="#000000" stroke-width="1" stroke-linecap="butt"/><path d="M242.21428,182.05342l1.9225,-4.08691l8.45895,-1.60999l-5.2548,3.71536l2.30698,1.36231l-3.46048,2.22921z" fill="#00b420" stroke="#000000" stroke-width="1" stroke-linecap="round"/><path d="M223.11755,188.61721l5.2548,-3.46767l3.33231,-0.24769l-0.3845,-3.46767l7.17729,3.5915l1.1535,3.71536l-5.51114,-1.73384l-2.56332,1.85768z" fill="#00b420" stroke="#000000" stroke-width="1" stroke-linecap="round"/><path d="M220.68242,194.68564v-30.71366h36.65545v30.71366z" fill="#000000" stroke="#000000" stroke-width="2" stroke-linecap="butt"/><path d="M252.79143,158.68104l-4.90203,2.70673l-9.81085,12.787l-7.85016,-14.76104l21.26502,-1.59385" fill="none" stroke="#ffffff" stroke-width="3" stroke-linecap="round"/><path d="M247.41391,157.06769c1.34089,0 2.42788,1.05035 2.42788,2.34604c0,1.19673 -0.92729,2.18415 -2.12546,2.32801c0.00251,0.04374 0.00378,0.0878 0.00378,0.13216c0,1.29568 -1.087,2.34604 -2.42788,2.34604c-0.39428,0 -0.76658,-0.09082 -1.09577,-0.25197c-1.32957,2.49968 -3.14942,4.73096 -3.50608,7.48831l0.02823,0.0533c0,0 0,2.34604 -2.42788,2.34604c-2.42788,0 -2.42788,-2.34604 -2.42788,-2.34604l0.02823,-0.76676c0.06986,-0.38946 0.15564,-0.76455 0.25494,-1.12788c-0.01468,-0.05726 -0.02716,-0.11537 -0.03737,-0.1742l-0.33628,-1.73303c-1.52506,-0.5534 -2.81372,-1.82892 -3.68845,-3.15245c-4.56639,-6.90936 6.24616,-8.6949 10.66232,-8.71764l1.43753,0.27507c0,0 1.33064,0.32144 1.74161,1.44754c0.41109,-0.30871 0.9276,-0.49252 1.48854,-0.49252z" fill="#ffffff" stroke="none" stroke-width="0.5" stroke-linecap="butt"/><path d="M229.14473,163.88419l-6.9745,-0.92957l34.39147,1.62675l-35.59397,-0.69718" fill="none" stroke="#000000" stroke-width="2" stroke-linecap="round"/><path d="M238.19521,171.8137c0,0 -2.76334,-3.13863 -2.76334,-3.32562c0,-0.56873 0,-3.4477 0,-3.4477h6.37692v3.82041z" fill="#5500ff" stroke="none" stroke-width="NaN" stroke-linecap="butt"/><path d="M238.52422,169.26991l1.96868,2.28278v10.57288l-1.84434,2.14261l-1.90651,-2.14261v-10.57288z" data-paper-data="{&quot;index&quot;:null}" fill="#5500ff" stroke="none" stroke-width="0" stroke-linecap="butt"/><path d="M219.3029,164.28865v-29.37648h39.2228v29.37648z" fill="#ffddb2" stroke="#000000" stroke-width="1" stroke-linecap="butt"/><path d="M228.46701,151.90243v-5.05134h5.32169v5.05134z" fill="#000000" stroke="#000000" stroke-width="1" stroke-linecap="butt"/><path d="M248.58802,151.90243v-5.05134h5.32169v5.05134z" fill="#000000" stroke="#000000" stroke-width="1" stroke-linecap="butt"/><path d="M214.40081,143.69816v-5.49837h48.80839v5.49837z" fill="#000000" stroke="#000000" stroke-width="1" stroke-linecap="butt"/><path d="M219.18204,140.7526v-6.48022h39.24593v6.48022z" fill="#000000" stroke="#000000" stroke-width="1" stroke-linecap="butt"/></g></g></g></svg>