<svg version="1.1" xmlns="http://www.w3.org/2000/svg" xmlns:xlink="http://www.w3.org/1999/xlink" width="59.05087" height="67.55782" viewBox="0,0,59.05087,67.55782"><g transform="translate(-191.42744,-155.77157)"><g data-paper-data="{&quot;isPaintingLayer&quot;:true}" fill-rule="nonzero" stroke-linejoin="miter" stroke-miterlimit="10" stroke-dasharray="" stroke-dashoffset="0" style="mix-blend-mode: normal"><path d="M220.95288,212.04155c16.30645,0 29.52543,2.52686 29.52543,5.64392c0,3.11704 -13.21898,5.64392 -29.52543,5.64392c-16.30645,0 -29.52544,-2.52687 -29.52544,-5.64392c0,-3.11704 13.21899,-5.64392 29.52544,-5.64392z" data-paper-data="{&quot;index&quot;:null}" fill="#494949" stroke="none" stroke-width="0" stroke-linecap="butt"/><path d="M201.77996,218.76333v-62.49176h38.86206v62.49176z" data-paper-data="{&quot;index&quot;:null}" fill="#00b420" stroke="#000000" stroke-width="1" stroke-linecap="butt"/><path d="M230.87766,174.62853v-5.07746h5.27275v5.07746z" data-paper-data="{&quot;index&quot;:null}" fill="#000000" stroke="#000000" stroke-width="1" stroke-linecap="butt"/><path d="M210.6624,174.53399v-5.07746h5.27275v5.07746z" data-paper-data="{&quot;index&quot;:null}" fill="#000000" stroke="#000000" stroke-width="1" stroke-linecap="butt"/><path d="M221.85311,162.40229l-10.50416,-2.03306" data-paper-data="{&quot;index&quot;:null}" fill="none" stroke="#000000" stroke-width="1" stroke-linecap="round"/><path d="M219.65064,159.3527l-2.03306,3.38844" data-paper-data="{&quot;index&quot;:null}" fill="none" stroke="#000000" stroke-width="1" stroke-linecap="round"/><path d="M216.26219,159.18327l-2.37191,2.88017" data-paper-data="{&quot;index&quot;:null}" fill="none" stroke="#000000" stroke-width="1" stroke-linecap="round"/><path d="M230.15482,182.90235l7.11572,-4.06613" data-paper-data="{&quot;index&quot;:null}" fill="none" stroke="#000000" stroke-width="1" stroke-linecap="round"/><path d="M234.55977,178.15853l1.35537,2.54133" data-paper-data="{&quot;index&quot;:null}" fill="none" stroke="#000000" stroke-width="1" stroke-linecap="round"/><path d="M233.8821,181.88581l-1.69422,-2.88017" data-paper-data="{&quot;index&quot;:null}" fill="none" stroke="#000000" stroke-width="1" stroke-linecap="round"/><path d="M232.3573,182.73293l-1.5248,-1.86364" data-paper-data="{&quot;index&quot;:null}" fill="none" stroke="#000000" stroke-width="1" stroke-linecap="round"/><path d="M201.77996,218.76333v-32.6129h38.86206v32.6129z" data-paper-data="{&quot;index&quot;:null}" fill="#6c6cd0" stroke="#000000" stroke-width="1" stroke-linecap="butt"/><path d="M207.41857,197.6657l1.31973,-4.48708l2.11157,1.84762l3.16735,1.58367l-0.65986,3.56327h1.18775l1.45171,1.18776l-3.56327,1.84762l-1.05579,-3.82721z" fill="#00b420" stroke="#000000" stroke-width="1" stroke-linecap="round"/><path d="M224.31112,204.92421l1.9796,-4.35511l8.71021,-1.71565l-5.41089,3.95918l2.37551,1.45171l-3.56327,2.37551z" fill="#00b420" stroke="#000000" stroke-width="1" stroke-linecap="round"/><path d="M206.09885,176.55003l11.2177,5.27892" fill="none" stroke="#000000" stroke-width="1" stroke-linecap="round"/><path d="M215.073,179.32146l-1.71565,1.97959" fill="none" stroke="#000000" stroke-width="1" stroke-linecap="round"/><path d="M206.49476,178.6616l3.95919,-2.11157" fill="none" stroke="#000000" stroke-width="1" stroke-linecap="round"/></g></g></svg>