<svg version="1.1" xmlns="http://www.w3.org/2000/svg" xmlns:xlink="http://www.w3.org/1999/xlink" width="48.64386" height="66.65435" viewBox="0,0,48.64386,66.65435"><g transform="translate(-214.05137,-132.0149)"><g data-paper-data="{&quot;isPaintingLayer&quot;:true}" fill-rule="nonzero" stroke-linecap="butt" stroke-linejoin="miter" stroke-miterlimit="10" stroke-dasharray="" stroke-dashoffset="0" style="mix-blend-mode: normal"><g><path d="M238.37331,191.00126c13.43263,0 24.32193,1.71654 24.32193,3.834c0,2.11746 -10.8893,3.834 -24.32193,3.834c-13.43263,0 -24.32193,-1.71654 -24.32193,-3.834c0,-2.11746 10.8893,-3.834 24.32193,-3.834z" data-paper-data="{&quot;index&quot;:null}" fill="#8c8c8c" stroke="none" stroke-width="0"/><path d="M221.82868,194.68012v-52.76623h32.81399v52.76623z" fill="#ffddb2" stroke="#000000" stroke-width="1"/><path d="M221.82868,194.68012v-27.53738h32.81399v27.53738z" fill="#6c6cd0" stroke="#000000" stroke-width="1"/><path d="M246.39795,157.41396v-4.28726h4.45215v4.28726z" fill="#000000" stroke="#000000" stroke-width="1"/><path d="M229.32875,157.33414v-4.28726h4.45215v4.28726z" fill="#000000" stroke="#000000" stroke-width="1"/><path d="M221.49889,143.06814v-3.62767h38.42041v3.62767z" fill="#ce0000" stroke="#000000" stroke-width="1"/><path d="M221.49889,139.93515v-7.42025h32.814v7.42025z" fill="#ce0000" stroke="#000000" stroke-width="1"/><path d="M221.7436,142.16385v-7.42025h31.98953v7.42025z" fill="#ce0000" stroke="none" stroke-width="0"/><path d="M247.21717,142.41382v-2.80321h12.39641v2.80321z" fill="#ce0000" stroke="none" stroke-width="0"/></g></g></g></svg>